Monoto-SemiCondensed.ufo
<glyph name="quotedbl" format="2">
  <advance width="530"/>
  <unicode hex="0022"/>
  <outline>
    <contour>
      <point x="305" y="456" type="line"/>
      <point x="366" y="456" type="line"/>
      <point x="382" y="714" type="line"/>
      <point x="288" y="714" type="line"/>
    </contour>
    <contour>
      <point x="135" y="456" type="line"/>
      <point x="196" y="456" type="line"/>
      <point x="212" y="714" type="line"/>
      <point x="118" y="714" type="line"/>
    </contour>
  </outline>
</glyph>
<glyph name="numbersign" format="2">
  <advance width="530"/>
  <unicode hex="0023"/>
  <outline>
    <contour>
      <point x="95" y="0" type="line"/>
      <point x="156" y="0" type="line"/>
      <point x="182" y="217" type="line"/>
      <point x="281" y="217" type="line"/>
      <point x="254" y="0" type="line"/>
      <point x="317" y="0" type="line"/>
      <point x="344" y="217" type="line"/>
      <point x="439" y="217" type="line"/>
      <point x="439" y="282" type="line"/>
      <point x="352" y="282" type="line"/>
      <point x="372" y="449" type="line"/>
      <point x="462" y="449" type="line"/>
      <point x="462" y="513" type="line"/>
      <point x="379" y="513" type="line"/>
      <point x="404" y="714" type="line"/>
      <point x="343" y="714" type="line"/>
      <point x="318" y="513" type="line"/>
      <point x="219" y="513" type="line"/>
      <point x="244" y="714" type="line"/>
      <point x="181" y="714" type="line"/>
      <point x="157" y="513" type="line"/>
      <point x="61" y="513" type="line"/>
      <point x="61" y="449" type="line"/>
      <point x="149" y="449" type="line"/>
      <point x="129" y="282" type="line"/>
      <point x="38" y="282" type="line"/>
      <point x="38" y="217" type="line"/>
      <point x="121" y="217" type="line"/>
    </contour>
    <contour>
      <point x="191" y="282" type="line"/>
      <point x="211" y="449" type="line"/>
      <point x="310" y="449" type="line"/>
      <point x="289" y="282" type="line"/>
    </contour>
  </outline>
</glyph>
<glyph name="dollar" format="2">
  <advance width="530"/>
  <unicode hex="0024"/>
  <outline>
    <contour>
      <point x="232" y="-58" type="line"/>
      <point x="281" y="-58" type="line"/>
      <point x="281" y="41" type="line"/>
      <point x="383" y="57"/>
      <point x="442" y="122"/>
      <point x="442" y="212" type="curve" smooth="yes"/>
      <point x="442" y="303"/>
      <point x="389" y="348"/>
      <point x="281" y="392" type="curve"/>
      <point x="281" y="617" type="line"/>
      <point x="325" y="614"/>
      <point x="361" y="605"/>
      <point x="396" y="587" type="curve"/>
      <point x="419" y="652" type="line"/>
      <point x="377" y="673"/>
      <point x="332" y="684"/>
      <point x="281" y="687" type="curve"/>
      <point x="281" y="760" type="line"/>
      <point x="232" y="760" type="line"/>
      <point x="232" y="685" type="line"/>
      <point x="136" y="676"/>
      <point x="72" y="613"/>
      <point x="72" y="521" type="curve" smooth="yes"/>
      <point x="72" y="428"/>
      <point x="117" y="380"/>
      <point x="232" y="335" type="curve"/>
      <point x="232" y="105" type="line"/>
      <point x="175" y="107"/>
      <point x="120" y="125"/>
      <point x="83" y="148" type="curve"/>
      <point x="83" y="70" type="line"/>
      <point x="120" y="51"/>
      <point x="172" y="38"/>
      <point x="232" y="37" type="curve"/>
    </contour>
    <contour>
      <point x="281" y="109" type="curve"/>
      <point x="281" y="315" type="line"/>
      <point x="344" y="289"/>
      <point x="371" y="259"/>
      <point x="371" y="207" type="curve" smooth="yes"/>
      <point x="371" y="159"/>
      <point x="341" y="121"/>
    </contour>
    <contour>
      <point x="232" y="413" type="line"/>
      <point x="167" y="442"/>
      <point x="144" y="466"/>
      <point x="144" y="523" type="curve" smooth="yes"/>
      <point x="144" y="572"/>
      <point x="176" y="609"/>
      <point x="232" y="616" type="curve"/>
    </contour>
  </outline>
</glyph>
<glyph name="percent" format="2">
  <advance width="530"/>
  <unicode hex="0025"/>
  <outline>
    <contour>
      <point x="15" y="168" type="line"/>
      <point x="93" y="168" type="line"/>
      <point x="483" y="545" type="line"/>
      <point x="405" y="545" type="line"/>
    </contour>
    <contour>
      <point x="361" y="-9" type="curve" smooth="yes"/>
      <point x="446" y="-9"/>
      <point x="500" y="53"/>
      <point x="500" y="161" type="curve" smooth="yes"/>
      <point x="500" y="269"/>
      <point x="441" y="330"/>
      <point x="363" y="330" type="curve" smooth="yes"/>
      <point x="277" y="330"/>
      <point x="224" y="269"/>
      <point x="224" y="161" type="curve" smooth="yes"/>
      <point x="224" y="53"/>
      <point x="282" y="-9"/>
    </contour>
    <contour>
      <point x="362" y="44" type="curve" smooth="yes"/>
      <point x="315" y="44"/>
      <point x="293" y="83"/>
      <point x="293" y="161" type="curve" smooth="yes"/>
      <point x="293" y="239"/>
      <point x="314" y="276"/>
      <point x="362" y="276" type="curve" smooth="yes"/>
      <point x="409" y="276"/>
      <point x="430" y="239"/>
      <point x="430" y="161" type="curve" smooth="yes"/>
      <point x="430" y="83"/>
      <point x="408" y="44"/>
    </contour>
    <contour>
      <point x="137" y="383" type="curve" smooth="yes"/>
      <point x="222" y="383"/>
      <point x="276" y="445"/>
      <point x="276" y="553" type="curve" smooth="yes"/>
      <point x="276" y="661"/>
      <point x="217" y="722"/>
      <point x="139" y="722" type="curve" smooth="yes"/>
      <point x="53" y="722"/>
      <point x="0" y="661"/>
      <point x="0" y="553" type="curve" smooth="yes"/>
      <point x="0" y="445"/>
      <point x="58" y="383"/>
    </contour>
    <contour>
      <point x="138" y="436" type="curve" smooth="yes"/>
      <point x="91" y="436"/>
      <point x="69" y="475"/>
      <point x="69" y="553" type="curve" smooth="yes"/>
      <point x="69" y="631"/>
      <point x="90" y="668"/>
      <point x="138" y="668" type="curve" smooth="yes"/>
      <point x="185" y="668"/>
      <point x="206" y="631"/>
      <point x="206" y="553" type="curve" smooth="yes"/>
      <point x="206" y="475"/>
      <point x="184" y="436"/>
    </contour>
  </outline>
</glyph>
<glyph name="quotesingle" format="2">
  <advance width="530"/>
  <unicode hex="0027"/>
  <outline>
    <contour>
      <point x="220" y="456" type="line"/>
      <point x="281" y="456" type="line"/>
      <point x="297" y="714" type="line"/>
      <point x="203" y="714" type="line"/>
    </contour>
  </outline>
</glyph>
<glyph name="hyphen" format="2">
  <advance width="530"/>
  <unicode hex="002D"/>
  <outline>
    <contour>
      <point x="124" y="232" type="line"/>
      <point x="375" y="232" type="line"/>
      <point x="375" y="310" type="line"/>
      <point x="124" y="310" type="line"/>
    </contour>
  </outline>
</glyph>
<glyph name="slash" format="2">
  <advance width="530"/>
  <unicode hex="002F"/>
  <outline>
    <contour>
      <point x="19" y="-3" type="line"/>
      <point x="96" y="-3" type="line"/>
      <point x="358" y="717" type="line"/>
      <point x="282" y="717" type="line"/>
    </contour>
  </outline>
</glyph>
<glyph name="zero" format="2">
  <advance width="530"/>
  <unicode hex="0030"/>
  <outline>
    <contour>
      <point x="249" y="-10" type="curve" smooth="yes"/>
      <point x="411" y="-10"/>
      <point x="468" y="127"/>
      <point x="468" y="358" type="curve" smooth="yes"/>
      <point x="468" y="590"/>
      <point x="406" y="725"/>
      <point x="249" y="725" type="curve" smooth="yes"/>
      <point x="88" y="725"/>
      <point x="32" y="589"/>
      <point x="32" y="358" type="curve" smooth="yes"/>
      <point x="32" y="127"/>
      <point x="92" y="-10"/>
    </contour>
    <contour>
      <point x="135" y="99" type="line"/>
      <point x="408" y="566" type="line"/>
      <point x="356" y="621" type="line"/>
      <point x="76" y="140" type="line"/>
    </contour>
    <contour>
      <point x="249" y="62" type="curve" smooth="yes"/>
      <point x="153" y="62"/>
      <point x="119" y="175"/>
      <point x="119" y="358" type="curve" smooth="yes"/>
      <point x="119" y="553"/>
      <point x="155" y="653"/>
      <point x="249" y="653" type="curve" smooth="yes"/>
      <point x="356" y="653"/>
      <point x="383" y="547"/>
      <point x="383" y="358" type="curve" smooth="yes"/>
      <point x="383" y="161"/>
      <point x="345" y="62"/>
    </contour>
  </outline>
</glyph>
<glyph name="one" format="2">
  <advance width="530"/>
  <unicode hex="0031"/>
  <outline>
    <contour>
      <point x="232" y="0" type="line"/>
      <point x="316" y="0" type="line"/>
      <point x="316" y="714" type="line"/>
      <point x="247" y="714" type="line"/>
      <point x="67" y="603" type="line"/>
      <point x="107" y="540" type="line"/>
      <point x="181" y="585" type="line" smooth="yes"/>
      <point x="205" y="599"/>
      <point x="216" y="607"/>
      <point x="235" y="625" type="curve"/>
      <point x="233" y="581"/>
      <point x="232" y="504"/>
      <point x="232" y="448" type="curve" smooth="yes"/>
    </contour>
    <contour>
      <point x="102" y="0" type="line"/>
      <point x="436" y="0" type="line"/>
      <point x="436" y="59" type="line"/>
      <point x="317" y="69" type="line"/>
      <point x="232" y="69" type="line"/>
      <point x="102" y="59" type="line"/>
    </contour>
  </outline>
</glyph>
<glyph name="six" format="2">
  <advance width="530"/>
  <unicode hex="0036"/>
  <outline>
    <contour>
      <point x="256" y="-10" type="curve" smooth="yes"/>
      <point x="373" y="-10"/>
      <point x="444" y="82"/>
      <point x="444" y="228" type="curve" smooth="yes"/>
      <point x="444" y="367"/>
      <point x="380" y="447"/>
      <point x="278" y="447" type="curve" smooth="yes"/>
      <point x="210" y="447"/>
      <point x="171" y="411"/>
      <point x="144" y="363" type="curve"/>
      <point x="139" y="363" type="line"/>
      <point x="145" y="520"/>
      <point x="189" y="653"/>
      <point x="331" y="653" type="curve" smooth="yes"/>
      <point x="356" y="653"/>
      <point x="379" y="649"/>
      <point x="399" y="641" type="curve"/>
      <point x="399" y="715" type="line"/>
      <point x="382" y="721"/>
      <point x="354" y="724"/>
      <point x="329" y="724" type="curve" smooth="yes"/>
      <point x="130" y="724"/>
      <point x="54" y="528"/>
      <point x="54" y="312" type="curve" smooth="yes"/>
      <point x="54" y="87"/>
      <point x="136" y="-10"/>
    </contour>
    <contour>
      <point x="258" y="63" type="curve" smooth="yes"/>
      <point x="173" y="63"/>
      <point x="142" y="160"/>
      <point x="142" y="238" type="curve" smooth="yes"/>
      <point x="142" y="317"/>
      <point x="193" y="378"/>
      <point x="260" y="378" type="curve" smooth="yes"/>
      <point x="325" y="378"/>
      <point x="359" y="322"/>
      <point x="359" y="225" type="curve" smooth="yes"/>
      <point x="359" y="118"/>
      <point x="317" y="63"/>
    </contour>
  </outline>
</glyph>
<glyph name="nine" format="2">
  <advance width="530"/>
  <unicode hex="0039"/>
  <outline>
    <contour>
      <point x="167" y="-10" type="curve" smooth="yes"/>
      <point x="370" y="-10"/>
      <point x="443" y="203"/>
      <point x="443" y="410" type="curve" smooth="yes"/>
      <point x="443" y="623"/>
      <point x="365" y="724"/>
      <point x="242" y="724" type="curve" smooth="yes"/>
      <point x="125" y="724"/>
      <point x="54" y="633"/>
      <point x="54" y="485" type="curve" smooth="yes"/>
      <point x="54" y="346"/>
      <point x="117" y="268"/>
      <point x="219" y="268" type="curve" smooth="yes"/>
      <point x="285" y="268"/>
      <point x="323" y="300"/>
      <point x="354" y="351" type="curve"/>
      <point x="358" y="351" type="line"/>
      <point x="352" y="195"/>
      <point x="296" y="61"/>
      <point x="165" y="61" type="curve"/>
      <point x="142" y="61"/>
      <point x="117" y="65"/>
      <point x="97" y="74" type="curve"/>
      <point x="97" y="-1" type="line"/>
      <point x="115" y="-7"/>
      <point x="143" y="-10"/>
    </contour>
    <contour>
      <point x="237" y="336" type="curve" smooth="yes"/>
      <point x="173" y="336"/>
      <point x="138" y="392"/>
      <point x="138" y="489" type="curve" smooth="yes"/>
      <point x="138" y="594"/>
      <point x="179" y="651"/>
      <point x="242" y="651" type="curve" smooth="yes"/>
      <point x="325" y="651"/>
      <point x="356" y="550"/>
      <point x="356" y="481" type="curve" smooth="yes"/>
      <point x="356" y="384"/>
      <point x="296" y="336"/>
    </contour>
  </outline>
</glyph>
<glyph name="greater" format="2">
  <advance width="530"/>
  <unicode hex="003E"/>
  <outline>
    <contour>
      <point x="64" y="132" type="line"/>
      <point x="435" y="332" type="line"/>
      <point x="435" y="380" type="line"/>
      <point x="64" y="578" type="line"/>
      <point x="64" y="500" type="line"/>
      <point x="343" y="355" type="line"/>
      <point x="64" y="210" type="line"/>
    </contour>
  </outline>
</glyph>
<glyph name="A" format="2">
  <advance width="530"/>
  <unicode hex="0041"/>
  <anchor x="250" y="0" name="bottom"/>
  <anchor x="450" y="10" name="ogonek"/>
  <anchor x="250" y="714" name="top"/>
  <anchor x="480" y="714" name="topright"/>
  <outline>
    <contour>
      <point x="20" y="0" type="line"/>
      <point x="106" y="0" type="line"/>
      <point x="226" y="536" type="line" smooth="yes"/>
      <point x="234" y="571"/>
      <point x="243" y="616"/>
      <point x="248" y="647" type="curve"/>
      <point x="253" y="616"/>
      <point x="263" y="572"/>
      <point x="271" y="536" type="curve" smooth="yes"/>
      <point x="395" y="0" type="line"/>
      <point x="480" y="0" type="line"/>
      <point x="302" y="714" type="line"/>
      <point x="195" y="714" type="line"/>
    </contour>
    <contour>
      <point x="133" y="226" type="line"/>
      <point x="376" y="226" type="line"/>
      <point x="376" y="301" type="line"/>
      <point x="133" y="301" type="line"/>
    </contour>
  </outline>
</glyph>
<glyph name="E" format="2">
  <advance width="530"/>
  <unicode hex="0045"/>
  <anchor x="254" y="0" name="bottom"/>
  <anchor x="386" y="10" name="ogonek"/>
  <anchor x="249" y="714" name="top"/>
  <anchor x="20" y="714" name="topleft"/>
  <anchor x="480" y="714" name="topright"/>
  <outline>
    <contour>
      <point x="65" y="0" type="line"/>
      <point x="440" y="0" type="line"/>
      <point x="440" y="78" type="line"/>
      <point x="149" y="78" type="line"/>
      <point x="149" y="331" type="line"/>
      <point x="422" y="331" type="line"/>
      <point x="422" y="409" type="line"/>
      <point x="149" y="409" type="line"/>
      <point x="149" y="636" type="line"/>
      <point x="440" y="636" type="line"/>
      <point x="440" y="714" type="line"/>
      <point x="65" y="714" type="line"/>
    </contour>
  </outline>
</glyph>
<glyph name="F" format="2">
  <advance width="530"/>
  <unicode hex="0046"/>
  <anchor x="258" y="0" name="bottom"/>
  <anchor x="258" y="714" name="top"/>
  <anchor x="480" y="714" name="topright"/>
  <outline>
    <contour>
      <point x="65" y="0" type="line"/>
      <point x="149" y="0" type="line"/>
      <point x="149" y="305" type="line"/>
      <point x="428" y="305" type="line"/>
      <point x="428" y="383" type="line"/>
      <point x="149" y="383" type="line"/>
      <point x="149" y="636" type="line"/>
      <point x="440" y="636" type="line"/>
      <point x="440" y="714" type="line"/>
      <point x="65" y="714" type="line"/>
    </contour>
  </outline>
</glyph>
<glyph name="G" format="2">
  <advance width="530"/>
  <unicode hex="0047"/>
  <anchor x="279" y="0" name="bottom"/>
  <anchor x="272" y="714" name="top"/>
  <anchor x="480" y="714" name="topright"/>
  <outline>
    <contour>
      <point x="282" y="-10" type="curve" smooth="yes"/>
      <point x="343" y="-10"/>
      <point x="393" y="2"/>
      <point x="452" y="25" type="curve"/>
      <point x="452" y="377" type="line"/>
      <point x="269" y="377" type="line"/>
      <point x="269" y="299" type="line"/>
      <point x="370" y="299" type="line"/>
      <point x="370" y="80" type="line"/>
      <point x="342" y="70"/>
      <point x="316" y="65"/>
      <point x="281" y="65" type="curve" smooth="yes"/>
      <point x="163" y="65"/>
      <point x="110" y="194"/>
      <point x="110" y="357" type="curve" smooth="yes"/>
      <point x="110" y="545"/>
      <point x="173" y="651"/>
      <point x="289" y="651" type="curve" smooth="yes"/>
      <point x="340" y="651"/>
      <point x="376" y="641"/>
      <point x="422" y="613" type="curve"/>
      <point x="455" y="682" type="line"/>
      <point x="406" y="712"/>
      <point x="346" y="726"/>
      <point x="287" y="726" type="curve" smooth="yes"/>
      <point x="110" y="726"/>
      <point x="25" y="572"/>
      <point x="25" y="359" type="curve" smooth="yes"/>
      <point x="25" y="148"/>
      <point x="100" y="-10"/>
    </contour>
  </outline>
</glyph>
<glyph name="K" format="2">
  <advance width="530"/>
  <unicode hex="004B"/>
  <anchor x="259" y="0" name="bottom"/>
  <anchor x="250" y="714" name="top"/>
  <anchor x="480" y="714" name="topright"/>
  <outline>
    <contour>
      <point x="45" y="0" type="line"/>
      <point x="127" y="0" type="line"/>
      <point x="127" y="264" type="line"/>
      <point x="195" y="334" type="line"/>
      <point x="381" y="0" type="line"/>
      <point x="475" y="0" type="line"/>
      <point x="252" y="394" type="line"/>
      <point x="465" y="714" type="line"/>
      <point x="369" y="714" type="line"/>
      <point x="210" y="474" type="line" smooth="yes"/>
      <point x="176" y="423"/>
      <point x="151" y="386"/>
      <point x="127" y="354" type="curve"/>
      <point x="127" y="714" type="line"/>
      <point x="45" y="714" type="line"/>
    </contour>
  </outline>
</glyph>
<glyph name="P" format="2">
  <advance width="530"/>
  <unicode hex="0050"/>
  <anchor x="250" y="0" name="bottom"/>
  <anchor x="250" y="714" name="top"/>
  <anchor x="500" y="714" name="topright"/>
  <outline>
    <contour>
      <point x="65" y="0" type="line"/>
      <point x="147" y="0" type="line"/>
      <point x="147" y="278" type="line"/>
      <point x="239" y="278" type="line" smooth="yes"/>
      <point x="395" y="278"/>
      <point x="455" y="374"/>
      <point x="455" y="505" type="curve" smooth="yes"/>
      <point x="455" y="638"/>
      <point x="390" y="714"/>
      <point x="249" y="714" type="curve" smooth="yes"/>
      <point x="65" y="714" type="line"/>
    </contour>
    <contour>
      <point x="147" y="355" type="line"/>
      <point x="147" y="637" type="line"/>
      <point x="246" y="637" type="line" smooth="yes"/>
      <point x="331" y="637"/>
      <point x="369" y="593"/>
      <point x="369" y="500" type="curve" smooth="yes"/>
      <point x="369" y="394"/>
      <point x="325" y="355"/>
      <point x="231" y="355" type="curve" smooth="yes"/>
    </contour>
  </outline>
</glyph>
<glyph name="Q" format="2">
  <advance width="530"/>
  <unicode hex="0051"/>
  <anchor x="250" y="-220" name="bottom"/>
  <anchor x="250" y="714" name="top"/>
  <anchor x="500" y="714" name="topright"/>
  <anchor x="20" y="714" name="topleft"/>
  <anchor x="249" y="10" name="ogonek"/>
  <anchor x="250" y="357" name="center"/>
  <outline>
    <contour>
      <point x="379" y="-180" type="line"/>
      <point x="469" y="-180" type="line"/>
      <point x="347" y="92" type="line"/>
      <point x="290" y="27" type="line"/>
    </contour>
    <component base="O"/>
  </outline>
</glyph>
<glyph name="W" format="2">
  <advance width="530"/>
  <unicode hex="0057"/>
  <anchor x="250" y="0" name="bottom"/>
  <anchor x="250" y="714" name="top"/>
  <anchor x="480" y="714" name="topright"/>
  <outline>
    <contour>
      <point x="77" y="0" type="line"/>
      <point x="175" y="0" type="line"/>
      <point x="229" y="326" type="line" smooth="yes"/>
      <point x="239" y="387"/>
      <point x="244" y="416"/>
      <point x="249" y="444" type="curve"/>
      <point x="252" y="444" type="line"/>
      <point x="257" y="416"/>
      <point x="263" y="387"/>
      <point x="273" y="327" type="curve" smooth="yes"/>
      <point x="328" y="0" type="line"/>
      <point x="427" y="0" type="line"/>
      <point x="485" y="714" type="line"/>
      <point x="410" y="714" type="line"/>
      <point x="402" y="608"/>
      <point x="394" y="503"/>
      <point x="386" y="397" type="curve" smooth="yes"/>
      <point x="382" y="344"/>
      <point x="375" y="125"/>
      <point x="374" y="79" type="curve"/>
      <point x="370" y="79" type="line"/>
      <point x="365" y="125"/>
      <point x="350" y="232"/>
      <point x="337" y="301" type="curve" smooth="yes"/>
      <point x="292" y="536" type="line"/>
      <point x="207" y="536" type="line"/>
      <point x="165" y="303" type="line" smooth="yes"/>
      <point x="154" y="241"/>
      <point x="139" y="124"/>
      <point x="134" y="79" type="curve"/>
      <point x="131" y="79" type="line"/>
      <point x="130" y="125"/>
      <point x="117" y="335"/>
      <point x="112" y="396" type="curve" smooth="yes"/>
      <point x="103" y="502"/>
      <point x="93" y="608"/>
      <point x="84" y="714" type="curve"/>
      <point x="15" y="714" type="line"/>
    </contour>
  </outline>
</glyph>
<glyph name="X" format="2">
  <advance width="530"/>
  <unicode hex="0058"/>
  <anchor x="250" y="0" name="bottom"/>
  <anchor x="250" y="714" name="top"/>
  <anchor x="480" y="714" name="topright"/>
  <outline>
    <contour>
      <point x="20" y="0" type="line"/>
      <point x="109" y="0" type="line"/>
      <point x="245" y="301" type="line"/>
      <point x="388" y="0" type="line"/>
      <point x="480" y="0" type="line"/>
      <point x="295" y="370" type="line"/>
      <point x="467" y="714" type="line"/>
      <point x="377" y="714" type="line"/>
      <point x="250" y="444" type="line"/>
      <point x="124" y="714" type="line"/>
      <point x="33" y="714" type="line"/>
      <point x="199" y="373" type="line"/>
    </contour>
  </outline>
</glyph>
<glyph name="bracketleft" format="2">
  <advance width="530"/>
  <unicode hex="005B"/>
  <outline>
    <contour>
      <point x="181" y="-161" type="line"/>
      <point x="390" y="-161" type="line"/>
      <point x="390" y="-93" type="line"/>
      <point x="258" y="-93" type="line"/>
      <point x="258" y="652" type="line"/>
      <point x="390" y="652" type="line"/>
      <point x="390" y="720" type="line"/>
      <point x="181" y="720" type="line"/>
    </contour>
  </outline>
</glyph>
<glyph name="asciicircum" format="2">
  <advance width="530"/>
  <unicode hex="005E"/>
  <outline>
    <contour>
      <point x="43" y="332" type="line"/>
      <point x="121" y="332" type="line"/>
      <point x="249" y="609" type="line"/>
      <point x="377" y="332" type="line"/>
      <point x="456" y="332" type="line"/>
      <point x="273" y="713" type="line"/>
      <point x="225" y="713" type="line"/>
    </contour>
  </outline>
</glyph>
<glyph name="d" format="2">
  <advance width="530"/>
  <unicode hex="0064"/>
  <anchor x="250" y="0" name="bottom"/>
  <anchor x="250" y="268" name="center"/>
  <anchor x="250" y="760" name="top"/>
  <anchor x="480" y="760" name="topright"/>
  <outline>
    <contour>
      <point x="221" y="-10" type="curve" smooth="yes"/>
      <point x="289" y="-10"/>
      <point x="333" y="27"/>
      <point x="358" y="72" type="curve"/>
      <point x="362" y="72" type="line"/>
      <point x="377" y="0" type="line"/>
      <point x="440" y="0" type="line"/>
      <point x="440" y="760" type="line"/>
      <point x="358" y="760" type="line"/>
      <point x="358" y="547" type="line" smooth="yes"/>
      <point x="358" y="523"/>
      <point x="360" y="495"/>
      <point x="364" y="467" type="curve"/>
      <point x="359" y="467" type="line"/>
      <point x="332" y="511"/>
      <point x="289" y="547"/>
      <point x="222" y="547" type="curve" smooth="yes"/>
      <point x="111" y="547"/>
      <point x="40" y="450"/>
      <point x="40" y="267" type="curve" smooth="yes"/>
      <point x="40" y="85"/>
      <point x="111" y="-10"/>
    </contour>
    <contour>
      <point x="246" y="63" type="curve" smooth="yes"/>
      <point x="158" y="63"/>
      <point x="126" y="129"/>
      <point x="126" y="259" type="curve" smooth="yes"/>
      <point x="126" y="400"/>
      <point x="164" y="474"/>
      <point x="249" y="474" type="curve" smooth="yes"/>
      <point x="336" y="474"/>
      <point x="360" y="398"/>
      <point x="360" y="267" type="curve" smooth="yes"/>
      <point x="360" y="247" type="line" smooth="yes"/>
      <point x="360" y="134"/>
      <point x="332" y="63"/>
    </contour>
  </outline>
</glyph>
<glyph name="f" format="2">
  <advance width="530"/>
  <unicode hex="0066"/>
  <anchor x="250" y="0" name="bottom"/>
  <anchor x="323" y="764" name="top"/>
  <anchor x="480" y="765" name="topright"/>
  <outline>
    <contour>
      <point x="189" y="0" type="line"/>
      <point x="271" y="0" type="line"/>
      <point x="271" y="464" type="line"/>
      <point x="443" y="464" type="line"/>
      <point x="443" y="536" type="line"/>
      <point x="271" y="536" type="line"/>
      <point x="271" y="587" type="line" smooth="yes"/>
      <point x="271" y="672"/>
      <point x="301" y="694"/>
      <point x="358" y="694" type="curve" smooth="yes"/>
      <point x="383" y="694"/>
      <point x="412" y="690"/>
      <point x="440" y="680" type="curve"/>
      <point x="460" y="748" type="line"/>
      <point x="429" y="758"/>
      <point x="390" y="765"/>
      <point x="347" y="765" type="curve" smooth="yes"/>
      <point x="244" y="765"/>
      <point x="189" y="724"/>
      <point x="189" y="586" type="curve" smooth="yes"/>
      <point x="189" y="539" type="line"/>
      <point x="50" y="523" type="line"/>
      <point x="50" y="464" type="line"/>
      <point x="189" y="464" type="line"/>
    </contour>
  </outline>
</glyph>
<glyph name="i" format="2">
  <advance width="530"/>
  <unicode hex="0069"/>
  <anchor x="261" y="0" name="bottom"/>
  <anchor x="252" y="765" name="top"/>
  <anchor x="409" y="765" name="topright"/>
  <outline>
    <contour>
      <point x="75" y="0" type="line"/>
      <point x="425" y="0" type="line"/>
      <point x="425" y="59" type="line"/>
      <point x="298" y="69" type="line"/>
      <point x="298" y="536" type="line"/>
      <point x="80" y="536" type="line"/>
      <point x="80" y="477" type="line"/>
      <point x="216" y="463" type="line"/>
      <point x="216" y="69" type="line"/>
      <point x="75" y="59" type="line"/>
    </contour>
    <contour>
      <point x="252" y="633" type="curve" smooth="yes"/>
      <point x="286" y="633"/>
      <point x="309" y="654"/>
      <point x="309" y="698" type="curve" smooth="yes"/>
      <point x="309" y="744"/>
      <point x="286" y="765"/>
      <point x="252" y="765" type="curve" smooth="yes"/>
      <point x="218" y="765"/>
      <point x="196" y="744"/>
      <point x="196" y="698" type="curve" smooth="yes"/>
      <point x="196" y="655"/>
      <point x="217" y="633"/>
    </contour>
  </outline>
</glyph>
<glyph name="k" format="2">
  <advance width="530"/>
  <unicode hex="006B"/>
  <anchor x="273" y="0" name="bottom"/>
  <anchor x="280" y="760" name="top"/>
  <anchor x="480" y="760" name="topright"/>
  <outline>
    <contour>
      <point x="65" y="0" type="line"/>
      <point x="147" y="0" type="line"/>
      <point x="147" y="201" type="line"/>
      <point x="202" y="242" type="line"/>
      <point x="378" y="0" type="line"/>
      <point x="477" y="0" type="line"/>
      <point x="258" y="304" type="line"/>
      <point x="465" y="536" type="line"/>
      <point x="362" y="536" type="line"/>
      <point x="194" y="343" type="line" smooth="yes"/>
      <point x="173" y="319"/>
      <point x="159" y="300"/>
      <point x="142" y="275" type="curve"/>
      <point x="141" y="275" type="line"/>
      <point x="145" y="325"/>
      <point x="147" y="363"/>
      <point x="147" y="410" type="curve" smooth="yes"/>
      <point x="147" y="760" type="line"/>
      <point x="65" y="760" type="line"/>
    </contour>
  </outline>
</glyph>
<glyph name="n" format="2">
  <advance width="530"/>
  <unicode hex="006E"/>
  <anchor x="254" y="0" name="bottom"/>
  <anchor x="261" y="536" name="top"/>
  <anchor x="480" y="536" name="topright"/>
  <outline>
    <contour>
      <point x="60" y="0" type="line"/>
      <point x="142" y="0" type="line"/>
      <point x="142" y="279" type="line" smooth="yes"/>
      <point x="142" y="404"/>
      <point x="187" y="474"/>
      <point x="269" y="474" type="curve" smooth="yes"/>
      <point x="334" y="474"/>
      <point x="363" y="430"/>
      <point x="363" y="346" type="curve" smooth="yes"/>
      <point x="363" y="0" type="line"/>
      <point x="445" y="0" type="line"/>
      <point x="445" y="350" type="line" smooth="yes"/>
      <point x="445" y="487"/>
      <point x="387" y="547"/>
      <point x="286" y="547" type="curve" smooth="yes"/>
      <point x="225" y="547"/>
      <point x="171" y="520"/>
      <point x="144" y="464" type="curve"/>
      <point x="139" y="464" type="line"/>
      <point x="127" y="536" type="line"/>
      <point x="60" y="536" type="line"/>
    </contour>
  </outline>
</glyph>
<glyph name="o" format="2">
  <advance width="530"/>
  <unicode hex="006F"/>
  <anchor x="250" y="0" name="bottom"/>
  <anchor x="250" y="268" name="center"/>
  <anchor x="250" y="10" name="ogonek"/>
  <anchor x="250" y="536" name="top"/>
  <anchor x="480" y="536" name="topright"/>
  <outline>
    <contour>
      <point x="251" y="-10" type="curve" smooth="yes"/>
      <point x="381" y="-10"/>
      <point x="460" y="91"/>
      <point x="460" y="267" type="curve" smooth="yes"/>
      <point x="460" y="446"/>
      <point x="378" y="547"/>
      <point x="248" y="547" type="curve" smooth="yes"/>
      <point x="118" y="547"/>
      <point x="40" y="446"/>
      <point x="40" y="270" type="curve" smooth="yes"/>
      <point x="40" y="91"/>
      <point x="121" y="-10"/>
    </contour>
    <contour>
      <point x="250" y="61" type="curve" smooth="yes"/>
      <point x="170" y="61"/>
      <point x="126" y="132"/>
      <point x="126" y="269" type="curve" smooth="yes"/>
      <point x="126" y="406"/>
      <point x="170" y="476"/>
      <point x="249" y="476" type="curve" smooth="yes"/>
      <point x="329" y="476"/>
      <point x="374" y="406"/>
      <point x="374" y="268" type="curve" smooth="yes"/>
      <point x="374" y="132"/>
      <point x="330" y="61"/>
    </contour>
  </outline>
</glyph>
<glyph name="u" format="2">
  <advance width="530"/>
  <unicode hex="0075"/>
  <anchor x="250" y="0" name="bottom"/>
  <anchor x="450" y="10" name="ogonek"/>
  <anchor x="250" y="536" name="top"/>
  <anchor x="480" y="536" name="topright"/>
  <outline>
    <contour>
      <point x="213" y="-10" type="curve" smooth="yes"/>
      <point x="276" y="-10"/>
      <point x="327" y="16"/>
      <point x="353" y="72" type="curve"/>
      <point x="358" y="72" type="line"/>
      <point x="371" y="0" type="line"/>
      <point x="440" y="0" type="line"/>
      <point x="440" y="536" type="line"/>
      <point x="358" y="536" type="line"/>
      <point x="358" y="257" type="line" smooth="yes"/>
      <point x="358" y="132"/>
      <point x="319" y="62"/>
      <point x="240" y="62" type="curve" smooth="yes"/>
      <point x="171" y="62"/>
      <point x="137" y="94"/>
      <point x="137" y="190" type="curve" smooth="yes"/>
      <point x="137" y="536" type="line"/>
      <point x="55" y="536" type="line"/>
      <point x="55" y="174" type="line" smooth="yes"/>
      <point x="55" y="49"/>
      <point x="112" y="-10"/>
    </contour>
  </outline>
</glyph>
<glyph name="y" format="2">
  <advance width="530"/>
  <unicode hex="0079"/>
  <anchor x="250" y="-245" name="bottom"/>
  <anchor x="250" y="536" name="top"/>
  <anchor x="480" y="536" name="topright"/>
  <outline>
    <contour>
      <point x="108" y="-245" type="curve" smooth="yes"/>
      <point x="194" y="-245"/>
      <point x="244" y="-174"/>
      <point x="277" y="-70" type="curve" smooth="yes"/>
      <point x="470" y="536" type="line"/>
      <point x="383" y="536" type="line"/>
      <point x="295" y="226" type="line" smooth="yes"/>
      <point x="283" y="183"/>
      <point x="267" y="120"/>
      <point x="260" y="78" type="curve"/>
      <point x="257" y="78" type="line"/>
      <point x="248" y="123"/>
      <point x="235" y="173"/>
      <point x="218" y="225" type="curve" smooth="yes"/>
      <point x="115" y="536" type="line"/>
      <point x="30" y="536" type="line"/>
      <point x="218" y="-6" type="line"/>
      <point x="193" y="-79" type="line" smooth="yes"/>
      <point x="169" y="-148"/>
      <point x="148" y="-174"/>
      <point x="100" y="-174" type="curve" smooth="yes"/>
      <point x="82" y="-174"/>
      <point x="61" y="-170"/>
      <point x="46" y="-167" type="curve"/>
      <point x="46" y="-237" type="line"/>
      <point x="66" y="-241"/>
      <point x="87" y="-245"/>
    </contour>
  </outline>
</glyph>
<glyph name="z" format="2">
  <advance width="530"/>
  <unicode hex="007A"/>
  <anchor x="256" y="0" name="bottom"/>
  <anchor x="256" y="536" name="top"/>
  <anchor x="480" y="536" name="topright"/>
  <outline>
    <contour>
      <point x="65" y="0" type="line"/>
      <point x="435" y="0" type="line"/>
      <point x="435" y="72" type="line"/>
      <point x="159" y="72" type="line"/>
      <point x="429" y="466" type="line"/>
      <point x="429" y="536" type="line"/>
      <point x="79" y="536" type="line"/>
      <point x="79" y="464" type="line"/>
      <point x="339" y="464" type="line"/>
      <point x="65" y="60" type="line"/>
    </contour>
  </outline>
</glyph>
<glyph name="sterling" format="2">
  <advance width="530"/>
  <unicode hex="00A3"/>
  <outline>
    <contour>
      <point x="74" y="0" type="line"/>
      <point x="450" y="0" type="line"/>
      <point x="450" y="76" type="line"/>
      <point x="165" y="76" type="line"/>
      <point x="206" y="103"/>
      <point x="226" y="148"/>
      <point x="226" y="212" type="curve" smooth="yes"/>
      <point x="226" y="326" type="line"/>
      <point x="369" y="326" type="line"/>
      <point x="369" y="391" type="line"/>
      <point x="226" y="391" type="line"/>
      <point x="226" y="536" type="line" smooth="yes"/>
      <point x="226" y="615"/>
      <point x="255" y="649"/>
      <point x="325" y="649" type="curve" smooth="yes"/>
      <point x="355" y="649"/>
      <point x="382" y="639"/>
      <point x="416" y="616" type="curve"/>
      <point x="447" y="682" type="line"/>
      <point x="409" y="710"/>
      <point x="369" y="724"/>
      <point x="320" y="724" type="curve" smooth="yes"/>
      <point x="202" y="724"/>
      <point x="143" y="661"/>
      <point x="143" y="544" type="curve" smooth="yes"/>
      <point x="143" y="391" type="line"/>
      <point x="70" y="391" type="line"/>
      <point x="70" y="326" type="line"/>
      <point x="143" y="326" type="line"/>
      <point x="143" y="211" type="line" smooth="yes"/>
      <point x="143" y="137"/>
      <point x="119" y="92"/>
      <point x="74" y="70" type="curve"/>
    </contour>
  </outline>
</glyph>
<glyph name="section" format="2">
  <advance width="530"/>
  <unicode hex="00A7"/>
  <outline>
    <contour>
      <point x="214" y="-9" type="curve" smooth="yes"/>
      <point x="324" y="-9"/>
      <point x="394" y="44"/>
      <point x="394" y="133" type="curve" smooth="yes"/>
      <point x="394" y="177"/>
      <point x="377" y="208"/>
      <point x="337" y="247" type="curve"/>
      <point x="382" y="268"/>
      <point x="416" y="320"/>
      <point x="416" y="380" type="curve" smooth="yes"/>
      <point x="416" y="470"/>
      <point x="340" y="500"/>
      <point x="278" y="536" type="curve" smooth="yes"/>
      <point x="237" y="560"/>
      <point x="195" y="589"/>
      <point x="195" y="638" type="curve" smooth="yes"/>
      <point x="195" y="681"/>
      <point x="227" y="706"/>
      <point x="280" y="706" type="curve" smooth="yes"/>
      <point x="310" y="706"/>
      <point x="336" y="698"/>
      <point x="371" y="677" type="curve"/>
      <point x="397" y="735" type="line"/>
      <point x="357" y="757"/>
      <point x="324" y="766"/>
      <point x="282" y="766" type="curve" smooth="yes"/>
      <point x="187" y="766"/>
      <point x="122" y="720"/>
      <point x="122" y="634" type="curve" smooth="yes"/>
      <point x="122" y="581"/>
      <point x="146" y="545"/>
      <point x="184" y="514" type="curve"/>
      <point x="131" y="494"/>
      <point x="92" y="452"/>
      <point x="92" y="389" type="curve" smooth="yes"/>
      <point x="92" y="327"/>
      <point x="129" y="293"/>
      <point x="220" y="240" type="curve" smooth="yes"/>
      <point x="274" y="209"/>
      <point x="320" y="183"/>
      <point x="320" y="131" type="curve" smooth="yes"/>
      <point x="320" y="76"/>
      <point x="270" y="52"/>
      <point x="215" y="52" type="curve" smooth="yes"/>
      <point x="169" y="52"/>
      <point x="114" y="69"/>
      <point x="83" y="94" type="curve"/>
      <point x="83" y="23" type="line"/>
      <point x="116" y="2"/>
      <point x="164" y="-9"/>
    </contour>
    <contour>
      <point x="290" y="279" type="curve"/>
      <point x="254" y="302" type="line" smooth="yes"/>
      <point x="217" y="325"/>
      <point x="162" y="345"/>
      <point x="162" y="401" type="curve" smooth="yes"/>
      <point x="162" y="438"/>
      <point x="185" y="472"/>
      <point x="232" y="484" type="curve"/>
      <point x="320" y="439"/>
      <point x="347" y="415"/>
      <point x="347" y="368" type="curve" smooth="yes"/>
      <point x="347" y="330"/>
      <point x="329" y="295"/>
    </contour>
  </outline>
</glyph>
<glyph name="dieresis" format="2">
  <advance width="530"/>
  <unicode hex="00A8"/>
  <anchor x="250" y="536" name="_top"/>
  <anchor x="250" y="646" name="top"/>
  <outline>
    <contour>
      <point x="344" y="625" type="curve" smooth="yes"/>
      <point x="373" y="625"/>
      <point x="395" y="645"/>
      <point x="395" y="687" type="curve" smooth="yes"/>
      <point x="395" y="727"/>
      <point x="373" y="746"/>
      <point x="344" y="746" type="curve" smooth="yes"/>
      <point x="315" y="746"/>
      <point x="293" y="728"/>
      <point x="293" y="687" type="curve" smooth="yes"/>
      <point x="293" y="645"/>
      <point x="315" y="625"/>
    </contour>
    <contour>
      <point x="155" y="625" type="curve" smooth="yes"/>
      <point x="183" y="625"/>
      <point x="205" y="645"/>
      <point x="205" y="687" type="curve" smooth="yes"/>
      <point x="205" y="727"/>
      <point x="183" y="746"/>
      <point x="155" y="746" type="curve" smooth="yes"/>
      <point x="126" y="746"/>
      <point x="104" y="728"/>
      <point x="104" y="687" type="curve" smooth="yes"/>
      <point x="104" y="645"/>
      <point x="126" y="625"/>
    </contour>
  </outline>
</glyph>
<glyph name="logicalnot" format="2">
  <advance width="530"/>
  <unicode hex="00AC"/>
  <outline>
    <contour>
      <point x="362" y="120" type="line"/>
      <point x="431" y="120" type="line"/>
      <point x="431" y="387" type="line"/>
      <point x="70" y="387" type="line"/>
      <point x="70" y="319" type="line"/>
      <point x="362" y="319" type="line"/>
    </contour>
  </outline>
</glyph>
<glyph name="overscore" format="2">
  <advance width="530"/>
  <unicode hex="00AF"/>
  <outline>
    <contour>
      <point x="128" y="634" type="line"/>
      <point x="371" y="634" type="line"/>
      <point x="371" y="696" type="line"/>
      <point x="128" y="696" type="line"/>
    </contour>
  </outline>
</glyph>
<glyph name="degree" format="2">
  <advance width="530"/>
  <unicode hex="00B0"/>
  <outline>
    <contour>
      <point x="249" y="455" type="curve" smooth="yes"/>
      <point x="323" y="455"/>
      <point x="384" y="505"/>
      <point x="384" y="588" type="curve" smooth="yes"/>
      <point x="384" y="671"/>
      <point x="324" y="723"/>
      <point x="249" y="723" type="curve" smooth="yes"/>
      <point x="175" y="723"/>
      <point x="115" y="672"/>
      <point x="115" y="589" type="curve" smooth="yes"/>
      <point x="115" y="506"/>
      <point x="173" y="455"/>
    </contour>
    <contour>
      <point x="250" y="507" type="curve" smooth="yes"/>
      <point x="207" y="507"/>
      <point x="170" y="536"/>
      <point x="170" y="588" type="curve" smooth="yes"/>
      <point x="170" y="637"/>
      <point x="202" y="671"/>
      <point x="250" y="671" type="curve" smooth="yes"/>
      <point x="295" y="671"/>
      <point x="329" y="640"/>
      <point x="329" y="589" type="curve" smooth="yes"/>
      <point x="329" y="537"/>
      <point x="294" y="507"/>
    </contour>
  </outline>
</glyph>
<glyph name="twosuperior" format="2">
  <advance width="530"/>
  <unicode hex="00B2"/>
  <outline>
    <contour>
      <point x="126" y="415" type="line"/>
      <point x="391" y="415" type="line"/>
      <point x="391" y="472" type="line"/>
      <point x="202" y="472" type="line"/>
      <point x="255" y="533" type="line" smooth="yes"/>
      <point x="340" y="631"/>
      <point x="383" y="667"/>
      <point x="383" y="739" type="curve" smooth="yes"/>
      <point x="383" y="808"/>
      <point x="335" y="853"/>
      <point x="252" y="853" type="curve" smooth="yes"/>
      <point x="200" y="853"/>
      <point x="154" y="832"/>
      <point x="125" y="797" type="curve"/>
      <point x="159" y="753" type="line"/>
      <point x="184" y="781"/>
      <point x="215" y="794"/>
      <point x="246" y="794" type="curve" smooth="yes"/>
      <point x="290" y="794"/>
      <point x="315" y="770"/>
      <point x="315" y="735" type="curve" smooth="yes"/>
      <point x="315" y="682"/>
      <point x="279" y="652"/>
      <point x="217" y="579" type="curve" smooth="yes"/>
      <point x="126" y="471" type="line"/>
    </contour>
  </outline>
</glyph>
<glyph name="acute" format="2">
  <advance width="530"/>
  <unicode hex="00B4"/>
  <outline>
    <contour>
      <point x="217" y="606" type="line"/>
      <point x="269" y="606" type="line"/>
      <point x="310" y="642"/>
      <point x="378" y="715"/>
      <point x="403" y="757" type="curve"/>
      <point x="403" y="766" type="line"/>
      <point x="306" y="766" type="line"/>
      <point x="285" y="721"/>
      <point x="255" y="671"/>
      <point x="217" y="617" type="curve"/>
    </contour>
  </outline>
</glyph>
<glyph name="micro" format="2">
  <advance width="530"/>
  <unicode hex="00B5"/>
  <anchor x="250" y="536" name="top"/>
  <anchor x="450" y="10" name="ogonek"/>
  <anchor x="480" y="536" name="topright"/>
  <anchor x="250" y="0" name="bottom"/>
  <outline>
    <contour>
      <point x="55" y="-240" type="line"/>
      <point x="137" y="-240" type="line"/>
      <point x="137" y="227" type="line"/>
      <point x="55" y="227" type="line"/>
    </contour>
    <component base="u"/>
  </outline>
</glyph>
<glyph name="cedilla" format="2">
  <advance width="530"/>
  <unicode hex="00B8"/>
  <outline>
    <contour>
      <point x="215" y="-240" type="curve" smooth="yes"/>
      <point x="293" y="-240"/>
      <point x="337" y="-204"/>
      <point x="337" y="-141" type="curve" smooth="yes"/>
      <point x="337" y="-91"/>
      <point x="310" y="-62"/>
      <point x="254" y="-50" type="curve"/>
      <point x="276" y="0" type="line"/>
      <point x="227" y="0" type="line"/>
      <point x="193" y="-79" type="line"/>
      <point x="241" y="-86"/>
      <point x="269" y="-102"/>
      <point x="269" y="-137" type="curve" smooth="yes"/>
      <point x="269" y="-166"/>
      <point x="249" y="-186"/>
      <point x="205" y="-186" type="curve" smooth="yes"/>
      <point x="191" y="-186"/>
      <point x="176" y="-184"/>
      <point x="163" y="-180" type="curve"/>
      <point x="163" y="-234" type="line"/>
      <point x="176" y="-238"/>
      <point x="197" y="-240"/>
    </contour>
  </outline>
</glyph>
<glyph name="ordmasculine" format="2">
  <advance width="530"/>
  <unicode hex="00BA"/>
  <outline>
    <contour>
      <point x="258" y="382" type="curve" smooth="yes"/>
      <point x="344" y="382"/>
      <point x="390" y="444"/>
      <point x="390" y="553" type="curve" smooth="yes"/>
      <point x="390" y="665"/>
      <point x="341" y="722"/>
      <point x="258" y="722" type="curve" smooth="yes"/>
      <point x="173" y="722"/>
      <point x="123" y="660"/>
      <point x="123" y="553" type="curve" smooth="yes"/>
      <point x="123" y="445"/>
      <point x="170" y="382"/>
    </contour>
    <contour>
      <point x="257" y="436" type="curve" smooth="yes"/>
      <point x="211" y="436"/>
      <point x="188" y="473"/>
      <point x="188" y="553" type="curve" smooth="yes"/>
      <point x="188" y="635"/>
      <point x="212" y="669"/>
      <point x="257" y="669" type="curve" smooth="yes"/>
      <point x="305" y="669"/>
      <point x="327" y="635"/>
      <point x="327" y="553" type="curve" smooth="yes"/>
      <point x="327" y="473"/>
      <point x="307" y="436"/>
    </contour>
  </outline>
</glyph>
<glyph name="Eth" format="2">
  <advance width="530"/>
  <unicode hex="00D0"/>
  <anchor x="250" y="0" name="bottom"/>
  <anchor x="250" y="714" name="top"/>
  <anchor x="510" y="714" name="topright"/>
  <anchor x="270" y="357" name="center"/>
  <outline>
    <contour>
      <point x="0" y="331" type="line"/>
      <point x="287" y="331" type="line"/>
      <point x="287" y="404" type="line"/>
      <point x="0" y="404" type="line"/>
    </contour>
    <component base="D" xOffset="10"/>
  </outline>
</glyph>
<glyph name="Thorn" format="2">
  <advance width="530"/>
  <unicode hex="00DE"/>
  <anchor x="250" y="0" name="bottom"/>
  <anchor x="250" y="714" name="top"/>
  <outline>
    <contour>
      <point x="65" y="0" type="line"/>
      <point x="147" y="0" type="line"/>
      <point x="147" y="158" type="line"/>
      <point x="239" y="158" type="line" smooth="yes"/>
      <point x="395" y="158"/>
      <point x="455" y="254"/>
      <point x="455" y="385" type="curve" smooth="yes"/>
      <point x="455" y="518"/>
      <point x="390" y="594"/>
      <point x="249" y="594" type="curve" smooth="yes"/>
      <point x="147" y="594" type="line"/>
      <point x="147" y="714" type="line"/>
      <point x="65" y="714" type="line"/>
    </contour>
    <contour>
      <point x="147" y="235" type="line"/>
      <point x="147" y="517" type="line"/>
      <point x="246" y="517" type="line" smooth="yes"/>
      <point x="331" y="517"/>
      <point x="369" y="473"/>
      <point x="369" y="380" type="curve" smooth="yes"/>
      <point x="369" y="274"/>
      <point x="325" y="235"/>
      <point x="231" y="235" type="curve" smooth="yes"/>
    </contour>
  </outline>
</glyph>
<glyph name="oslash" format="2">
  <advance width="530"/>
  <unicode hex="00F8"/>
  <anchor x="250" y="0" name="bottom"/>
  <anchor x="250" y="536" name="top"/>
  <anchor x="250" y="10" name="ogonek"/>
  <anchor x="480" y="536" name="topright"/>
  <anchor x="250" y="268" name="center"/>
  <outline>
    <contour>
      <point x="111" y="-50" type="line"/>
      <point x="467" y="545" type="line"/>
      <point x="413" y="576" type="line"/>
      <point x="58" y="-18" type="line"/>
    </contour>
    <component base="o"/>
  </outline>
</glyph>
<glyph name="dcaron" format="2">
  <advance width="530"/>
  <unicode hex="010F"/>
  <anchor x="210" y="0" name="bottom"/>
  <anchor x="210" y="268" name="center"/>
  <anchor x="247" y="760" name="top"/>
  <anchor x="440" y="760" name="topright"/>
  <outline>
    <contour>
      <point x="196" y="-10" type="curve" smooth="yes"/>
      <point x="260" y="-10"/>
      <point x="302" y="27"/>
      <point x="328" y="72" type="curve"/>
      <point x="332" y="72" type="line"/>
      <point x="347" y="0" type="line"/>
      <point x="410" y="0" type="line"/>
      <point x="410" y="760" type="line"/>
      <point x="328" y="760" type="line"/>
      <point x="328" y="547" type="line" smooth="yes"/>
      <point x="328" y="520"/>
      <point x="330" y="494"/>
      <point x="334" y="467" type="curve"/>
      <point x="329" y="467" type="line"/>
      <point x="303" y="511"/>
      <point x="264" y="547"/>
      <point x="201" y="547" type="curve" smooth="yes"/>
      <point x="98" y="547"/>
      <point x="30" y="450"/>
      <point x="30" y="265" type="curve" smooth="yes"/>
      <point x="30" y="86"/>
      <point x="94" y="-10"/>
    </contour>
    <contour>
      <point x="222" y="63" type="curve" smooth="yes"/>
      <point x="145" y="63"/>
      <point x="116" y="128"/>
      <point x="116" y="262" type="curve" smooth="yes"/>
      <point x="116" y="402"/>
      <point x="148" y="474"/>
      <point x="225" y="474" type="curve" smooth="yes"/>
      <point x="305" y="474"/>
      <point x="330" y="395"/>
      <point x="330" y="267" type="curve" smooth="yes"/>
      <point x="330" y="247" type="line" smooth="yes"/>
      <point x="330" y="136"/>
      <point x="303" y="63"/>
    </contour>
    <component base="caroncommaaccent" xOffset="248"/>
  </outline>
</glyph>
<glyph name="hbar" format="2">
  <advance width="530"/>
  <unicode hex="0127"/>
  <anchor x="250" y="0" name="bottom"/>
  <anchor x="250" y="268" name="center"/>
  <anchor x="100" y="760" name="top"/>
  <outline>
    <contour>
      <point x="0" y="605" type="line"/>
      <point x="315" y="605" type="line"/>
      <point x="315" y="670" type="line"/>
      <point x="0" y="670" type="line"/>
    </contour>
    <contour>
      <point x="60" y="0" type="line"/>
      <point x="142" y="0" type="line"/>
      <point x="142" y="279" type="line" smooth="yes"/>
      <point x="142" y="403"/>
      <point x="180" y="474"/>
      <point x="262" y="474" type="curve" smooth="yes"/>
      <point x="330" y="474"/>
      <point x="363" y="426"/>
      <point x="363" y="333" type="curve" smooth="yes"/>
      <point x="363" y="0" type="line"/>
      <point x="445" y="0" type="line"/>
      <point x="445" y="350" type="line" smooth="yes"/>
      <point x="445" y="487"/>
      <point x="375" y="547"/>
      <point x="281" y="547" type="curve" smooth="yes"/>
      <point x="211" y="547"/>
      <point x="170" y="513"/>
      <point x="143" y="463" type="curve"/>
      <point x="138" y="463" type="line"/>
      <point x="139" y="486"/>
      <point x="142" y="509"/>
      <point x="142" y="532" type="curve" smooth="yes"/>
      <point x="142" y="760" type="line"/>
      <point x="60" y="760" type="line"/>
    </contour>
  </outline>
</glyph>
<glyph name="kgreenlandic" format="2">
  <advance width="530"/>
  <unicode hex="0138"/>
  <anchor x="250" y="0" name="bottom"/>
  <anchor x="250" y="536" name="top"/>
  <outline>
    <contour>
      <point x="65" y="0" type="line"/>
      <point x="147" y="0" type="line"/>
      <point x="147" y="201" type="line"/>
      <point x="202" y="242" type="line"/>
      <point x="378" y="0" type="line"/>
      <point x="477" y="0" type="line"/>
      <point x="258" y="304" type="line"/>
      <point x="465" y="536" type="line"/>
      <point x="362" y="536" type="line"/>
      <point x="194" y="343" type="line" smooth="yes"/>
      <point x="173" y="319"/>
      <point x="159" y="300"/>
      <point x="142" y="275" type="curve"/>
      <point x="141" y="275" type="line"/>
      <point x="145" y="325"/>
      <point x="147" y="363"/>
      <point x="147" y="410" type="curve" smooth="yes"/>
      <point x="147" y="536" type="line"/>
      <point x="65" y="536" type="line"/>
    </contour>
  </outline>
</glyph>
<glyph name="lslash" format="2">
  <advance width="530"/>
  <unicode hex="0142"/>
  <anchor x="250" y="0" name="bottom"/>
  <anchor x="250" y="760" name="top"/>
  <anchor x="411" y="760" name="topright"/>
  <anchor x="252" y="370" name="center"/>
  <outline>
    <contour>
      <point x="105" y="288" type="line"/>
      <point x="412" y="456" type="line"/>
      <point x="412" y="518" type="line"/>
      <point x="105" y="350" type="line"/>
    </contour>
    <component base="l"/>
  </outline>
</glyph>
<glyph name="napostrophe" format="2">
  <advance width="530"/>
  <unicode hex="0149"/>
  <anchor x="264" y="0" name="bottom"/>
  <anchor x="269" y="536" name="top"/>
  <outline>
    <contour>
      <point x="70" y="0" type="line"/>
      <point x="152" y="0" type="line"/>
      <point x="152" y="279" type="line" smooth="yes"/>
      <point x="152" y="404"/>
      <point x="186" y="474"/>
      <point x="265" y="474" type="curve" smooth="yes"/>
      <point x="327" y="474"/>
      <point x="363" y="430"/>
      <point x="363" y="346" type="curve" smooth="yes"/>
      <point x="363" y="0" type="line"/>
      <point x="445" y="0" type="line"/>
      <point x="445" y="350" type="line" smooth="yes"/>
      <point x="445" y="487"/>
      <point x="388" y="547"/>
      <point x="294" y="547" type="curve" smooth="yes"/>
      <point x="231" y="547"/>
      <point x="180" y="520"/>
      <point x="154" y="464" type="curve"/>
      <point x="149" y="464" type="line"/>
      <point x="137" y="536" type="line"/>
      <point x="70" y="536" type="line"/>
    </contour>
    <component base="quoteright" xOffset="-250"/>
  </outline>
</glyph>
<glyph name="OE" format="2">
  <advance width="530"/>
  <unicode hex="0152"/>
  <anchor x="250" y="0" name="bottom"/>
  <anchor x="250" y="714" name="top"/>
  <outline>
    <contour>
      <point x="210" y="-10" type="curve" smooth="yes"/>
      <point x="230" y="-10"/>
      <point x="249" y="-6"/>
      <point x="267" y="0" type="curve"/>
      <point x="475" y="0" type="line"/>
      <point x="475" y="80" type="line"/>
      <point x="340" y="80" type="line"/>
      <point x="340" y="332" type="line"/>
      <point x="460" y="332" type="line"/>
      <point x="460" y="412" type="line"/>
      <point x="340" y="412" type="line"/>
      <point x="340" y="634" type="line"/>
      <point x="475" y="634" type="line"/>
      <point x="475" y="714" type="line"/>
      <point x="275" y="714" type="line"/>
      <point x="254" y="720"/>
      <point x="233" y="724"/>
      <point x="216" y="724" type="curve" smooth="yes"/>
      <point x="80" y="724"/>
      <point x="25" y="579"/>
      <point x="25" y="359" type="curve" smooth="yes"/>
      <point x="25" y="137"/>
      <point x="76" y="-10"/>
    </contour>
    <contour>
      <point x="213" y="66" type="curve" smooth="yes"/>
      <point x="134" y="66"/>
      <point x="107" y="179"/>
      <point x="107" y="358" type="curve" smooth="yes"/>
      <point x="107" y="537"/>
      <point x="136" y="651"/>
      <point x="215" y="651" type="curve" smooth="yes"/>
      <point x="234" y="651"/>
      <point x="248" y="648"/>
      <point x="256" y="636" type="curve"/>
      <point x="256" y="79" type="line"/>
      <point x="245" y="69"/>
      <point x="229" y="66"/>
    </contour>
  </outline>
</glyph>
<glyph name="oe" format="2">
  <advance width="530"/>
  <unicode hex="0153"/>
  <anchor x="250" y="0" name="bottom"/>
  <anchor x="250" y="536" name="top"/>
  <outline>
    <contour>
      <point x="155" y="-10" type="curve" smooth="yes"/>
      <point x="205" y="-10"/>
      <point x="235" y="17"/>
      <point x="258" y="86" type="curve"/>
      <point x="278" y="20"/>
      <point x="323" y="-10"/>
      <point x="377" y="-10" type="curve" smooth="yes"/>
      <point x="411" y="-10"/>
      <point x="443" y="2"/>
      <point x="470" y="26" type="curve"/>
      <point x="470" y="101" type="line"/>
      <point x="443" y="79"/>
      <point x="415" y="63"/>
      <point x="387" y="63" type="curve" smooth="yes"/>
      <point x="332" y="63"/>
      <point x="294" y="122"/>
      <point x="293" y="251" type="curve"/>
      <point x="485" y="251" type="line"/>
      <point x="485" y="306" type="line" smooth="yes"/>
      <point x="485" y="458"/>
      <point x="439" y="546"/>
      <point x="362" y="546" type="curve" smooth="yes"/>
      <point x="317" y="546"/>
      <point x="282" y="516"/>
      <point x="258" y="451" type="curve"/>
      <point x="235" y="521"/>
      <point x="202" y="546"/>
      <point x="155" y="546" type="curve" smooth="yes"/>
      <point x="71" y="546"/>
      <point x="20" y="474"/>
      <point x="20" y="266" type="curve" smooth="yes"/>
      <point x="20" y="77"/>
      <point x="62" y="-10"/>
    </contour>
    <contour>
      <point x="155" y="63" type="curve" smooth="yes"/>
      <point x="109" y="63"/>
      <point x="93" y="137"/>
      <point x="93" y="267" type="curve" smooth="yes"/>
      <point x="93" y="411"/>
      <point x="112" y="473"/>
      <point x="154" y="473" type="curve" smooth="yes"/>
      <point x="194" y="473"/>
      <point x="217" y="409"/>
      <point x="217" y="267" type="curve" smooth="yes"/>
      <point x="217" y="134"/>
      <point x="197" y="63"/>
    </contour>
    <contour>
      <point x="294" y="323" type="line"/>
      <point x="294" y="399"/>
      <point x="318" y="473"/>
      <point x="356" y="473" type="curve" smooth="yes"/>
      <point x="388" y="473"/>
      <point x="411" y="424"/>
      <point x="412" y="323" type="curve"/>
    </contour>
  </outline>
</glyph>
<glyph name="tbar" format="2">
  <advance width="530"/>
  <unicode hex="0167"/>
  <anchor x="290" y="0" name="bottom"/>
  <anchor x="237" y="679" name="top"/>
  <anchor x="480" y="679" name="topright"/>
  <anchor x="229" y="290" name="center"/>
  <outline>
    <contour>
      <point x="50" y="277" type="line"/>
      <point x="445" y="277" type="line"/>
      <point x="445" y="341" type="line"/>
      <point x="50" y="341" type="line"/>
    </contour>
    <component base="t"/>
  </outline>
</glyph>
<glyph name="Uogonek" format="2">
  <advance width="530"/>
  <unicode hex="0172"/>
  <anchor x="290" y="-224" name="bottom"/>
  <anchor x="250" y="714" name="top"/>
  <anchor x="450" y="10" name="ogonek"/>
  <anchor x="480" y="714" name="topright"/>
  <outline>
    <contour>
      <point x="286" y="-224" type="curve" smooth="yes"/>
      <point x="306" y="-224"/>
      <point x="322" y="-221"/>
      <point x="333" y="-216" type="curve"/>
      <point x="333" y="-160" type="line"/>
      <point x="326" y="-163"/>
      <point x="316" y="-166"/>
      <point x="303" y="-166" type="curve" smooth="yes"/>
      <point x="272" y="-166"/>
      <point x="257" y="-148"/>
      <point x="257" y="-117" type="curve" smooth="yes"/>
      <point x="257" y="-66"/>
      <point x="299" y="-27"/>
      <point x="364" y="15" type="curve"/>
      <point x="318" y="27" type="line"/>
      <point x="247" y="-5"/>
      <point x="190" y="-63"/>
      <point x="190" y="-136" type="curve" smooth="yes"/>
      <point x="190" y="-190"/>
      <point x="222" y="-224"/>
    </contour>
    <component base="U"/>
  </outline>
</glyph>
<glyph name="uni018B" format="2">
  <advance width="530"/>
  <unicode hex="018B"/>
  <anchor x="250" y="0" name="bottom"/>
  <anchor x="255" y="714" name="top"/>
  <anchor x="0" y="0" name="topright"/>
  <outline>
    <contour>
      <point x="80" y="638" type="line"/>
      <point x="389" y="638" type="line"/>
      <point x="389" y="714" type="line"/>
      <point x="80" y="714" type="line"/>
    </contour>
    <component base="P" xScale="-1" yScale="-1" xOffset="500" yOffset="714"/>
  </outline>
</glyph>
<glyph name="uni018C" format="2">
  <advance width="530"/>
  <unicode hex="018C"/>
  <anchor x="250" y="0" name="bottom"/>
  <anchor x="263" y="760" name="top"/>
  <anchor x="480" y="760" name="topright"/>
  <anchor x="250" y="268" name="center"/>
  <outline>
    <contour>
      <point x="101" y="691" type="line"/>
      <point x="398" y="691" type="line"/>
      <point x="398" y="760" type="line"/>
      <point x="101" y="760" type="line"/>
    </contour>
    <component base="d"/>
  </outline>
</glyph>
<glyph name="uni0193" format="2">
  <advance width="530"/>
  <unicode hex="0193"/>
  <anchor x="250" y="0" name="bottom"/>
  <anchor x="250" y="866" name="top"/>
  <anchor x="480" y="714" name="topright"/>
  <outline>
    <contour>
      <point x="384" y="682" type="line"/>
      <point x="455" y="682" type="line"/>
      <point x="455" y="738" type="line" smooth="yes"/>
      <point x="455" y="783"/>
      <point x="469" y="794"/>
      <point x="491" y="794" type="curve" smooth="yes"/>
      <point x="507" y="794"/>
      <point x="523" y="787"/>
      <point x="530" y="783" type="curve"/>
      <point x="530" y="854" type="line"/>
      <point x="520" y="860"/>
      <point x="503" y="866"/>
      <point x="480" y="866" type="curve" smooth="yes"/>
      <point x="429" y="866"/>
      <point x="384" y="834"/>
      <point x="384" y="750" type="curve" smooth="yes"/>
    </contour>
    <component base="G"/>
  </outline>
</glyph>
<glyph name="uni01A3" format="2">
  <advance width="530"/>
  <unicode hex="01A3"/>
  <anchor x="160" y="0" name="bottom"/>
  <anchor x="160" y="277" name="center"/>
  <anchor x="163" y="10" name="ogonek"/>
  <anchor x="251" y="536" name="top"/>
  <outline>
    <contour>
      <point x="375" y="-240" type="line"/>
      <point x="459" y="-240" type="line"/>
      <point x="459" y="403" type="line" smooth="yes"/>
      <point x="459" y="511"/>
      <point x="414" y="548"/>
      <point x="356" y="548" type="curve" smooth="yes"/>
      <point x="296" y="548"/>
      <point x="277" y="516"/>
      <point x="261" y="486" type="curve"/>
      <point x="243" y="527"/>
      <point x="213" y="548"/>
      <point x="162" y="548" type="curve" smooth="yes"/>
      <point x="65" y="548"/>
      <point x="26" y="469"/>
      <point x="26" y="269" type="curve" smooth="yes"/>
      <point x="26" y="81"/>
      <point x="66" y="-10"/>
      <point x="159" y="-10" type="curve" smooth="yes"/>
      <point x="257" y="-10"/>
      <point x="294" y="82"/>
      <point x="294" y="269" type="curve" smooth="yes"/>
      <point x="294" y="327"/>
      <point x="288" y="399"/>
      <point x="280" y="438" type="curve"/>
      <point x="288" y="452"/>
      <point x="305" y="475"/>
      <point x="332" y="475" type="curve" smooth="yes"/>
      <point x="360" y="475"/>
      <point x="375" y="460"/>
      <point x="375" y="412" type="curve" smooth="yes"/>
    </contour>
    <contour>
      <point x="160" y="61" type="curve" smooth="yes"/>
      <point x="125" y="61"/>
      <point x="111" y="112"/>
      <point x="111" y="269" type="curve" smooth="yes"/>
      <point x="111" y="428"/>
      <point x="124" y="477"/>
      <point x="160" y="477" type="curve" smooth="yes"/>
      <point x="195" y="477"/>
      <point x="209" y="428"/>
      <point x="209" y="269" type="curve" smooth="yes"/>
      <point x="209" y="110"/>
      <point x="195" y="61"/>
    </contour>
  </outline>
</glyph>
<glyph name="uni01A5" format="2">
  <advance width="530"/>
  <unicode hex="01A5"/>
  <anchor x="270" y="-240" name="bottom"/>
  <anchor x="270" y="765" name="top"/>
  <outline>
    <contour>
      <point x="60" y="-240" type="line"/>
      <point x="142" y="-240" type="line"/>
      <point x="142" y="-11" type="line" smooth="yes"/>
      <point x="142" y="10"/>
      <point x="141" y="47"/>
      <point x="137" y="68" type="curve"/>
      <point x="144" y="68" type="line"/>
      <point x="174" y="26"/>
      <point x="216" y="-10"/>
      <point x="281" y="-10" type="curve" smooth="yes"/>
      <point x="388" y="-10"/>
      <point x="460" y="86"/>
      <point x="460" y="269" type="curve" smooth="yes"/>
      <point x="460" y="452"/>
      <point x="393" y="547"/>
      <point x="282" y="547" type="curve" smooth="yes"/>
      <point x="215" y="547"/>
      <point x="171" y="509"/>
      <point x="143" y="464" type="curve"/>
      <point x="139" y="464" type="line"/>
      <point x="141" y="492"/>
      <point x="142" y="512"/>
      <point x="142" y="546" type="curve" smooth="yes"/>
      <point x="142" y="620" type="line" smooth="yes"/>
      <point x="142" y="675"/>
      <point x="153" y="692"/>
      <point x="184" y="692" type="curve" smooth="yes"/>
      <point x="195" y="692"/>
      <point x="207" y="689"/>
      <point x="219" y="684" type="curve"/>
      <point x="219" y="756" type="line"/>
      <point x="208" y="761"/>
      <point x="188" y="765"/>
      <point x="171" y="765" type="curve" smooth="yes"/>
      <point x="97" y="765"/>
      <point x="60" y="714"/>
      <point x="60" y="624" type="curve" smooth="yes"/>
    </contour>
    <contour>
      <point x="262" y="63" type="curve" smooth="yes"/>
      <point x="178" y="63"/>
      <point x="142" y="139"/>
      <point x="142" y="269" type="curve" smooth="yes"/>
      <point x="142" y="289" type="line" smooth="yes"/>
      <point x="142" y="406"/>
      <point x="175" y="474"/>
      <point x="261" y="474" type="curve" smooth="yes"/>
      <point x="334" y="474"/>
      <point x="374" y="406"/>
      <point x="374" y="270" type="curve" smooth="yes"/>
      <point x="374" y="137"/>
      <point x="334" y="63"/>
    </contour>
  </outline>
</glyph>
<glyph name="uni01A6" format="2">
  <advance width="530"/>
  <unicode hex="01A6"/>
  <anchor x="266" y="-99" name="bottom"/>
  <anchor x="266" y="714" name="top"/>
  <outline>
    <contour>
      <point x="378" y="-100" type="line"/>
      <point x="471" y="-100" type="line"/>
      <point x="297" y="214" type="line"/>
      <point x="395" y="249"/>
      <point x="436" y="318"/>
      <point x="436" y="415" type="curve" smooth="yes"/>
      <point x="436" y="547"/>
      <point x="359" y="614"/>
      <point x="192" y="614" type="curve" smooth="yes"/>
      <point x="148" y="614" type="line"/>
      <point x="148" y="714" type="line"/>
      <point x="64" y="714" type="line"/>
      <point x="64" y="0" type="line"/>
      <point x="148" y="0" type="line"/>
      <point x="148" y="199" type="line"/>
      <point x="217" y="199" type="line"/>
    </contour>
    <contour>
      <point x="148" y="274" type="line"/>
      <point x="148" y="538" type="line"/>
      <point x="193" y="538" type="line" smooth="yes"/>
      <point x="301" y="538"/>
      <point x="350" y="500"/>
      <point x="350" y="410" type="curve" smooth="yes"/>
      <point x="350" y="316"/>
      <point x="297" y="274"/>
      <point x="202" y="274" type="curve" smooth="yes"/>
    </contour>
  </outline>
</glyph>
<glyph name="uni01BD" format="2">
  <advance width="530"/>
  <unicode hex="01BD"/>
  <anchor x="250" y="0" name="bottom"/>
  <anchor x="250" y="536" name="top"/>
  <outline>
    <contour>
      <point x="230" y="-10" type="curve" smooth="yes"/>
      <point x="387" y="-10"/>
      <point x="459" y="79"/>
      <point x="459" y="177" type="curve" smooth="yes"/>
      <point x="459" y="275"/>
      <point x="405" y="345"/>
      <point x="244" y="345" type="curve" smooth="yes"/>
      <point x="214" y="345" type="line"/>
      <point x="214" y="462" type="line"/>
      <point x="426" y="462" type="line"/>
      <point x="426" y="536" type="line"/>
      <point x="63" y="536" type="line"/>
      <point x="63" y="462" type="line"/>
      <point x="135" y="462" type="line"/>
      <point x="135" y="273" type="line"/>
      <point x="225" y="273" type="line" smooth="yes"/>
      <point x="327" y="273"/>
      <point x="372" y="242"/>
      <point x="372" y="171" type="curve" smooth="yes"/>
      <point x="372" y="93"/>
      <point x="309" y="62"/>
      <point x="229" y="62" type="curve" smooth="yes"/>
      <point x="152" y="62"/>
      <point x="98" y="85"/>
      <point x="53" y="104" type="curve"/>
      <point x="53" y="25" type="line"/>
      <point x="94" y="7"/>
      <point x="149" y="-10"/>
    </contour>
  </outline>
</glyph>
<glyph name="uni01C2" format="2">
  <advance width="530"/>
  <unicode hex="01C2"/>
  <anchor x="250" y="0" name="bottom"/>
  <anchor x="250" y="763" name="top"/>
  <outline>
    <contour>
      <point x="103" y="454" type="line"/>
      <point x="397" y="454" type="line"/>
      <point x="397" y="521" type="line"/>
      <point x="103" y="521" type="line"/>
    </contour>
    <contour>
      <point x="103" y="241" type="line"/>
      <point x="397" y="241" type="line"/>
      <point x="397" y="309" type="line"/>
      <point x="103" y="309" type="line"/>
    </contour>
    <component base="uni01C0" xOffset="1"/>
  </outline>
</glyph>
<glyph name="uni01E4" format="2">
  <advance width="530"/>
  <unicode hex="01E4"/>
  <anchor x="292" y="0" name="bottom"/>
  <anchor x="287" y="714" name="top"/>
  <outline>
    <contour>
      <point x="282" y="-10" type="curve" smooth="yes"/>
      <point x="343" y="-10"/>
      <point x="393" y="2"/>
      <point x="452" y="25" type="curve"/>
      <point x="452" y="383" type="line"/>
      <point x="269" y="383" type="line"/>
      <point x="269" y="305" type="line"/>
      <point x="370" y="305" type="line"/>
      <point x="370" y="80" type="line"/>
      <point x="342" y="70"/>
      <point x="316" y="65"/>
      <point x="281" y="65" type="curve" smooth="yes"/>
      <point x="163" y="65"/>
      <point x="110" y="194"/>
      <point x="110" y="357" type="curve" smooth="yes"/>
      <point x="110" y="545"/>
      <point x="173" y="651"/>
      <point x="289" y="651" type="curve" smooth="yes"/>
      <point x="340" y="651"/>
      <point x="376" y="641"/>
      <point x="422" y="613" type="curve"/>
      <point x="455" y="682" type="line"/>
      <point x="406" y="712"/>
      <point x="346" y="726"/>
      <point x="287" y="726" type="curve" smooth="yes"/>
      <point x="110" y="726"/>
      <point x="25" y="572"/>
      <point x="25" y="359" type="curve" smooth="yes"/>
      <point x="25" y="148"/>
      <point x="100" y="-10"/>
    </contour>
    <contour>
      <point x="269" y="160" type="line"/>
      <point x="500" y="160" type="line"/>
      <point x="500" y="225" type="line"/>
      <point x="269" y="225" type="line"/>
    </contour>
  </outline>
</glyph>
<glyph name="uni01E5" format="2">
  <advance width="530"/>
  <unicode hex="01E5"/>
  <anchor x="250" y="-245" name="bottom"/>
  <anchor x="250" y="546" name="top"/>
  <outline>
    <contour>
      <point x="224" y="-240" type="curve" smooth="yes"/>
      <point x="370" y="-240"/>
      <point x="427" y="-177"/>
      <point x="437" y="-91" type="curve"/>
      <point x="507" y="-91" type="line"/>
      <point x="507" y="-36" type="line"/>
      <point x="440" y="-36" type="line"/>
      <point x="440" y="537" type="line"/>
      <point x="373" y="537" type="line"/>
      <point x="364" y="466" type="line"/>
      <point x="358" y="466" type="line"/>
      <point x="328" y="520"/>
      <point x="286" y="547"/>
      <point x="226" y="547" type="curve" smooth="yes"/>
      <point x="116" y="547"/>
      <point x="40" y="455"/>
      <point x="40" y="277" type="curve" smooth="yes"/>
      <point x="40" y="113"/>
      <point x="104" y="21"/>
      <point x="214" y="21" type="curve" smooth="yes"/>
      <point x="271" y="21"/>
      <point x="324" y="46"/>
      <point x="358" y="105" type="curve"/>
      <point x="363" y="105" type="line"/>
      <point x="359" y="73"/>
      <point x="358" y="42"/>
      <point x="358" y="20" type="curve" smooth="yes"/>
      <point x="358" y="-36" type="line"/>
      <point x="174" y="-36" type="line"/>
      <point x="174" y="-91" type="line"/>
      <point x="355" y="-91" type="line"/>
      <point x="347" y="-145"/>
      <point x="307" y="-174"/>
      <point x="223" y="-174" type="curve" smooth="yes"/>
      <point x="179" y="-174"/>
      <point x="137" y="-166"/>
      <point x="79" y="-140" type="curve"/>
      <point x="79" y="-210" type="line"/>
      <point x="124" y="-230"/>
      <point x="166" y="-240"/>
    </contour>
    <contour>
      <point x="242" y="92" type="curve" smooth="yes"/>
      <point x="165" y="92"/>
      <point x="126" y="151"/>
      <point x="126" y="278" type="curve" smooth="yes"/>
      <point x="126" y="404"/>
      <point x="164" y="475"/>
      <point x="245" y="475" type="curve" smooth="yes"/>
      <point x="321" y="475"/>
      <point x="362" y="414"/>
      <point x="362" y="295" type="curve" smooth="yes"/>
      <point x="362" y="271" type="line" smooth="yes"/>
      <point x="362" y="152"/>
      <point x="320" y="92"/>
    </contour>
  </outline>
</glyph>
<glyph name="uni021C" format="2">
  <advance width="530"/>
  <unicode hex="021C"/>
  <anchor x="250" y="-98" name="bottom"/>
  <anchor x="250" y="714" name="top"/>
  <outline>
    <contour>
      <point x="64" y="-180" type="line"/>
      <point x="331" y="-98"/>
      <point x="445" y="-5"/>
      <point x="445" y="178" type="curve" smooth="yes"/>
      <point x="445" y="280"/>
      <point x="397" y="339"/>
      <point x="341" y="373" type="curve"/>
      <point x="397" y="411"/>
      <point x="431" y="464"/>
      <point x="431" y="544" type="curve" smooth="yes"/>
      <point x="431" y="665"/>
      <point x="355" y="724"/>
      <point x="254" y="724" type="curve" smooth="yes"/>
      <point x="182" y="724"/>
      <point x="115" y="701"/>
      <point x="59" y="650" type="curve"/>
      <point x="100" y="590" type="line"/>
      <point x="143" y="629"/>
      <point x="189" y="648"/>
      <point x="246" y="648" type="curve" smooth="yes"/>
      <point x="303" y="648"/>
      <point x="345" y="616"/>
      <point x="345" y="538" type="curve" smooth="yes"/>
      <point x="345" y="445"/>
      <point x="292" y="407"/>
      <point x="141" y="362" type="curve"/>
      <point x="159" y="296" type="line"/>
      <point x="201" y="308"/>
      <point x="241" y="321"/>
      <point x="276" y="337" type="curve"/>
      <point x="327" y="301"/>
      <point x="358" y="258"/>
      <point x="358" y="178" type="curve" smooth="yes"/>
      <point x="358" y="56"/>
      <point x="295" y="-26"/>
      <point x="64" y="-101" type="curve"/>
    </contour>
  </outline>
</glyph>
<glyph name="uni021D" format="2">
  <advance width="530"/>
  <unicode hex="021D"/>
  <anchor x="215" y="-174" name="bottom"/>
  <anchor x="223" y="536" name="top"/>
  <outline>
    <contour>
      <point x="34" y="-240" type="line"/>
      <point x="270" y="-192"/>
      <point x="442" y="-110"/>
      <point x="442" y="58" type="curve" smooth="yes"/>
      <point x="442" y="149"/>
      <point x="392" y="197"/>
      <point x="331" y="226" type="curve"/>
      <point x="385" y="263"/>
      <point x="414" y="310"/>
      <point x="414" y="378" type="curve" smooth="yes"/>
      <point x="414" y="496"/>
      <point x="334" y="547"/>
      <point x="224" y="547" type="curve" smooth="yes"/>
      <point x="162" y="547"/>
      <point x="103" y="531"/>
      <point x="53" y="507" type="curve"/>
      <point x="80" y="440" type="line"/>
      <point x="122" y="462"/>
      <point x="165" y="473"/>
      <point x="217" y="473" type="curve" smooth="yes"/>
      <point x="274" y="473"/>
      <point x="332" y="444"/>
      <point x="332" y="378" type="curve" smooth="yes"/>
      <point x="332" y="298"/>
      <point x="280" y="259"/>
      <point x="120" y="222" type="curve"/>
      <point x="144" y="158" type="line"/>
      <point x="189" y="168"/>
      <point x="229" y="178"/>
      <point x="265" y="190" type="curve"/>
      <point x="322" y="163"/>
      <point x="360" y="126"/>
      <point x="360" y="58" type="curve" smooth="yes"/>
      <point x="360" y="-54"/>
      <point x="255" y="-122"/>
      <point x="34" y="-168" type="curve"/>
    </contour>
  </outline>
</glyph>
<glyph name="uni0221" format="2">
  <advance width="530"/>
  <unicode hex="0221"/>
  <anchor x="250" y="-99" name="bottom"/>
  <anchor x="250" y="760" name="top"/>
  <outline>
    <contour>
      <point x="341" y="-99" type="line"/>
      <point x="341" y="-63"/>
      <point x="346" y="-23"/>
      <point x="351" y="5" type="curve"/>
      <point x="362" y="-1"/>
      <point x="375" y="-2"/>
      <point x="392" y="-2" type="curve" smooth="yes"/>
      <point x="460" y="-2"/>
      <point x="498" y="51"/>
      <point x="498" y="124" type="curve" smooth="yes"/>
      <point x="498" y="190"/>
      <point x="462" y="228"/>
      <point x="415" y="228" type="curve" smooth="yes"/>
      <point x="356" y="228"/>
      <point x="322" y="185"/>
      <point x="310" y="106" type="curve"/>
      <point x="306" y="119"/>
      <point x="305" y="135"/>
      <point x="305" y="155" type="curve" smooth="yes"/>
      <point x="305" y="760" type="line"/>
      <point x="230" y="760" type="line"/>
      <point x="230" y="562" type="line" smooth="yes"/>
      <point x="230" y="541"/>
      <point x="231" y="527"/>
      <point x="232" y="504" type="curve"/>
      <point x="229" y="504" type="line"/>
      <point x="216" y="530"/>
      <point x="191" y="547"/>
      <point x="156" y="547" type="curve" smooth="yes"/>
      <point x="76" y="547"/>
      <point x="23" y="467"/>
      <point x="23" y="268" type="curve" smooth="yes"/>
      <point x="23" y="57"/>
      <point x="71" y="-10"/>
      <point x="150" y="-10" type="curve" smooth="yes"/>
      <point x="195" y="-10"/>
      <point x="228" y="11"/>
      <point x="242" y="70" type="curve"/>
      <point x="247" y="70" type="line"/>
      <point x="255" y="53"/>
      <point x="273" y="34"/>
      <point x="293" y="24" type="curve"/>
      <point x="287" y="-9"/>
      <point x="282" y="-56"/>
      <point x="279" y="-97" type="curve"/>
    </contour>
    <contour>
      <point x="166" y="57" type="curve" smooth="yes"/>
      <point x="117" y="57"/>
      <point x="102" y="98"/>
      <point x="102" y="268" type="curve" smooth="yes"/>
      <point x="102" y="435"/>
      <point x="128" y="478"/>
      <point x="164" y="478" type="curve" smooth="yes"/>
      <point x="207" y="478"/>
      <point x="230" y="446"/>
      <point x="230" y="274" type="curve" smooth="yes"/>
      <point x="230" y="244" type="line" smooth="yes"/>
      <point x="230" y="98"/>
      <point x="207" y="57"/>
    </contour>
    <contour>
      <point x="396" y="61" type="curve" smooth="yes"/>
      <point x="377" y="61"/>
      <point x="370" y="64"/>
      <point x="359" y="68" type="curve"/>
      <point x="366" y="115"/>
      <point x="375" y="166"/>
      <point x="402" y="166" type="curve" smooth="yes"/>
      <point x="420" y="166"/>
      <point x="429" y="151"/>
      <point x="429" y="119" type="curve" smooth="yes"/>
      <point x="429" y="86"/>
      <point x="417" y="61"/>
    </contour>
  </outline>
</glyph>
<glyph name="uni0222" format="2">
  <advance width="530"/>
  <unicode hex="0222"/>
  <anchor x="250" y="0" name="bottom"/>
  <anchor x="250" y="714" name="top"/>
  <outline>
    <contour>
      <point x="250" y="-10" type="curve" smooth="yes"/>
      <point x="397" y="-10"/>
      <point x="454" y="92"/>
      <point x="454" y="222" type="curve" smooth="yes"/>
      <point x="454" y="312"/>
      <point x="428" y="387"/>
      <point x="346" y="418" type="curve"/>
      <point x="401" y="447"/>
      <point x="422" y="503"/>
      <point x="422" y="608" type="curve" smooth="yes"/>
      <point x="422" y="714" type="line"/>
      <point x="338" y="714" type="line"/>
      <point x="338" y="602" type="line" smooth="yes"/>
      <point x="338" y="489"/>
      <point x="307" y="451"/>
      <point x="251" y="451" type="curve" smooth="yes"/>
      <point x="195" y="451"/>
      <point x="160" y="490"/>
      <point x="160" y="601" type="curve" smooth="yes"/>
      <point x="160" y="714" type="line"/>
      <point x="76" y="714" type="line"/>
      <point x="76" y="607" type="line" smooth="yes"/>
      <point x="76" y="505"/>
      <point x="99" y="449"/>
      <point x="153" y="419" type="curve"/>
      <point x="77" y="392"/>
      <point x="44" y="328"/>
      <point x="44" y="223" type="curve" smooth="yes"/>
      <point x="44" y="95"/>
      <point x="100" y="-10"/>
    </contour>
    <contour>
      <point x="249" y="67" type="curve" smooth="yes"/>
      <point x="174" y="67"/>
      <point x="131" y="120"/>
      <point x="131" y="223" type="curve" smooth="yes"/>
      <point x="131" y="325"/>
      <point x="172" y="378"/>
      <point x="250" y="378" type="curve" smooth="yes"/>
      <point x="325" y="378"/>
      <point x="365" y="326"/>
      <point x="365" y="223" type="curve" smooth="yes"/>
      <point x="365" y="118"/>
      <point x="324" y="67"/>
    </contour>
  </outline>
</glyph>
<glyph name="uni0225" format="2">
  <advance width="530"/>
  <unicode hex="0225"/>
  <anchor x="268" y="-240" name="bottom"/>
  <anchor x="250" y="536" name="top"/>
  <anchor x="480" y="536" name="topright"/>
  <outline>
    <contour>
      <point x="344" y="-192" type="curve" smooth="yes"/>
      <point x="416" y="-192"/>
      <point x="457" y="-147"/>
      <point x="457" y="-59" type="curve" smooth="yes"/>
      <point x="457" y="72" type="line"/>
      <point x="370" y="72" type="line"/>
      <point x="370" y="0" type="line"/>
      <point x="379" y="0" type="line"/>
      <point x="379" y="-57" type="line" smooth="yes"/>
      <point x="379" y="-101"/>
      <point x="359" y="-121"/>
      <point x="325" y="-121" type="curve" smooth="yes"/>
      <point x="311" y="-121"/>
      <point x="297" y="-118"/>
      <point x="282" y="-112" type="curve"/>
      <point x="282" y="-183" type="line"/>
      <point x="298" y="-189"/>
      <point x="319" y="-192"/>
    </contour>
    <component base="z"/>
  </outline>
</glyph>
<glyph name="uni0235" format="2">
  <advance width="530"/>
  <unicode hex="0235"/>
  <anchor x="220" y="0" name="bottom"/>
  <anchor x="225" y="536" name="top"/>
  <outline>
    <contour>
      <point x="274" y="-28" type="line"/>
      <point x="279" y="1"/>
      <point x="284" y="25"/>
      <point x="292" y="46" type="curve"/>
      <point x="309" y="11"/>
      <point x="334" y="-10"/>
      <point x="386" y="-10" type="curve" smooth="yes"/>
      <point x="455" y="-10"/>
      <point x="494" y="36"/>
      <point x="494" y="106" type="curve" smooth="yes"/>
      <point x="494" y="177"/>
      <point x="458" y="224"/>
      <point x="395" y="224" type="curve" smooth="yes"/>
      <point x="373" y="224"/>
      <point x="355" y="217"/>
      <point x="344" y="210" type="curve"/>
      <point x="344" y="389" type="line" smooth="yes"/>
      <point x="344" y="498"/>
      <point x="297" y="547"/>
      <point x="218" y="547" type="curve" smooth="yes"/>
      <point x="159" y="547"/>
      <point x="129" y="517"/>
      <point x="115" y="480" type="curve"/>
      <point x="110" y="480" type="line"/>
      <point x="103" y="537" type="line"/>
      <point x="38" y="537" type="line"/>
      <point x="38" y="0" type="line"/>
      <point x="119" y="0" type="line"/>
      <point x="119" y="356" type="line" smooth="yes"/>
      <point x="119" y="442"/>
      <point x="143" y="475"/>
      <point x="195" y="475" type="curve" smooth="yes"/>
      <point x="243" y="475"/>
      <point x="263" y="445"/>
      <point x="263" y="373" type="curve" smooth="yes"/>
      <point x="263" y="169" type="line" smooth="yes"/>
      <point x="263" y="162"/>
      <point x="263" y="147"/>
      <point x="264" y="140" type="curve"/>
      <point x="243" y="105"/>
      <point x="227" y="57"/>
      <point x="209" y="-5" type="curve"/>
    </contour>
    <contour>
      <point x="387" y="52" type="curve" smooth="yes"/>
      <point x="353" y="52"/>
      <point x="344" y="87"/>
      <point x="344" y="140" type="curve"/>
      <point x="353" y="152"/>
      <point x="366" y="162"/>
      <point x="385" y="162" type="curve" smooth="yes"/>
      <point x="412" y="162"/>
      <point x="425" y="143"/>
      <point x="425" y="106" type="curve" smooth="yes"/>
      <point x="425" y="76"/>
      <point x="415" y="52"/>
    </contour>
  </outline>
</glyph>
<glyph name="jdotless" format="2">
  <advance width="500"/>
  <unicode hex="0237"/>
  <anchor x="250" y="-245" name="bottom"/>
  <anchor x="290" y="536" name="top"/>
  <outline>
    <contour>
      <point x="160" y="-245" type="curve" smooth="yes"/>
      <point x="273" y="-245"/>
      <point x="337" y="-186"/>
      <point x="337" y="-62" type="curve" smooth="yes"/>
      <point x="337" y="536" type="line"/>
      <point x="82" y="536" type="line"/>
      <point x="82" y="477" type="line"/>
      <point x="255" y="463" type="line"/>
      <point x="255" y="-68" type="line" smooth="yes"/>
      <point x="255" y="-136"/>
      <point x="219" y="-172"/>
      <point x="155" y="-172" type="curve" smooth="yes"/>
      <point x="123" y="-172"/>
      <point x="77" y="-163"/>
      <point x="45" y="-153" type="curve"/>
      <point x="45" y="-228" type="line"/>
      <point x="77" y="-238"/>
      <point x="120" y="-245"/>
    </contour>
  </outline>
</glyph>
<glyph name="uni0238" format="2">
  <advance width="530"/>
  <unicode hex="0238"/>
  <anchor x="251" y="0" name="bottom"/>
  <anchor x="252" y="760" name="top"/>
  <outline>
    <contour>
      <point x="149" y="-10" type="curve" smooth="yes"/>
      <point x="200" y="-10"/>
      <point x="235" y="25"/>
      <point x="249" y="92" type="curve"/>
      <point x="263" y="25"/>
      <point x="296" y="-10"/>
      <point x="347" y="-10" type="curve" smooth="yes"/>
      <point x="446" y="-10"/>
      <point x="480" y="94"/>
      <point x="480" y="269" type="curve" smooth="yes"/>
      <point x="480" y="475"/>
      <point x="438" y="545"/>
      <point x="360" y="545" type="curve" smooth="yes"/>
      <point x="321" y="545"/>
      <point x="297" y="524"/>
      <point x="285" y="492" type="curve"/>
      <point x="282" y="492" type="line"/>
      <point x="283" y="510"/>
      <point x="285" y="531"/>
      <point x="285" y="552" type="curve" smooth="yes"/>
      <point x="285" y="760" type="line"/>
      <point x="215" y="760" type="line"/>
      <point x="215" y="551" type="line" smooth="yes"/>
      <point x="215" y="530"/>
      <point x="216" y="512"/>
      <point x="217" y="492" type="curve"/>
      <point x="214" y="492" type="line"/>
      <point x="203" y="523"/>
      <point x="181" y="546"/>
      <point x="139" y="546" type="curve" smooth="yes"/>
      <point x="61" y="546"/>
      <point x="20" y="473"/>
      <point x="20" y="269" type="curve" smooth="yes"/>
      <point x="20" y="91"/>
      <point x="50" y="-10"/>
    </contour>
    <contour>
      <point x="152" y="59" type="curve" smooth="yes"/>
      <point x="115" y="59"/>
      <point x="94" y="109"/>
      <point x="94" y="268" type="curve" smooth="yes"/>
      <point x="94" y="426"/>
      <point x="115" y="476"/>
      <point x="154" y="476" type="curve" smooth="yes"/>
      <point x="193" y="476"/>
      <point x="215" y="436"/>
      <point x="215" y="268" type="curve" smooth="yes"/>
      <point x="215" y="105"/>
      <point x="194" y="59"/>
    </contour>
    <contour>
      <point x="347" y="60" type="curve" smooth="yes"/>
      <point x="307" y="60"/>
      <point x="285" y="105"/>
      <point x="285" y="268" type="curve" smooth="yes"/>
      <point x="285" y="433"/>
      <point x="298" y="476"/>
      <point x="349" y="476" type="curve" smooth="yes"/>
      <point x="385" y="476"/>
      <point x="406" y="429"/>
      <point x="406" y="270" type="curve" smooth="yes"/>
      <point x="406" y="105"/>
      <point x="383" y="60"/>
    </contour>
  </outline>
</glyph>
<glyph name="uni023A" format="2">
  <advance width="530"/>
  <unicode hex="023A"/>
  <anchor x="250" y="-75" name="bottom"/>
  <anchor x="250" y="760" name="top"/>
  <anchor x="450" y="10" name="ogonek"/>
  <anchor x="480" y="714" name="topright"/>
  <outline>
    <contour>
      <point x="145" y="-75" type="line"/>
      <point x="191" y="-75" type="line"/>
      <point x="371" y="760" type="line"/>
      <point x="324" y="760" type="line"/>
    </contour>
    <component base="A"/>
  </outline>
</glyph>
<glyph name="uni023E" format="2">
  <advance width="530"/>
  <unicode hex="023E"/>
  <anchor x="250" y="-75" name="bottom"/>
  <anchor x="250" y="760" name="top"/>
  <anchor x="480" y="714" name="topright"/>
  <anchor x="250" y="357" name="center"/>
  <outline>
    <contour>
      <point x="112" y="-75" type="line"/>
      <point x="161" y="-75" type="line"/>
      <point x="399" y="760" type="line"/>
      <point x="349" y="760" type="line"/>
    </contour>
    <component base="T"/>
  </outline>
</glyph>
<glyph name="uni0242" format="2">
  <advance width="530"/>
  <unicode hex="0242"/>
  <anchor x="245" y="0" name="bottom"/>
  <anchor x="257" y="536" name="top"/>
  <outline>
    <contour>
      <point x="190" y="0" type="line"/>
      <point x="268" y="0" type="line"/>
      <point x="268" y="121" type="line"/>
      <point x="355" y="195"/>
      <point x="402" y="248"/>
      <point x="402" y="368" type="curve" smooth="yes"/>
      <point x="402" y="482"/>
      <point x="336" y="546"/>
      <point x="235" y="546" type="curve" smooth="yes"/>
      <point x="188" y="546"/>
      <point x="140" y="535"/>
      <point x="98" y="503" type="curve"/>
      <point x="129" y="439" type="line"/>
      <point x="162" y="463"/>
      <point x="190" y="473"/>
      <point x="227" y="473" type="curve" smooth="yes"/>
      <point x="275" y="473"/>
      <point x="320" y="434"/>
      <point x="320" y="362" type="curve" smooth="yes"/>
      <point x="320" y="276"/>
      <point x="289" y="228"/>
      <point x="190" y="147" type="curve"/>
    </contour>
  </outline>
</glyph>
<glyph name="uni0251" format="2">
  <advance width="530"/>
  <unicode hex="0251"/>
  <anchor x="250" y="0" name="bottom"/>
  <anchor x="250" y="536" name="top"/>
  <outline>
    <contour>
      <point x="219" y="-10" type="curve" smooth="yes"/>
      <point x="269" y="-10"/>
      <point x="321" y="10"/>
      <point x="355" y="72" type="curve"/>
      <point x="359" y="72" type="line"/>
      <point x="377" y="0" type="line"/>
      <point x="439" y="0" type="line"/>
      <point x="439" y="536" type="line"/>
      <point x="377" y="536" type="line"/>
      <point x="363" y="470" type="line"/>
      <point x="358" y="470" type="line"/>
      <point x="328" y="524"/>
      <point x="285" y="547"/>
      <point x="228" y="547" type="curve" smooth="yes"/>
      <point x="113" y="547"/>
      <point x="41" y="452"/>
      <point x="41" y="267" type="curve" smooth="yes"/>
      <point x="41" y="85"/>
      <point x="111" y="-10"/>
    </contour>
    <contour>
      <point x="244" y="64" type="curve" smooth="yes"/>
      <point x="163" y="64"/>
      <point x="125" y="124"/>
      <point x="125" y="263" type="curve" smooth="yes"/>
      <point x="125" y="409"/>
      <point x="167" y="474"/>
      <point x="248" y="474" type="curve" smooth="yes"/>
      <point x="329" y="474"/>
      <point x="360" y="408"/>
      <point x="360" y="274" type="curve" smooth="yes"/>
      <point x="360" y="251" type="line" smooth="yes"/>
      <point x="360" y="130"/>
      <point x="329" y="64"/>
    </contour>
  </outline>
</glyph>
<glyph name="uni0256" format="2">
  <advance width="530"/>
  <unicode hex="0256"/>
  <anchor x="250" y="-240" name="bottom"/>
  <anchor x="250" y="760" name="top"/>
  <outline>
    <contour>
      <point x="461" y="-240" type="curve" smooth="yes"/>
      <point x="491" y="-240"/>
      <point x="519" y="-234"/>
      <point x="541" y="-224" type="curve"/>
      <point x="541" y="-155" type="line"/>
      <point x="530" y="-161"/>
      <point x="504" y="-167"/>
      <point x="484" y="-167" type="curve" smooth="yes"/>
      <point x="453" y="-167"/>
      <point x="440" y="-149"/>
      <point x="440" y="-101" type="curve" smooth="yes"/>
      <point x="440" y="760" type="line"/>
      <point x="358" y="760" type="line"/>
      <point x="358" y="542" type="line" smooth="yes"/>
      <point x="358" y="521"/>
      <point x="359" y="498"/>
      <point x="361" y="468" type="curve"/>
      <point x="356" y="468" type="line"/>
      <point x="330" y="519"/>
      <point x="285" y="547"/>
      <point x="230" y="547" type="curve" smooth="yes"/>
      <point x="106" y="547"/>
      <point x="40" y="447"/>
      <point x="40" y="268" type="curve" smooth="yes"/>
      <point x="40" y="87"/>
      <point x="108" y="-10"/>
      <point x="223" y="-10" type="curve" smooth="yes"/>
      <point x="285" y="-10"/>
      <point x="330" y="20"/>
      <point x="358" y="68" type="curve"/>
      <point x="362" y="68" type="line"/>
      <point x="359" y="43"/>
      <point x="358" y="19"/>
      <point x="358" y="-6" type="curve" smooth="yes"/>
      <point x="358" y="-102" type="line" smooth="yes"/>
      <point x="358" y="-199"/>
      <point x="391" y="-240"/>
    </contour>
    <contour>
      <point x="244" y="59" type="curve" smooth="yes"/>
      <point x="167" y="59"/>
      <point x="126" y="130"/>
      <point x="126" y="268" type="curve" smooth="yes"/>
      <point x="126" y="402"/>
      <point x="166" y="474"/>
      <point x="246" y="474" type="curve" smooth="yes"/>
      <point x="323" y="474"/>
      <point x="358" y="412"/>
      <point x="358" y="274" type="curve" smooth="yes"/>
      <point x="358" y="244" type="line" smooth="yes"/>
      <point x="358" y="120"/>
      <point x="319" y="59"/>
    </contour>
  </outline>
</glyph>
<glyph name="eopenreversedhook" format="2">
  <advance width="500"/>
  <unicode hex="025D"/>
  <anchor x="189" y="0" name="bottom"/>
  <anchor x="189" y="537" name="top"/>
  <outline>
    <contour>
      <point x="441" y="276" type="curve" smooth="yes"/>
      <point x="472" y="276"/>
      <point x="490" y="290"/>
      <point x="503" y="306" type="curve"/>
      <point x="480" y="345" type="line"/>
      <point x="471" y="335"/>
      <point x="463" y="328"/>
      <point x="445" y="328" type="curve" smooth="yes"/>
      <point x="421" y="328"/>
      <point x="413" y="348"/>
      <point x="406" y="417" type="curve" smooth="yes"/>
      <point x="401" y="466" type="line"/>
      <point x="336" y="447" type="line"/>
      <point x="341" y="385" type="line"/>
      <point x="358" y="391" type="line"/>
      <point x="369" y="302"/>
      <point x="396" y="276"/>
    </contour>
    <component base="afii10073" xOffset="-62"/>
  </outline>
</glyph>
<glyph name="uni0260" format="2">
  <advance width="530"/>
  <unicode hex="0260"/>
  <anchor x="250" y="-245" name="bottom"/>
  <anchor x="250" y="768" name="top"/>
  <outline>
    <contour>
      <point x="230" y="-245" type="curve" smooth="yes"/>
      <point x="370" y="-245"/>
      <point x="440" y="-167"/>
      <point x="440" y="-14" type="curve" smooth="yes"/>
      <point x="440" y="624" type="line" smooth="yes"/>
      <point x="440" y="680"/>
      <point x="454" y="696"/>
      <point x="491" y="696" type="curve" smooth="yes"/>
      <point x="503" y="696"/>
      <point x="518" y="693"/>
      <point x="531" y="687" type="curve"/>
      <point x="531" y="759" type="line"/>
      <point x="520" y="764"/>
      <point x="498" y="768"/>
      <point x="479" y="768" type="curve" smooth="yes"/>
      <point x="405" y="768"/>
      <point x="358" y="718"/>
      <point x="358" y="627" type="curve" smooth="yes"/>
      <point x="358" y="530" type="line" smooth="yes"/>
      <point x="358" y="512"/>
      <point x="361" y="486"/>
      <point x="363" y="465" type="curve"/>
      <point x="360" y="465" type="line"/>
      <point x="328" y="520"/>
      <point x="281" y="547"/>
      <point x="224" y="547" type="curve" smooth="yes"/>
      <point x="109" y="547"/>
      <point x="40" y="439"/>
      <point x="40" y="266" type="curve" smooth="yes"/>
      <point x="40" y="92"/>
      <point x="110" y="-9"/>
      <point x="224" y="-9" type="curve" smooth="yes"/>
      <point x="280" y="-9"/>
      <point x="328" y="16"/>
      <point x="358" y="71" type="curve"/>
      <point x="361" y="71" type="line"/>
      <point x="359" y="59"/>
      <point x="358" y="21"/>
      <point x="358" y="5" type="curve" smooth="yes"/>
      <point x="358" y="-21" type="line" smooth="yes"/>
      <point x="358" y="-113"/>
      <point x="318" y="-172"/>
      <point x="231" y="-172" type="curve" smooth="yes"/>
      <point x="187" y="-172"/>
      <point x="124" y="-157"/>
      <point x="76" y="-131" type="curve"/>
      <point x="76" y="-211" type="line"/>
      <point x="122" y="-234"/>
      <point x="177" y="-245"/>
    </contour>
    <contour>
      <point x="251" y="63" type="curve" smooth="yes"/>
      <point x="167" y="63"/>
      <point x="126" y="134"/>
      <point x="126" y="267" type="curve" smooth="yes"/>
      <point x="126" y="400"/>
      <point x="167" y="474"/>
      <point x="249" y="474" type="curve" smooth="yes"/>
      <point x="326" y="474"/>
      <point x="362" y="410"/>
      <point x="362" y="267" type="curve" smooth="yes"/>
      <point x="362" y="246" type="line" smooth="yes"/>
      <point x="362" y="120"/>
      <point x="327" y="63"/>
    </contour>
  </outline>
</glyph>
<glyph name="uni0262" format="2">
  <advance width="530"/>
  <unicode hex="0262"/>
  <anchor x="280" y="0" name="bottom"/>
  <anchor x="280" y="536" name="top"/>
  <outline>
    <contour>
      <point x="283" y="-10" type="curve" smooth="yes"/>
      <point x="350" y="-10"/>
      <point x="407" y="7"/>
      <point x="438" y="24" type="curve"/>
      <point x="438" y="286" type="line"/>
      <point x="247" y="286" type="line"/>
      <point x="247" y="222" type="line"/>
      <point x="360" y="222" type="line"/>
      <point x="360" y="71" type="line"/>
      <point x="343" y="66"/>
      <point x="321" y="61"/>
      <point x="284" y="61" type="curve" smooth="yes"/>
      <point x="182" y="61"/>
      <point x="125" y="129"/>
      <point x="125" y="266" type="curve" smooth="yes"/>
      <point x="125" y="404"/>
      <point x="188" y="475"/>
      <point x="298" y="475" type="curve" smooth="yes"/>
      <point x="349" y="475"/>
      <point x="387" y="461"/>
      <point x="415" y="447" type="curve"/>
      <point x="441" y="518" type="line"/>
      <point x="410" y="533"/>
      <point x="366" y="547"/>
      <point x="301" y="547" type="curve" smooth="yes"/>
      <point x="136" y="547"/>
      <point x="42" y="441"/>
      <point x="42" y="265" type="curve" smooth="yes"/>
      <point x="42" y="82"/>
      <point x="128" y="-10"/>
    </contour>
  </outline>
</glyph>
<glyph name="uni0264" format="2">
  <advance width="530"/>
  <unicode hex="0264"/>
  <anchor x="250" y="0" name="bottom"/>
  <anchor x="250" y="536" name="top"/>
  <outline>
    <contour>
      <point x="249" y="-9" type="curve" smooth="yes"/>
      <point x="325" y="-9"/>
      <point x="365" y="42"/>
      <point x="365" y="110" type="curve" smooth="yes"/>
      <point x="365" y="163"/>
      <point x="340" y="209"/>
      <point x="303" y="264" type="curve"/>
      <point x="385" y="425" type="line" smooth="yes"/>
      <point x="403" y="460"/>
      <point x="415" y="473"/>
      <point x="442" y="473" type="curve" smooth="yes"/>
      <point x="456" y="473"/>
      <point x="464" y="471"/>
      <point x="476" y="467" type="curve"/>
      <point x="476" y="534" type="line"/>
      <point x="462" y="541"/>
      <point x="439" y="545"/>
      <point x="422" y="545" type="curve" smooth="yes"/>
      <point x="379" y="545"/>
      <point x="356" y="530"/>
      <point x="331" y="478" type="curve" smooth="yes"/>
      <point x="285" y="384" type="line" smooth="yes"/>
      <point x="267" y="347"/>
      <point x="258" y="327"/>
      <point x="253" y="313" type="curve"/>
      <point x="249" y="313" type="line"/>
      <point x="245" y="327"/>
      <point x="237" y="349"/>
      <point x="219" y="385" type="curve" smooth="yes"/>
      <point x="171" y="481" type="line" smooth="yes"/>
      <point x="149" y="526"/>
      <point x="124" y="546"/>
      <point x="77" y="546" type="curve" smooth="yes"/>
      <point x="58" y="546"/>
      <point x="37" y="542"/>
      <point x="24" y="534" type="curve"/>
      <point x="24" y="469" type="line"/>
      <point x="33" y="474"/>
      <point x="42" y="475"/>
      <point x="56" y="475" type="curve" smooth="yes"/>
      <point x="80" y="475"/>
      <point x="95" y="463"/>
      <point x="114" y="426" type="curve" smooth="yes"/>
      <point x="195" y="264" type="line"/>
      <point x="161" y="210"/>
      <point x="136" y="159"/>
      <point x="136" y="107" type="curve" smooth="yes"/>
      <point x="136" y="38"/>
      <point x="175" y="-9"/>
    </contour>
    <contour>
      <point x="250" y="50" type="curve" smooth="yes"/>
      <point x="226" y="50"/>
      <point x="210" y="67"/>
      <point x="210" y="109" type="curve" smooth="yes"/>
      <point x="210" y="137"/>
      <point x="224" y="180"/>
      <point x="250" y="219" type="curve"/>
      <point x="278" y="180"/>
      <point x="292" y="139"/>
      <point x="292" y="108" type="curve" smooth="yes"/>
      <point x="292" y="67"/>
      <point x="277" y="50"/>
    </contour>
  </outline>
</glyph>
<glyph name="uni0266" format="2">
  <advance width="530"/>
  <unicode hex="0266"/>
  <anchor x="250" y="0" name="bottom"/>
  <anchor x="131" y="760" name="top"/>
  <outline>
    <contour>
      <point x="60" y="0" type="line"/>
      <point x="142" y="0" type="line"/>
      <point x="142" y="279" type="line" smooth="yes"/>
      <point x="142" y="403"/>
      <point x="180" y="474"/>
      <point x="262" y="474" type="curve" smooth="yes"/>
      <point x="330" y="474"/>
      <point x="363" y="426"/>
      <point x="363" y="333" type="curve" smooth="yes"/>
      <point x="363" y="0" type="line"/>
      <point x="445" y="0" type="line"/>
      <point x="445" y="350" type="line" smooth="yes"/>
      <point x="445" y="487"/>
      <point x="375" y="547"/>
      <point x="281" y="547" type="curve" smooth="yes"/>
      <point x="211" y="547"/>
      <point x="170" y="513"/>
      <point x="143" y="463" type="curve"/>
      <point x="138" y="463" type="line"/>
      <point x="139" y="486"/>
      <point x="142" y="509"/>
      <point x="142" y="532" type="curve" smooth="yes"/>
      <point x="142" y="622" type="line" smooth="yes"/>
      <point x="142" y="676"/>
      <point x="160" y="692"/>
      <point x="197" y="692" type="curve" smooth="yes"/>
      <point x="209" y="692"/>
      <point x="224" y="689"/>
      <point x="237" y="684" type="curve"/>
      <point x="237" y="756" type="line"/>
      <point x="226" y="761"/>
      <point x="204" y="765"/>
      <point x="185" y="765" type="curve" smooth="yes"/>
      <point x="111" y="765"/>
      <point x="60" y="714"/>
      <point x="60" y="624" type="curve" smooth="yes"/>
    </contour>
  </outline>
</glyph>
<glyph name="uni0273" format="2">
  <advance width="530"/>
  <unicode hex="0273"/>
  <anchor x="256" y="-240" name="bottom"/>
  <anchor x="261" y="536" name="top"/>
  <outline>
    <contour>
      <point x="462" y="-240" type="curve" smooth="yes"/>
      <point x="489" y="-240"/>
      <point x="514" y="-234"/>
      <point x="535" y="-224" type="curve"/>
      <point x="535" y="-155" type="line"/>
      <point x="525" y="-161"/>
      <point x="501" y="-167"/>
      <point x="483" y="-167" type="curve" smooth="yes"/>
      <point x="455" y="-167"/>
      <point x="445" y="-150"/>
      <point x="445" y="-102" type="curve" smooth="yes"/>
      <point x="445" y="350" type="line" smooth="yes"/>
      <point x="445" y="487"/>
      <point x="387" y="547"/>
      <point x="286" y="547" type="curve" smooth="yes"/>
      <point x="225" y="547"/>
      <point x="171" y="520"/>
      <point x="144" y="464" type="curve"/>
      <point x="139" y="464" type="line"/>
      <point x="127" y="536" type="line"/>
      <point x="60" y="536" type="line"/>
      <point x="60" y="0" type="line"/>
      <point x="142" y="0" type="line"/>
      <point x="142" y="279" type="line" smooth="yes"/>
      <point x="142" y="404"/>
      <point x="178" y="474"/>
      <point x="260" y="474" type="curve" smooth="yes"/>
      <point x="325" y="474"/>
      <point x="363" y="430"/>
      <point x="363" y="346" type="curve" smooth="yes"/>
      <point x="363" y="-102" type="line" smooth="yes"/>
      <point x="363" y="-199"/>
      <point x="393" y="-240"/>
    </contour>
  </outline>
</glyph>
<glyph name="uni027A" format="2">
  <advance width="530"/>
  <unicode hex="027A"/>
  <anchor x="268" y="0" name="bottom"/>
  <anchor x="301" y="760" name="top"/>
  <outline>
    <contour>
      <point x="111" y="-11" type="curve" smooth="yes"/>
      <point x="184" y="-11"/>
      <point x="234" y="30"/>
      <point x="261" y="95" type="curve"/>
      <point x="265" y="95" type="line"/>
      <point x="273" y="0" type="line"/>
      <point x="457" y="0" type="line"/>
      <point x="457" y="59" type="line"/>
      <point x="341" y="73" type="line"/>
      <point x="341" y="760" type="line"/>
      <point x="258" y="760" type="line"/>
      <point x="258" y="269" type="line" smooth="yes"/>
      <point x="258" y="159"/>
      <point x="208" y="74"/>
      <point x="122" y="74" type="curve" smooth="yes"/>
      <point x="102" y="74"/>
      <point x="74" y="77"/>
      <point x="53" y="88" type="curve"/>
      <point x="30" y="6" type="line"/>
      <point x="59" y="-6"/>
      <point x="86" y="-11"/>
    </contour>
  </outline>
</glyph>
<glyph name="uni027B" format="2">
  <advance width="530"/>
  <unicode hex="027B"/>
  <anchor x="205" y="-240" name="bottom"/>
  <anchor x="297" y="536" name="top"/>
  <outline>
    <contour>
      <point x="356" y="-240" type="curve" smooth="yes"/>
      <point x="383" y="-240"/>
      <point x="408" y="-234"/>
      <point x="429" y="-224" type="curve"/>
      <point x="429" y="-155" type="line"/>
      <point x="419" y="-161"/>
      <point x="395" y="-167"/>
      <point x="377" y="-167" type="curve" smooth="yes"/>
      <point x="348" y="-167"/>
      <point x="337" y="-150"/>
      <point x="337" y="-102" type="curve" smooth="yes"/>
      <point x="337" y="536" type="line"/>
      <point x="254" y="536" type="line"/>
      <point x="254" y="266" type="line" smooth="yes"/>
      <point x="254" y="157"/>
      <point x="202" y="74"/>
      <point x="117" y="74" type="curve" smooth="yes"/>
      <point x="86" y="74"/>
      <point x="61" y="81"/>
      <point x="49" y="88" type="curve"/>
      <point x="25" y="6" type="line"/>
      <point x="41" y="-1"/>
      <point x="71" y="-11"/>
      <point x="110" y="-11" type="curve" smooth="yes"/>
      <point x="175" y="-11"/>
      <point x="229" y="25"/>
      <point x="255" y="90" type="curve"/>
      <point x="259" y="90" type="line"/>
      <point x="256" y="59"/>
      <point x="254" y="30"/>
      <point x="254" y="0" type="curve" smooth="yes"/>
      <point x="254" y="-102" type="line" smooth="yes"/>
      <point x="254" y="-199"/>
      <point x="285" y="-240"/>
    </contour>
  </outline>
</glyph>
<glyph name="rlongleg" format="2">
  <advance width="530"/>
  <unicode hex="027C"/>
  <anchor x="202" y="-240" name="bottom"/>
  <anchor x="267" y="536" name="top"/>
  <outline>
    <contour>
      <point x="159" y="-240" type="line"/>
      <point x="242" y="-240" type="line"/>
      <point x="242" y="267" type="line" smooth="yes"/>
      <point x="242" y="377"/>
      <point x="292" y="462"/>
      <point x="378" y="462" type="curve" smooth="yes"/>
      <point x="398" y="462"/>
      <point x="426" y="459"/>
      <point x="447" y="448" type="curve"/>
      <point x="470" y="530" type="line"/>
      <point x="441" y="542"/>
      <point x="414" y="547"/>
      <point x="389" y="547" type="curve" smooth="yes"/>
      <point x="316" y="547"/>
      <point x="266" y="506"/>
      <point x="239" y="441" type="curve"/>
      <point x="235" y="441" type="line"/>
      <point x="227" y="536" type="line"/>
      <point x="43" y="536" type="line"/>
      <point x="43" y="477" type="line"/>
      <point x="159" y="463" type="line"/>
    </contour>
  </outline>
</glyph>
<glyph name="uni027E" format="2">
  <advance width="530"/>
  <unicode hex="027E"/>
  <anchor x="250" y="0" name="bottom"/>
  <anchor x="324" y="536" name="top"/>
  <outline>
    <contour>
      <point x="172" y="0" type="line"/>
      <point x="256" y="0" type="line"/>
      <point x="256" y="348" type="line" smooth="yes"/>
      <point x="256" y="432"/>
      <point x="291" y="470"/>
      <point x="356" y="470" type="curve" smooth="yes"/>
      <point x="394" y="470"/>
      <point x="424" y="458"/>
      <point x="443" y="448" type="curve"/>
      <point x="458" y="525" type="line"/>
      <point x="432" y="535"/>
      <point x="401" y="546"/>
      <point x="353" y="546" type="curve" smooth="yes"/>
      <point x="244" y="546"/>
      <point x="172" y="477"/>
      <point x="172" y="359" type="curve" smooth="yes"/>
    </contour>
  </outline>
</glyph>
<glyph name="uni0283" format="2">
  <advance width="530"/>
  <unicode hex="0283"/>
  <anchor x="177" y="-240" name="bottom"/>
  <anchor x="336" y="763" name="top"/>
  <outline>
    <contour>
      <point x="114" y="-240" type="curve" smooth="yes"/>
      <point x="214" y="-240"/>
      <point x="291" y="-171"/>
      <point x="291" y="-43" type="curve" smooth="yes"/>
      <point x="291" y="567" type="line" smooth="yes"/>
      <point x="291" y="646"/>
      <point x="329" y="689"/>
      <point x="400" y="689" type="curve" smooth="yes"/>
      <point x="434" y="689"/>
      <point x="456" y="683"/>
      <point x="468" y="677" type="curve"/>
      <point x="468" y="752" type="line"/>
      <point x="450" y="759"/>
      <point x="426" y="765"/>
      <point x="387" y="765" type="curve" smooth="yes"/>
      <point x="286" y="765"/>
      <point x="209" y="699"/>
      <point x="209" y="568" type="curve" smooth="yes"/>
      <point x="209" y="-42" type="line" smooth="yes"/>
      <point x="209" y="-121"/>
      <point x="173" y="-163"/>
      <point x="104" y="-163" type="curve" smooth="yes"/>
      <point x="71" y="-163"/>
      <point x="45" y="-155"/>
      <point x="32" y="-148" type="curve"/>
      <point x="32" y="-226" type="line"/>
      <point x="46" y="-233"/>
      <point x="72" y="-240"/>
    </contour>
  </outline>
</glyph>
<glyph name="eshcurl" format="2">
  <advance width="530"/>
  <unicode hex="0286"/>
  <anchor x="186" y="-240" name="bottom"/>
  <anchor x="360" y="765" name="top"/>
  <outline>
    <contour>
      <point x="163" y="-240" type="curve" smooth="yes"/>
      <point x="244" y="-240"/>
      <point x="293" y="-187"/>
      <point x="293" y="-82" type="curve"/>
      <point x="351" y="-82" type="line"/>
      <point x="351" y="-25" type="line"/>
      <point x="293" y="-25" type="line"/>
      <point x="293" y="567" type="line" smooth="yes"/>
      <point x="293" y="646"/>
      <point x="330" y="689"/>
      <point x="400" y="689" type="curve" smooth="yes"/>
      <point x="434" y="689"/>
      <point x="456" y="683"/>
      <point x="468" y="677" type="curve"/>
      <point x="468" y="752" type="line"/>
      <point x="450" y="759"/>
      <point x="426" y="765"/>
      <point x="387" y="765" type="curve" smooth="yes"/>
      <point x="286" y="765"/>
      <point x="209" y="699"/>
      <point x="209" y="568" type="curve" smooth="yes"/>
      <point x="209" y="-25" type="line"/>
      <point x="181" y="-25" type="line" smooth="yes"/>
      <point x="95" y="-25"/>
      <point x="47" y="-66"/>
      <point x="47" y="-135" type="curve" smooth="yes"/>
      <point x="47" y="-202"/>
      <point x="90" y="-240"/>
    </contour>
    <contour>
      <point x="154" y="-178" type="curve" smooth="yes"/>
      <point x="126" y="-178"/>
      <point x="109" y="-160"/>
      <point x="109" y="-133" type="curve" smooth="yes"/>
      <point x="109" y="-95"/>
      <point x="137" y="-82"/>
      <point x="172" y="-82" type="curve" smooth="yes"/>
      <point x="210" y="-82" type="line"/>
      <point x="210" y="-94" type="line" smooth="yes"/>
      <point x="210" y="-145"/>
      <point x="194" y="-178"/>
    </contour>
  </outline>
</glyph>
<glyph name="uni028B" format="2">
  <advance width="530"/>
  <unicode hex="028B"/>
  <anchor x="250" y="0" name="bottom"/>
  <anchor x="250" y="536" name="top"/>
  <outline>
    <contour>
      <point x="250" y="-10" type="curve" smooth="yes"/>
      <point x="390" y="-10"/>
      <point x="433" y="67"/>
      <point x="433" y="187" type="curve" smooth="yes"/>
      <point x="433" y="408" type="line" smooth="yes"/>
      <point x="433" y="505"/>
      <point x="402" y="547"/>
      <point x="333" y="547" type="curve" smooth="yes"/>
      <point x="310" y="547"/>
      <point x="288" y="542"/>
      <point x="269" y="535" type="curve"/>
      <point x="269" y="467" type="line"/>
      <point x="276" y="470"/>
      <point x="298" y="474"/>
      <point x="313" y="474" type="curve" smooth="yes"/>
      <point x="340" y="474"/>
      <point x="353" y="457"/>
      <point x="353" y="408" type="curve" smooth="yes"/>
      <point x="353" y="198" type="line" smooth="yes"/>
      <point x="353" y="102"/>
      <point x="322" y="63"/>
      <point x="250" y="63" type="curve" smooth="yes"/>
      <point x="179" y="63"/>
      <point x="149" y="102"/>
      <point x="149" y="198" type="curve" smooth="yes"/>
      <point x="149" y="537" type="line"/>
      <point x="68" y="537" type="line"/>
      <point x="68" y="187" type="line" smooth="yes"/>
      <point x="68" y="67"/>
      <point x="111" y="-10"/>
    </contour>
  </outline>
</glyph>
<glyph name="uni029B" format="2">
  <advance width="530"/>
  <unicode hex="029B"/>
  <anchor x="299" y="0" name="bottom"/>
  <anchor x="290" y="760" name="top"/>
  <outline>
    <contour>
      <point x="289" y="-10" type="curve" smooth="yes"/>
      <point x="355" y="-10"/>
      <point x="409" y="9"/>
      <point x="436" y="23" type="curve"/>
      <point x="436" y="286" type="line"/>
      <point x="257" y="286" type="line"/>
      <point x="257" y="222" type="line"/>
      <point x="358" y="222" type="line"/>
      <point x="358" y="71" type="line"/>
      <point x="337" y="65"/>
      <point x="313" y="61"/>
      <point x="285" y="61" type="curve" smooth="yes"/>
      <point x="180" y="61"/>
      <point x="127" y="129"/>
      <point x="127" y="266" type="curve" smooth="yes"/>
      <point x="127" y="404"/>
      <point x="188" y="475"/>
      <point x="302" y="475" type="curve" smooth="yes"/>
      <point x="336" y="475"/>
      <point x="367" y="469"/>
      <point x="405" y="455" type="curve"/>
      <point x="436" y="522" type="line"/>
      <point x="436" y="624" type="line" smooth="yes"/>
      <point x="436" y="680"/>
      <point x="453" y="696"/>
      <point x="499" y="696" type="curve" smooth="yes"/>
      <point x="515" y="696"/>
      <point x="532" y="693"/>
      <point x="549" y="687" type="curve"/>
      <point x="549" y="759" type="line"/>
      <point x="534" y="764"/>
      <point x="507" y="768"/>
      <point x="484" y="768" type="curve" smooth="yes"/>
      <point x="410" y="768"/>
      <point x="356" y="718"/>
      <point x="356" y="627" type="curve" smooth="yes"/>
      <point x="356" y="541" type="line"/>
      <point x="339" y="544"/>
      <point x="316" y="547"/>
      <point x="295" y="547" type="curve" smooth="yes"/>
      <point x="138" y="547"/>
      <point x="40" y="441"/>
      <point x="40" y="265" type="curve" smooth="yes"/>
      <point x="40" y="82"/>
      <point x="127" y="-10"/>
    </contour>
  </outline>
</glyph>
<glyph name="uni02A1" format="2">
  <advance width="530"/>
  <unicode hex="02A1"/>
  <anchor x="226" y="0" name="bottom"/>
  <anchor x="250" y="765" name="top"/>
  <outline>
    <contour>
      <point x="65" y="151" type="line"/>
      <point x="387" y="151" type="line"/>
      <point x="387" y="214" type="line"/>
      <point x="65" y="214" type="line"/>
    </contour>
    <component base="uni0294"/>
  </outline>
</glyph>
<glyph name="dzlig" format="2">
  <advance width="530"/>
  <unicode hex="02A3"/>
  <anchor x="250" y="0" name="bottom"/>
  <anchor x="250" y="760" name="top"/>
  <outline>
    <contour>
      <point x="132" y="-10" type="curve" smooth="yes"/>
      <point x="173" y="-10"/>
      <point x="196" y="9"/>
      <point x="211" y="40" type="curve"/>
      <point x="214" y="40" type="line"/>
      <point x="227" y="0" type="line"/>
      <point x="486" y="0" type="line"/>
      <point x="486" y="64" type="line"/>
      <point x="362" y="64" type="line"/>
      <point x="482" y="474" type="line"/>
      <point x="482" y="536" type="line"/>
      <point x="287" y="536" type="line"/>
      <point x="287" y="760" type="line"/>
      <point x="211" y="760" type="line"/>
      <point x="211" y="556" type="line" smooth="yes"/>
      <point x="211" y="536"/>
      <point x="212" y="515"/>
      <point x="214" y="502" type="curve"/>
      <point x="211" y="502" type="line"/>
      <point x="200" y="528"/>
      <point x="178" y="546"/>
      <point x="144" y="546" type="curve" smooth="yes"/>
      <point x="71" y="546"/>
      <point x="16" y="483"/>
      <point x="16" y="267" type="curve" smooth="yes"/>
      <point x="16" y="46"/>
      <point x="60" y="-10"/>
    </contour>
    <contour>
      <point x="156" y="57" type="curve" smooth="yes"/>
      <point x="115" y="57"/>
      <point x="94" y="89"/>
      <point x="94" y="265" type="curve" smooth="yes"/>
      <point x="94" y="440"/>
      <point x="117" y="479"/>
      <point x="158" y="479" type="curve" smooth="yes"/>
      <point x="198" y="479"/>
      <point x="214" y="440"/>
      <point x="214" y="266" type="curve" smooth="yes"/>
      <point x="214" y="250" type="line" smooth="yes"/>
      <point x="214" y="93"/>
      <point x="194" y="57"/>
    </contour>
    <contour>
      <point x="287" y="61" type="line"/>
      <point x="287" y="472" type="line"/>
      <point x="405" y="472" type="line"/>
    </contour>
  </outline>
</glyph>
<glyph name="dzligcurl" format="2">
  <advance width="530"/>
  <unicode hex="02A5"/>
  <anchor x="244" y="0" name="bottom"/>
  <anchor x="244" y="760" name="top"/>
  <outline>
    <contour>
      <point x="422" y="-87" type="line"/>
      <point x="434" y="-54"/>
      <point x="446" y="-25"/>
      <point x="458" y="0" type="curve"/>
      <point x="554" y="0" type="line" smooth="yes"/>
      <point x="657" y="0"/>
      <point x="702" y="47"/>
      <point x="702" y="121" type="curve" smooth="yes"/>
      <point x="702" y="177"/>
      <point x="665" y="227"/>
      <point x="585" y="227" type="curve" smooth="yes"/>
      <point x="503" y="227"/>
      <point x="456" y="176"/>
      <point x="406" y="68" type="curve"/>
      <point x="342" y="68" type="line"/>
      <point x="612" y="470" type="line"/>
      <point x="612" y="536" type="line"/>
      <point x="242" y="536" type="line"/>
      <point x="242" y="760" type="line"/>
      <point x="154" y="760" type="line"/>
      <point x="154" y="546" type="line" smooth="yes"/>
      <point x="154" y="526"/>
      <point x="158" y="484"/>
      <point x="160" y="467" type="curve"/>
      <point x="154" y="467" type="line"/>
      <point x="121" y="511"/>
      <point x="71" y="546"/>
      <point x="5" y="546" type="curve" smooth="yes"/>
      <point x="-114" y="546"/>
      <point x="-202" y="451"/>
      <point x="-202" y="267" type="curve" smooth="yes"/>
      <point x="-202" y="83"/>
      <point x="-115" y="-10"/>
      <point x="4" y="-10" type="curve" smooth="yes"/>
      <point x="71" y="-10"/>
      <point x="122" y="26"/>
      <point x="154" y="72" type="curve"/>
      <point x="158" y="72" type="line"/>
      <point x="171" y="0" type="line"/>
      <point x="379" y="0" type="line"/>
      <point x="371" y="-18"/>
      <point x="363" y="-38"/>
      <point x="355" y="-59" type="curve"/>
    </contour>
    <contour>
      <point x="18" y="63" type="curve" smooth="yes"/>
      <point x="-64" y="63"/>
      <point x="-111" y="137"/>
      <point x="-111" y="265" type="curve" smooth="yes"/>
      <point x="-111" y="392"/>
      <point x="-64" y="473"/>
      <point x="17" y="473" type="curve" smooth="yes"/>
      <point x="119" y="473"/>
      <point x="155" y="399"/>
      <point x="155" y="266" type="curve" smooth="yes"/>
      <point x="155" y="250" type="line" smooth="yes"/>
      <point x="155" y="125"/>
      <point x="114" y="63"/>
    </contour>
    <contour>
      <point x="486" y="68" type="line"/>
      <point x="515" y="131"/>
      <point x="539" y="159"/>
      <point x="576" y="159" type="curve" smooth="yes"/>
      <point x="604" y="159"/>
      <point x="619" y="140"/>
      <point x="619" y="117" type="curve" smooth="yes"/>
      <point x="619" y="88"/>
      <point x="598" y="68"/>
      <point x="556" y="68" type="curve" smooth="yes"/>
    </contour>
    <contour>
      <point x="242" y="59" type="line"/>
      <point x="242" y="468" type="line"/>
      <point x="515" y="468" type="line"/>
    </contour>
  </outline>
</glyph>
<glyph name="tcligcurl" format="2">
  <advance width="530"/>
  <unicode hex="02A8"/>
  <anchor x="258" y="0" name="bottom"/>
  <anchor x="258" y="679" name="top"/>
  <outline>
    <contour>
      <point x="131" y="-10" type="curve" smooth="yes"/>
      <point x="357" y="-10"/>
      <point x="383" y="201"/>
      <point x="533" y="201" type="curve" smooth="yes"/>
      <point x="583" y="201"/>
      <point x="611" y="177"/>
      <point x="611" y="140" type="curve" smooth="yes"/>
      <point x="611" y="99"/>
      <point x="576" y="63"/>
      <point x="509" y="63" type="curve" smooth="yes"/>
      <point x="403" y="63"/>
      <point x="354" y="153"/>
      <point x="354" y="277" type="curve" smooth="yes"/>
      <point x="354" y="403"/>
      <point x="405" y="468"/>
      <point x="515" y="468" type="curve" smooth="yes"/>
      <point x="559" y="468"/>
      <point x="597" y="458"/>
      <point x="640" y="436" type="curve"/>
      <point x="667" y="509" type="line"/>
      <point x="621" y="533"/>
      <point x="571" y="546"/>
      <point x="512" y="546" type="curve" smooth="yes"/>
      <point x="363" y="546"/>
      <point x="262" y="463"/>
      <point x="262" y="275" type="curve" smooth="yes"/>
      <point x="262" y="105"/>
      <point x="344" y="-10"/>
      <point x="505" y="-10" type="curve" smooth="yes"/>
      <point x="615" y="-10"/>
      <point x="694" y="44"/>
      <point x="694" y="140" type="curve" smooth="yes"/>
      <point x="694" y="220"/>
      <point x="639" y="276"/>
      <point x="537" y="276" type="curve" smooth="yes"/>
      <point x="338" y="276"/>
      <point x="299" y="63"/>
      <point x="143" y="63" type="curve" smooth="yes"/>
      <point x="76" y="63"/>
      <point x="29" y="103"/>
      <point x="29" y="180" type="curve" smooth="yes"/>
      <point x="29" y="461" type="line"/>
      <point x="203" y="461" type="line"/>
      <point x="203" y="536" type="line"/>
      <point x="29" y="536" type="line"/>
      <point x="29" y="679" type="line"/>
      <point x="-44" y="679" type="line"/>
      <point x="-62" y="539" type="line"/>
      <point x="-194" y="523" type="line"/>
      <point x="-194" y="461" type="line"/>
      <point x="-62" y="461" type="line"/>
      <point x="-62" y="173" type="line" smooth="yes"/>
      <point x="-62" y="31"/>
      <point x="31" y="-10"/>
    </contour>
  </outline>
</glyph>
<glyph name="uni02A9" format="2">
  <advance width="530"/>
  <unicode hex="02A9"/>
  <anchor x="250" y="-240" name="bottom"/>
  <anchor x="250" y="766" name="top"/>
  <outline>
    <contour>
      <point x="356" y="-240" type="curve" smooth="yes"/>
      <point x="415" y="-240"/>
      <point x="459" y="-198"/>
      <point x="459" y="-121" type="curve" smooth="yes"/>
      <point x="459" y="408" type="line" smooth="yes"/>
      <point x="459" y="514"/>
      <point x="413" y="547"/>
      <point x="358" y="547" type="curve" smooth="yes"/>
      <point x="305" y="547"/>
      <point x="277" y="523"/>
      <point x="263" y="492" type="curve"/>
      <point x="258" y="492" type="line"/>
      <point x="252" y="537" type="line"/>
      <point x="116" y="537" type="line"/>
      <point x="116" y="636" type="line" smooth="yes"/>
      <point x="116" y="680"/>
      <point x="141" y="698"/>
      <point x="171" y="698" type="curve" smooth="yes"/>
      <point x="191" y="698"/>
      <point x="206" y="694"/>
      <point x="222" y="687" type="curve"/>
      <point x="243" y="752" type="line"/>
      <point x="223" y="761"/>
      <point x="205" y="766"/>
      <point x="171" y="766" type="curve" smooth="yes"/>
      <point x="103" y="766"/>
      <point x="41" y="725"/>
      <point x="41" y="641" type="curve" smooth="yes"/>
      <point x="41" y="540" type="line"/>
      <point x="0" y="517" type="line"/>
      <point x="0" y="471" type="line"/>
      <point x="41" y="471" type="line"/>
      <point x="41" y="0" type="line"/>
      <point x="116" y="0" type="line"/>
      <point x="116" y="471" type="line"/>
      <point x="199" y="471" type="line"/>
      <point x="199" y="0" type="line"/>
      <point x="273" y="0" type="line"/>
      <point x="273" y="351" type="line" smooth="yes"/>
      <point x="273" y="429"/>
      <point x="287" y="475"/>
      <point x="335" y="475" type="curve" smooth="yes"/>
      <point x="364" y="475"/>
      <point x="384" y="458"/>
      <point x="384" y="402" type="curve" smooth="yes"/>
      <point x="384" y="-118" type="line" smooth="yes"/>
      <point x="384" y="-160"/>
      <point x="364" y="-171"/>
      <point x="345" y="-171" type="curve" smooth="yes"/>
      <point x="328" y="-171"/>
      <point x="317" y="-168"/>
      <point x="305" y="-163" type="curve"/>
      <point x="305" y="-232" type="line"/>
      <point x="319" y="-237"/>
      <point x="333" y="-240"/>
    </contour>
  </outline>
</glyph>
<glyph name="uni02AA" format="2">
  <advance width="530"/>
  <unicode hex="02AA"/>
  <anchor x="250" y="0" name="bottom"/>
  <anchor x="250" y="760" name="top"/>
  <outline>
    <contour>
      <point x="293" y="-10" type="curve" smooth="yes"/>
      <point x="404" y="-10"/>
      <point x="468" y="45"/>
      <point x="468" y="145" type="curve" smooth="yes"/>
      <point x="468" y="227"/>
      <point x="425" y="262"/>
      <point x="356" y="307" type="curve" smooth="yes"/>
      <point x="296" y="346"/>
      <point x="272" y="363"/>
      <point x="272" y="405" type="curve" smooth="yes"/>
      <point x="272" y="451"/>
      <point x="300" y="478"/>
      <point x="346" y="478" type="curve" smooth="yes"/>
      <point x="377" y="478"/>
      <point x="409" y="466"/>
      <point x="438" y="447" type="curve"/>
      <point x="466" y="512" type="line"/>
      <point x="431" y="535"/>
      <point x="390" y="547"/>
      <point x="347" y="547" type="curve" smooth="yes"/>
      <point x="256" y="547"/>
      <point x="195" y="494"/>
      <point x="195" y="402" type="curve" smooth="yes"/>
      <point x="195" y="317"/>
      <point x="246" y="280"/>
      <point x="306" y="242" type="curve" smooth="yes"/>
      <point x="360" y="208"/>
      <point x="388" y="191"/>
      <point x="388" y="144" type="curve" smooth="yes"/>
      <point x="388" y="92"/>
      <point x="354" y="63"/>
      <point x="290" y="63" type="curve" smooth="yes"/>
      <point x="238" y="63"/>
      <point x="178" y="82"/>
      <point x="146" y="100" type="curve"/>
      <point x="146" y="760" type="line"/>
      <point x="69" y="760" type="line"/>
      <point x="69" y="0" type="line"/>
      <point x="146" y="0" type="line"/>
      <point x="146" y="24" type="line"/>
      <point x="175" y="7"/>
      <point x="231" y="-10"/>
    </contour>
  </outline>
</glyph>
<glyph name="circumflex" format="2">
  <advance width="530"/>
  <unicode hex="02C6"/>
  <outline>
    <contour>
      <point x="119" y="606" type="line"/>
      <point x="164" y="606" type="line"/>
      <point x="188" y="629"/>
      <point x="219" y="665"/>
      <point x="250" y="700" type="curve"/>
      <point x="280" y="665"/>
      <point x="308" y="632"/>
      <point x="336" y="606" type="curve"/>
      <point x="381" y="606" type="line"/>
      <point x="381" y="616" type="line"/>
      <point x="348" y="660"/>
      <point x="309" y="721"/>
      <point x="288" y="766" type="curve"/>
      <point x="211" y="766" type="line"/>
      <point x="192" y="723"/>
      <point x="155" y="665"/>
      <point x="119" y="616" type="curve"/>
    </contour>
  </outline>
</glyph>
<glyph name="dotaccent" format="2">
  <advance width="530"/>
  <unicode hex="02D9"/>
  <outline>
    <contour>
      <point x="249" y="633" type="curve" smooth="yes"/>
      <point x="283" y="633"/>
      <point x="306" y="654"/>
      <point x="306" y="698" type="curve" smooth="yes"/>
      <point x="306" y="744"/>
      <point x="283" y="765"/>
      <point x="249" y="765" type="curve" smooth="yes"/>
      <point x="215" y="765"/>
      <point x="193" y="744"/>
      <point x="193" y="698" type="curve" smooth="yes"/>
      <point x="193" y="655"/>
      <point x="214" y="633"/>
    </contour>
  </outline>
</glyph>
<glyph name="uni02F0" format="2">
  <advance width="530"/>
  <unicode hex="02F0"/>
  <outline>
    <contour>
      <point x="140" y="-220" type="line"/>
      <point x="185" y="-220" type="line"/>
      <point x="251" y="-87" type="line"/>
      <point x="317" y="-220" type="line"/>
      <point x="361" y="-220" type="line"/>
      <point x="265" y="-30" type="line"/>
      <point x="236" y="-30" type="line"/>
    </contour>
  </outline>
</glyph>
<glyph name="uni02F2" format="2">
  <advance width="530"/>
  <unicode hex="02F2"/>
  <outline>
    <contour>
      <point x="167" y="-224" type="line"/>
      <point x="334" y="-126" type="line"/>
      <point x="334" y="-91" type="line"/>
      <point x="168" y="7" type="line"/>
      <point x="168" y="-42" type="line"/>
      <point x="282" y="-109" type="line"/>
      <point x="167" y="-175" type="line"/>
    </contour>
  </outline>
</glyph>
<glyph name="uni02FA" format="2">
  <advance width="500"/>
  <unicode hex="02FA"/>
  <outline>
    <contour>
      <point x="280" y="415" type="line"/>
      <point x="333" y="415" type="line"/>
      <point x="333" y="681" type="line"/>
      <point x="167" y="681" type="line"/>
      <point x="167" y="628" type="line"/>
      <point x="280" y="628" type="line"/>
    </contour>
  </outline>
</glyph>
<glyph name="righttackbelowcomb" format="2">
  <unicode hex="0319"/>
  <anchor x="0" y="0" name="_bottom"/>
  <anchor x="0" y="-212" name="bottom"/>
  <outline>
    <contour>
      <point x="-62" y="-212" type="line"/>
      <point x="-15" y="-212" type="line"/>
      <point x="-15" y="-146" type="line"/>
      <point x="61" y="-146" type="line"/>
      <point x="61" y="-100" type="line"/>
      <point x="-15" y="-100" type="line"/>
      <point x="-15" y="-34" type="line"/>
      <point x="-62" y="-34" type="line"/>
    </contour>
  </outline>
</glyph>
<glyph name="horncomb" format="2">
  <unicode hex="031B"/>
  <outline>
    <contour>
      <point x="-39" y="471" type="line"/>
      <point x="30" y="509"/>
      <point x="66" y="559"/>
      <point x="66" y="632" type="curve" smooth="yes"/>
      <point x="66" y="656"/>
      <point x="62" y="683"/>
      <point x="50" y="720" type="curve"/>
      <point x="38" y="728" type="line"/>
      <point x="-16" y="697" type="line"/>
      <point x="-4" y="662"/>
      <point x="-1" y="642"/>
      <point x="-1" y="623" type="curve" smooth="yes"/>
      <point x="-1" y="570"/>
      <point x="-23" y="544"/>
      <point x="-66" y="522" type="curve"/>
    </contour>
  </outline>
</glyph>
<glyph name="dblarchinvertedbelowcomb" format="2">
  <unicode hex="032B"/>
  <anchor x="0" y="0" name="_bottom"/>
  <anchor x="0" y="-170" name="bottom"/>
  <outline>
    <contour>
      <point x="-56" y="-170" type="curve" smooth="yes"/>
      <point x="-31" y="-170"/>
      <point x="-11" y="-153"/>
      <point x="-1" y="-129" type="curve"/>
      <point x="11" y="-153"/>
      <point x="30" y="-170"/>
      <point x="56" y="-170" type="curve" smooth="yes"/>
      <point x="98" y="-170"/>
      <point x="133" y="-142"/>
      <point x="133" y="-61" type="curve"/>
      <point x="92" y="-61" type="line"/>
      <point x="92" y="-106"/>
      <point x="80" y="-127"/>
      <point x="56" y="-127" type="curve" smooth="yes"/>
      <point x="31" y="-127"/>
      <point x="20" y="-106"/>
      <point x="20" y="-61" type="curve"/>
      <point x="-20" y="-61" type="line"/>
      <point x="-20" y="-106"/>
      <point x="-33" y="-127"/>
      <point x="-57" y="-127" type="curve" smooth="yes"/>
      <point x="-82" y="-127"/>
      <point x="-92" y="-106"/>
      <point x="-92" y="-61" type="curve"/>
      <point x="-133" y="-61" type="line"/>
      <point x="-133" y="-141"/>
      <point x="-98" y="-170"/>
    </contour>
  </outline>
</glyph>
<glyph name="ringhalfrightbelowcomb" format="2">
  <unicode hex="0339"/>
  <anchor x="0" y="0" name="_bottom"/>
  <anchor x="0" y="-234" name="bottom"/>
  <outline>
    <contour>
      <point x="-58" y="-234" type="line"/>
      <point x="13" y="-234"/>
      <point x="58" y="-194"/>
      <point x="58" y="-127" type="curve" smooth="yes"/>
      <point x="58" y="-59"/>
      <point x="13" y="-19"/>
      <point x="-58" y="-19" type="curve"/>
      <point x="-58" y="-65" type="line"/>
      <point x="-19" y="-65"/>
      <point x="6" y="-88"/>
      <point x="6" y="-127" type="curve" smooth="yes"/>
      <point x="6" y="-166"/>
      <point x="-21" y="-188"/>
      <point x="-58" y="-188" type="curve"/>
    </contour>
  </outline>
</glyph>
<glyph name="arrowupbelowcomb" format="2">
  <unicode hex="034E"/>
  <anchor x="0" y="0" name="_bottom"/>
  <anchor x="0" y="-229" name="bottom"/>
  <outline>
    <contour>
      <point x="-22" y="-229" type="line"/>
      <point x="23" y="-229" type="line"/>
      <point x="23" y="-124" type="line"/>
      <point x="61" y="-124" type="line"/>
      <point x="1" y="-36" type="line"/>
      <point x="-61" y="-124" type="line"/>
      <point x="-22" y="-124" type="line"/>
    </contour>
  </outline>
</glyph>
<glyph name="arrowheadrightbelowcomb" format="2">
  <unicode hex="0355"/>
  <anchor x="0" y="0" name="_bottom"/>
  <anchor x="0" y="-240" name="bottom"/>
  <outline>
    <contour>
      <point x="-57" y="-240" type="line"/>
      <point x="-50" y="-240" type="line"/>
      <point x="-14" y="-206"/>
      <point x="27" y="-177"/>
      <point x="57" y="-163" type="curve"/>
      <point x="57" y="-118" type="line"/>
      <point x="26" y="-100"/>
      <point x="-23" y="-63"/>
      <point x="-50" y="-39" type="curve"/>
      <point x="-57" y="-39" type="line"/>
      <point x="-57" y="-77" type="line"/>
      <point x="-37" y="-99"/>
      <point x="-15" y="-118"/>
      <point x="11" y="-140" type="curve"/>
      <point x="-14" y="-160"/>
      <point x="-37" y="-180"/>
      <point x="-57" y="-202" type="curve"/>
    </contour>
  </outline>
</glyph>
<glyph name="zigzagabovecomb" format="2">
  <unicode hex="035B"/>
  <anchor x="0" y="537" name="_top"/>
  <anchor x="0" y="782" name="top"/>
  <outline>
    <contour>
      <point x="12" y="592" type="line"/>
      <point x="58" y="592" type="line"/>
      <point x="83" y="710" type="line"/>
      <point x="-28" y="710" type="line"/>
      <point x="-13" y="782" type="line"/>
      <point x="-59" y="782" type="line"/>
      <point x="-84" y="664" type="line"/>
      <point x="27" y="664" type="line"/>
    </contour>
  </outline>
</glyph>
<glyph name="breveinverteddoublecomb" format="2">
  <unicode hex="0361"/>
  <anchor x="0" y="617" name="_top"/>
  <anchor x="0" y="854" name="top"/>
  <outline>
    <contour>
      <point x="-276" y="667" type="curve"/>
      <point x="-217" y="667" type="line"/>
      <point x="-178" y="748"/>
      <point x="-100" y="784"/>
      <point x="-2" y="784" type="curve"/>
      <point x="112" y="784"/>
      <point x="183" y="740"/>
      <point x="217" y="667" type="curve"/>
      <point x="275" y="667" type="line"/>
      <point x="236" y="790"/>
      <point x="139" y="854"/>
      <point x="-3" y="854" type="curve"/>
      <point x="-128" y="854"/>
      <point x="-228" y="800"/>
    </contour>
  </outline>
</glyph>
<glyph name="arrowdoublerightbelowcomb" format="2">
  <unicode hex="0362"/>
  <anchor x="0" y="0" name="_bottom"/>
  <anchor x="0" y="-210" name="bottom"/>
  <outline>
    <contour>
      <point x="186" y="-210" type="line"/>
      <point x="274" y="-128" type="line"/>
      <point x="186" y="-44" type="line"/>
      <point x="186" y="-103" type="line"/>
      <point x="-274" y="-103" type="line"/>
      <point x="-274" y="-151" type="line"/>
      <point x="186" y="-151" type="line"/>
    </contour>
  </outline>
</glyph>
<glyph name="Heta" format="2">
  <advance width="500"/>
  <unicode hex="0370"/>
  <anchor x="250" y="0" name="bottom"/>
  <anchor x="250" y="714" name="top"/>
  <outline>
    <contour>
      <point x="120" y="0" type="line"/>
      <point x="204" y="0" type="line"/>
      <point x="204" y="335" type="line"/>
      <point x="380" y="335" type="line"/>
      <point x="380" y="411" type="line"/>
      <point x="204" y="411" type="line"/>
      <point x="204" y="714" type="line"/>
      <point x="120" y="714" type="line"/>
    </contour>
  </outline>
</glyph>
<glyph name="heta" format="2">
  <advance width="500"/>
  <unicode hex="0371"/>
  <anchor x="250" y="0" name="bottom"/>
  <anchor x="250" y="536" name="top"/>
  <outline>
    <contour>
      <point x="145" y="0" type="line"/>
      <point x="226" y="0" type="line"/>
      <point x="226" y="244" type="line"/>
      <point x="354" y="244" type="line"/>
      <point x="354" y="314" type="line"/>
      <point x="226" y="314" type="line"/>
      <point x="226" y="537" type="line"/>
      <point x="145" y="537" type="line"/>
    </contour>
  </outline>
</glyph>
<glyph name="tonos" format="2">
  <advance width="530"/>
  <unicode hex="0384"/>
  <anchor x="250" y="536" name="_top"/>
  <anchor x="249" y="760" name="top"/>
  <outline>
    <contour>
      <point x="231" y="606" type="line"/>
      <point x="279" y="606" type="line"/>
      <point x="303" y="655"/>
      <point x="327" y="724"/>
      <point x="343" y="772" type="curve"/>
      <point x="343" y="780" type="line"/>
      <point x="263" y="780" type="line"/>
      <point x="259" y="751"/>
      <point x="239" y="644"/>
      <point x="231" y="614" type="curve"/>
    </contour>
  </outline>
</glyph>
<glyph name="Etatonos" format="2">
  <advance width="530"/>
  <unicode hex="0389"/>
  <anchor x="280" y="0" name="bottom"/>
  <anchor x="280" y="375" name="center"/>
  <anchor x="280" y="714" name="top"/>
  <anchor x="50" y="714" name="topleft"/>
  <outline>
    <contour>
      <point x="101" y="0" type="line"/>
      <point x="185" y="0" type="line"/>
      <point x="185" y="330" type="line"/>
      <point x="371" y="330" type="line"/>
      <point x="371" y="0" type="line"/>
      <point x="455" y="0" type="line"/>
      <point x="455" y="714" type="line"/>
      <point x="371" y="714" type="line"/>
      <point x="371" y="408" type="line"/>
      <point x="185" y="408" type="line"/>
      <point x="185" y="714" type="line"/>
      <point x="101" y="714" type="line"/>
    </contour>
    <component base="tonos" xOffset="-265"/>
  </outline>
</glyph>
<glyph name="Gamma" format="2">
  <advance width="530"/>
  <unicode hex="0393"/>
  <anchor x="270" y="0" name="bottom"/>
  <anchor x="270" y="714" name="top"/>
  <outline>
    <contour>
      <point x="75" y="0" type="line"/>
      <point x="159" y="0" type="line"/>
      <point x="159" y="638" type="line"/>
      <point x="440" y="638" type="line"/>
      <point x="440" y="714" type="line"/>
      <point x="75" y="714" type="line"/>
    </contour>
  </outline>
</glyph>
<glyph name="Lambda" format="2">
  <advance width="530"/>
  <unicode hex="039B"/>
  <anchor x="250" y="0" name="bottom"/>
  <anchor x="250" y="714" name="top"/>
  <outline>
    <contour>
      <point x="20" y="0" type="line"/>
      <point x="109" y="0" type="line"/>
      <point x="227" y="508" type="line" smooth="yes"/>
      <point x="237" y="551"/>
      <point x="244" y="581"/>
      <point x="248" y="617" type="curve"/>
      <point x="252" y="581"/>
      <point x="259" y="551"/>
      <point x="270" y="507" type="curve" smooth="yes"/>
      <point x="392" y="0" type="line"/>
      <point x="480" y="0" type="line"/>
      <point x="294" y="714" type="line"/>
      <point x="201" y="714" type="line"/>
    </contour>
  </outline>
</glyph>
<glyph name="Xi" format="2">
  <advance width="530"/>
  <unicode hex="039E"/>
  <anchor x="250" y="0" name="bottom"/>
  <anchor x="250" y="714" name="top"/>
  <outline>
    <contour>
      <point x="45" y="0" type="line"/>
      <point x="455" y="0" type="line"/>
      <point x="455" y="79" type="line"/>
      <point x="45" y="79" type="line"/>
    </contour>
    <contour>
      <point x="95" y="334" type="line"/>
      <point x="405" y="334" type="line"/>
      <point x="405" y="412" type="line"/>
      <point x="95" y="412" type="line"/>
    </contour>
    <contour>
      <point x="65" y="635" type="line"/>
      <point x="435" y="635" type="line"/>
      <point x="435" y="714" type="line"/>
      <point x="65" y="714" type="line"/>
    </contour>
  </outline>
</glyph>
<glyph name="Phi" format="2">
  <advance width="530"/>
  <unicode hex="03A6"/>
  <anchor x="250" y="0" name="bottom"/>
  <anchor x="250" y="714" name="top"/>
  <outline>
    <contour>
      <point x="209" y="-10" type="line"/>
      <point x="291" y="-10" type="line"/>
      <point x="291" y="100" type="line"/>
      <point x="416" y="100"/>
      <point x="480" y="213"/>
      <point x="480" y="370" type="curve" smooth="yes"/>
      <point x="480" y="526"/>
      <point x="417" y="636"/>
      <point x="291" y="636" type="curve"/>
      <point x="291" y="724" type="line"/>
      <point x="209" y="724" type="line"/>
      <point x="209" y="636" type="line"/>
      <point x="87" y="636"/>
      <point x="20" y="521"/>
      <point x="20" y="373" type="curve" smooth="yes"/>
      <point x="20" y="211"/>
      <point x="88" y="100"/>
      <point x="209" y="100" type="curve"/>
    </contour>
    <contour>
      <point x="209" y="168" type="line"/>
      <point x="140" y="168"/>
      <point x="105" y="241"/>
      <point x="105" y="373" type="curve" smooth="yes"/>
      <point x="105" y="491"/>
      <point x="139" y="562"/>
      <point x="209" y="562" type="curve"/>
    </contour>
    <contour>
      <point x="291" y="168" type="curve"/>
      <point x="291" y="562" type="line"/>
      <point x="362" y="562"/>
      <point x="396" y="495"/>
      <point x="396" y="372" type="curve" smooth="yes"/>
      <point x="396" y="243"/>
      <point x="361" y="168"/>
    </contour>
  </outline>
</glyph>
<glyph name="alpha" format="2">
  <advance width="530"/>
  <unicode hex="03B1"/>
  <anchor x="250" y="0" name="bottom"/>
  <anchor x="250" y="536" name="top"/>
  <outline>
    <contour>
      <point x="205" y="-10" type="curve" smooth="yes"/>
      <point x="264" y="-10"/>
      <point x="310" y="20"/>
      <point x="337" y="75" type="curve"/>
      <point x="343" y="75" type="line"/>
      <point x="354" y="16"/>
      <point x="385" y="-10"/>
      <point x="436" y="-10" type="curve" smooth="yes"/>
      <point x="456" y="-10"/>
      <point x="475" y="-6"/>
      <point x="483" y="-1" type="curve"/>
      <point x="483" y="64" type="line"/>
      <point x="474" y="61"/>
      <point x="463" y="59"/>
      <point x="455" y="59" type="curve" smooth="yes"/>
      <point x="429" y="59"/>
      <point x="417" y="80"/>
      <point x="417" y="129" type="curve" smooth="yes"/>
      <point x="417" y="349" type="line" smooth="yes"/>
      <point x="417" y="427"/>
      <point x="425" y="494"/>
      <point x="438" y="537" type="curve"/>
      <point x="373" y="537" type="line"/>
      <point x="362" y="518"/>
      <point x="352" y="487"/>
      <point x="347" y="460" type="curve"/>
      <point x="342" y="460" type="line"/>
      <point x="315" y="518"/>
      <point x="272" y="547"/>
      <point x="212" y="547" type="curve" smooth="yes"/>
      <point x="104" y="547"/>
      <point x="40" y="452"/>
      <point x="40" y="266" type="curve" smooth="yes"/>
      <point x="40" y="85"/>
      <point x="101" y="-10"/>
    </contour>
    <contour>
      <point x="227" y="60" type="curve" smooth="yes"/>
      <point x="148" y="60"/>
      <point x="122" y="129"/>
      <point x="122" y="261" type="curve" smooth="yes"/>
      <point x="122" y="407"/>
      <point x="154" y="475"/>
      <point x="230" y="475" type="curve" smooth="yes"/>
      <point x="305" y="475"/>
      <point x="338" y="407"/>
      <point x="338" y="267" type="curve" smooth="yes"/>
      <point x="338" y="256" type="line" smooth="yes"/>
      <point x="338" y="126"/>
      <point x="304" y="60"/>
    </contour>
  </outline>
</glyph>
<glyph name="nu" format="2">
  <advance width="530"/>
  <unicode hex="03BD"/>
  <anchor x="253" y="0" name="bottom"/>
  <anchor x="249" y="536" name="top"/>
  <outline>
    <contour>
      <point x="190" y="0" type="line"/>
      <point x="265" y="0" type="line"/>
      <point x="395" y="162"/>
      <point x="450" y="327"/>
      <point x="450" y="537" type="curve"/>
      <point x="368" y="537" type="line"/>
      <point x="368" y="361"/>
      <point x="330" y="214"/>
      <point x="245" y="88" type="curve"/>
      <point x="241" y="88" type="line"/>
      <point x="238" y="117"/>
      <point x="225" y="159"/>
      <point x="213" y="209" type="curve" smooth="yes"/>
      <point x="133" y="537" type="line"/>
      <point x="50" y="537" type="line"/>
    </contour>
  </outline>
</glyph>
<glyph name="omega" format="2">
  <advance width="530"/>
  <unicode hex="03C9"/>
  <anchor x="250" y="0" name="bottom"/>
  <anchor x="250" y="536" name="top"/>
  <outline>
    <contour>
      <point x="156" y="-10" type="curve" smooth="yes"/>
      <point x="205" y="-10"/>
      <point x="235" y="23"/>
      <point x="248" y="81" type="curve"/>
      <point x="250" y="81" type="line"/>
      <point x="263" y="23"/>
      <point x="294" y="-10"/>
      <point x="340" y="-10" type="curve" smooth="yes"/>
      <point x="416" y="-10"/>
      <point x="460" y="87"/>
      <point x="460" y="260" type="curve" smooth="yes"/>
      <point x="460" y="357"/>
      <point x="445" y="445"/>
      <point x="414" y="537" type="curve"/>
      <point x="333" y="537" type="line"/>
      <point x="364" y="450"/>
      <point x="379" y="355"/>
      <point x="379" y="260" type="curve" smooth="yes"/>
      <point x="379" y="130"/>
      <point x="365" y="65"/>
      <point x="332" y="65" type="curve" smooth="yes"/>
      <point x="300" y="65"/>
      <point x="288" y="113"/>
      <point x="288" y="215" type="curve" smooth="yes"/>
      <point x="288" y="348" type="line"/>
      <point x="210" y="348" type="line"/>
      <point x="210" y="215" type="line" smooth="yes"/>
      <point x="210" y="114"/>
      <point x="197" y="65"/>
      <point x="167" y="65" type="curve" smooth="yes"/>
      <point x="133" y="65"/>
      <point x="121" y="129"/>
      <point x="121" y="261" type="curve" smooth="yes"/>
      <point x="121" y="359"/>
      <point x="136" y="451"/>
      <point x="167" y="537" type="curve"/>
      <point x="86" y="537" type="line"/>
      <point x="54" y="442"/>
      <point x="40" y="358"/>
      <point x="40" y="260" type="curve" smooth="yes"/>
      <point x="40" y="87"/>
      <point x="80" y="-10"/>
    </contour>
  </outline>
</glyph>
<glyph name="uni03DA" format="2">
  <advance width="500"/>
  <unicode hex="03DA"/>
  <anchor x="304" y="0" name="bottom"/>
  <anchor x="304" y="714" name="top"/>
  <outline>
    <contour>
      <point x="267" y="1" type="line"/>
      <point x="343" y="1" type="line"/>
      <point x="343" y="209" type="line"/>
      <point x="314" y="209" type="line" smooth="yes"/>
      <point x="189" y="209"/>
      <point x="124" y="283"/>
      <point x="124" y="429" type="curve" smooth="yes"/>
      <point x="124" y="554"/>
      <point x="182" y="649"/>
      <point x="308" y="649" type="curve" smooth="yes"/>
      <point x="369" y="649"/>
      <point x="406" y="631"/>
      <point x="438" y="616" type="curve"/>
      <point x="468" y="686" type="line"/>
      <point x="427" y="708"/>
      <point x="377" y="725"/>
      <point x="305" y="725" type="curve" smooth="yes"/>
      <point x="128" y="725"/>
      <point x="37" y="603"/>
      <point x="37" y="430" type="curve" smooth="yes"/>
      <point x="37" y="249"/>
      <point x="119" y="150"/>
      <point x="267" y="136" type="curve"/>
    </contour>
  </outline>
</glyph>
<glyph name="uni03DB" format="2">
  <advance width="500"/>
  <unicode hex="03DB"/>
  <anchor x="253" y="-214" name="bottom"/>
  <anchor x="305" y="536" name="top"/>
  <outline>
    <contour>
      <point x="230" y="-220" type="curve" smooth="yes"/>
      <point x="338" y="-220"/>
      <point x="401" y="-160"/>
      <point x="401" y="-68" type="curve" smooth="yes"/>
      <point x="401" y="22"/>
      <point x="358" y="51"/>
      <point x="276" y="86" type="curve" smooth="yes"/>
      <point x="190" y="123"/>
      <point x="153" y="158"/>
      <point x="153" y="274" type="curve" smooth="yes"/>
      <point x="153" y="411"/>
      <point x="206" y="474"/>
      <point x="312" y="474" type="curve" smooth="yes"/>
      <point x="342" y="474"/>
      <point x="368" y="465"/>
      <point x="390" y="453" type="curve"/>
      <point x="417" y="520" type="line"/>
      <point x="387" y="536"/>
      <point x="354" y="546"/>
      <point x="307" y="546" type="curve" smooth="yes"/>
      <point x="153" y="546"/>
      <point x="70" y="455"/>
      <point x="70" y="271" type="curve" smooth="yes"/>
      <point x="70" y="113"/>
      <point x="134" y="58"/>
      <point x="225" y="21" type="curve" smooth="yes"/>
      <point x="292" y="-6"/>
      <point x="321" y="-24"/>
      <point x="321" y="-73" type="curve" smooth="yes"/>
      <point x="321" y="-112"/>
      <point x="294" y="-147"/>
      <point x="228" y="-147" type="curve" smooth="yes"/>
      <point x="193" y="-147"/>
      <point x="156" y="-139"/>
      <point x="133" y="-129" type="curve"/>
      <point x="133" y="-206" type="line"/>
      <point x="157" y="-214"/>
      <point x="192" y="-220"/>
    </contour>
  </outline>
</glyph>
<glyph name="uni03DE" format="2">
  <advance width="500"/>
  <unicode hex="03DE"/>
  <anchor x="260" y="0" name="bottom"/>
  <anchor x="260" y="714" name="top"/>
  <outline>
    <contour>
      <point x="384" y="-10" type="curve"/>
      <point x="413" y="-10"/>
      <point x="440" y="-3"/>
      <point x="454" y="0" type="curve"/>
      <point x="454" y="70" type="line"/>
      <point x="444" y="66"/>
      <point x="430" y="60"/>
      <point x="412" y="60" type="curve" smooth="yes"/>
      <point x="377" y="60"/>
      <point x="353" y="75"/>
      <point x="353" y="110" type="curve" smooth="yes"/>
      <point x="353" y="131"/>
      <point x="360" y="158"/>
      <point x="368" y="182" type="curve" smooth="yes"/>
      <point x="446" y="409" type="line"/>
      <point x="173" y="409" type="line"/>
      <point x="211" y="513" type="line" smooth="yes"/>
      <point x="223" y="546"/>
      <point x="233" y="580"/>
      <point x="233" y="615" type="curve" smooth="yes"/>
      <point x="233" y="674"/>
      <point x="194" y="724"/>
      <point x="112" y="724" type="curve"/>
      <point x="83" y="724"/>
      <point x="57" y="719"/>
      <point x="36" y="712" type="curve"/>
      <point x="51" y="643" type="line"/>
      <point x="61" y="649"/>
      <point x="79" y="653"/>
      <point x="96" y="653" type="curve" smooth="yes"/>
      <point x="126" y="653"/>
      <point x="147" y="635"/>
      <point x="147" y="603" type="curve" smooth="yes"/>
      <point x="147" y="574"/>
      <point x="139" y="551"/>
      <point x="131" y="527" type="curve" smooth="yes"/>
      <point x="62" y="333" type="line"/>
      <point x="332" y="333" type="line"/>
      <point x="284" y="196" type="line" smooth="yes"/>
      <point x="273" y="164"/>
      <point x="264" y="133"/>
      <point x="264" y="101" type="curve" smooth="yes"/>
      <point x="264" y="36"/>
      <point x="310" y="-10"/>
    </contour>
  </outline>
</glyph>
<glyph name="uni03DF" format="2">
  <advance width="500"/>
  <unicode hex="03DF"/>
  <anchor x="263" y="-240" name="bottom"/>
  <anchor x="263" y="760" name="top"/>
  <outline>
    <contour>
      <point x="341" y="-240" type="curve" smooth="yes"/>
      <point x="364" y="-240"/>
      <point x="393" y="-234"/>
      <point x="402" y="-229" type="curve"/>
      <point x="402" y="-165" type="line"/>
      <point x="392" y="-169"/>
      <point x="380" y="-174"/>
      <point x="367" y="-174" type="curve" smooth="yes"/>
      <point x="337" y="-174"/>
      <point x="327" y="-149"/>
      <point x="327" y="-112" type="curve" smooth="yes"/>
      <point x="327" y="-84"/>
      <point x="334" y="-59"/>
      <point x="341" y="-28" type="curve" smooth="yes"/>
      <point x="420" y="308" type="line"/>
      <point x="420" y="377" type="line"/>
      <point x="165" y="300" type="line"/>
      <point x="228" y="543" type="line" smooth="yes"/>
      <point x="238" y="581"/>
      <point x="246" y="619"/>
      <point x="246" y="654" type="curve" smooth="yes"/>
      <point x="246" y="724"/>
      <point x="215" y="766"/>
      <point x="157" y="766" type="curve" smooth="yes"/>
      <point x="136" y="766"/>
      <point x="110" y="761"/>
      <point x="93" y="751" type="curve"/>
      <point x="104" y="687" type="line"/>
      <point x="113" y="696"/>
      <point x="127" y="701"/>
      <point x="137" y="701" type="curve" smooth="yes"/>
      <point x="155" y="701"/>
      <point x="167" y="686"/>
      <point x="167" y="645" type="curve" smooth="yes"/>
      <point x="167" y="618"/>
      <point x="162" y="591"/>
      <point x="153" y="557" type="curve" smooth="yes"/>
      <point x="79" y="271" type="line"/>
      <point x="79" y="203" type="line"/>
      <point x="331" y="277" type="line"/>
      <point x="263" y="-18" type="line" smooth="yes"/>
      <point x="255" y="-52"/>
      <point x="246" y="-91"/>
      <point x="246" y="-127" type="curve" smooth="yes"/>
      <point x="246" y="-199"/>
      <point x="281" y="-240"/>
    </contour>
  </outline>
</glyph>
<glyph name="uni03FB" format="2">
  <advance width="500"/>
  <unicode hex="03FB"/>
  <anchor x="250" y="-240" name="bottom"/>
  <anchor x="250" y="536" name="top"/>
  <outline>
    <contour>
      <point x="49" y="-240" type="line"/>
      <point x="125" y="-240" type="line"/>
      <point x="125" y="347" type="line" smooth="yes"/>
      <point x="125" y="376"/>
      <point x="125" y="415"/>
      <point x="123" y="440" type="curve"/>
      <point x="219" y="183" type="line"/>
      <point x="279" y="183" type="line"/>
      <point x="376" y="442" type="line"/>
      <point x="374" y="417"/>
      <point x="373" y="378"/>
      <point x="373" y="351" type="curve"/>
      <point x="373" y="0" type="line"/>
      <point x="451" y="0" type="line"/>
      <point x="451" y="537" type="line"/>
      <point x="346" y="537" type="line"/>
      <point x="250" y="274" type="line"/>
      <point x="152" y="537" type="line"/>
      <point x="49" y="537" type="line"/>
    </contour>
  </outline>
</glyph>
<glyph name="uni03FC" format="2">
  <advance width="500"/>
  <unicode hex="03FC"/>
  <anchor x="250" y="-240" name="bottom"/>
  <anchor x="250" y="536" name="top"/>
  <outline>
    <contour>
      <point x="4" y="-154" type="line"/>
      <point x="257" y="-154" type="line"/>
      <point x="257" y="-92" type="line"/>
      <point x="4" y="-92" type="line"/>
    </contour>
    <component base="rho"/>
  </outline>
</glyph>
<glyph name="afii10051" format="2">
  <advance width="530"/>
  <unicode hex="0402"/>
  <anchor x="250" y="0" name="bottom"/>
  <anchor x="165" y="714" name="top"/>
  <outline>
    <contour>
      <point x="295" y="-10" type="curve" smooth="yes"/>
      <point x="392" y="-10"/>
      <point x="445" y="51"/>
      <point x="445" y="153" type="curve" smooth="yes"/>
      <point x="445" y="275" type="line" smooth="yes"/>
      <point x="445" y="382"/>
      <point x="381" y="440"/>
      <point x="254" y="440" type="curve" smooth="yes"/>
      <point x="185" y="440" type="line"/>
      <point x="185" y="638" type="line"/>
      <point x="317" y="638" type="line"/>
      <point x="317" y="714" type="line"/>
      <point x="0" y="714" type="line"/>
      <point x="0" y="638" type="line"/>
      <point x="100" y="638" type="line"/>
      <point x="100" y="0" type="line"/>
      <point x="185" y="0" type="line"/>
      <point x="185" y="364" type="line"/>
      <point x="248" y="364" type="line" smooth="yes"/>
      <point x="327" y="364"/>
      <point x="361" y="334"/>
      <point x="361" y="266" type="curve" smooth="yes"/>
      <point x="361" y="159" type="line" smooth="yes"/>
      <point x="361" y="93"/>
      <point x="336" y="65"/>
      <point x="283" y="65" type="curve" smooth="yes"/>
      <point x="270" y="65"/>
      <point x="256" y="69"/>
      <point x="243" y="75" type="curve"/>
      <point x="243" y="0" type="line"/>
      <point x="258" y="-6"/>
      <point x="276" y="-10"/>
    </contour>
  </outline>
</glyph>
<glyph name="afii10053" format="2">
  <advance width="530"/>
  <unicode hex="0404"/>
  <anchor x="288" y="0" name="bottom"/>
  <anchor x="294" y="714" name="top"/>
  <outline>
    <contour>
      <point x="296" y="-10" type="curve" smooth="yes"/>
      <point x="342" y="-10"/>
      <point x="401" y="0"/>
      <point x="444" y="21" type="curve"/>
      <point x="444" y="98" type="line"/>
      <point x="413" y="84"/>
      <point x="361" y="66"/>
      <point x="308" y="66" type="curve" smooth="yes"/>
      <point x="165" y="66"/>
      <point x="116" y="194"/>
      <point x="113" y="333" type="curve"/>
      <point x="388" y="333" type="line"/>
      <point x="388" y="409" type="line"/>
      <point x="114" y="409" type="line"/>
      <point x="126" y="534"/>
      <point x="168" y="649"/>
      <point x="301" y="649" type="curve" smooth="yes"/>
      <point x="344" y="649"/>
      <point x="390" y="637"/>
      <point x="435" y="614" type="curve"/>
      <point x="464" y="685" type="line"/>
      <point x="415" y="712"/>
      <point x="352" y="725"/>
      <point x="299" y="725" type="curve" smooth="yes"/>
      <point x="109" y="725"/>
      <point x="25" y="559"/>
      <point x="25" y="353" type="curve" smooth="yes"/>
      <point x="25" y="130"/>
      <point x="124" y="-10"/>
    </contour>
  </outline>
</glyph>
<glyph name="afii10058" format="2">
  <advance width="530"/>
  <unicode hex="0409"/>
  <anchor x="250" y="0" name="bottom"/>
  <anchor x="211" y="714" name="top"/>
  <outline>
    <contour>
      <point x="52" y="-8" type="curve" smooth="yes"/>
      <point x="115" y="-8"/>
      <point x="147" y="31"/>
      <point x="158" y="121" type="curve" smooth="yes"/>
      <point x="165" y="182"/>
      <point x="171" y="307"/>
      <point x="179" y="635" type="curve"/>
      <point x="287" y="635" type="line"/>
      <point x="287" y="714" type="line"/>
      <point x="101" y="714" type="line"/>
      <point x="91" y="425"/>
      <point x="86" y="228"/>
      <point x="80" y="155" type="curve" smooth="yes"/>
      <point x="76" y="107"/>
      <point x="71" y="68"/>
      <point x="37" y="68" type="curve" smooth="yes"/>
      <point x="26" y="68"/>
      <point x="16" y="71"/>
      <point x="5" y="76" type="curve"/>
      <point x="5" y="2" type="line"/>
      <point x="18" y="-5"/>
      <point x="33" y="-8"/>
    </contour>
    <contour>
      <point x="312" y="74" type="line"/>
      <point x="312" y="342" type="line"/>
      <point x="334" y="342" type="line" smooth="yes"/>
      <point x="389" y="342"/>
      <point x="415" y="299"/>
      <point x="415" y="211" type="curve" smooth="yes"/>
      <point x="415" y="120"/>
      <point x="387" y="74"/>
      <point x="335" y="74" type="curve" smooth="yes"/>
    </contour>
    <contour>
      <point x="228" y="0" type="line"/>
      <point x="336" y="0" type="line" smooth="yes"/>
      <point x="440" y="0"/>
      <point x="500" y="76"/>
      <point x="500" y="215" type="curve" smooth="yes"/>
      <point x="500" y="348"/>
      <point x="444" y="416"/>
      <point x="333" y="416" type="curve" smooth="yes"/>
      <point x="312" y="416" type="line"/>
      <point x="312" y="714" type="line"/>
      <point x="228" y="714" type="line"/>
    </contour>
  </outline>
</glyph>
<glyph name="afii10026" format="2">
  <advance width="530"/>
  <unicode hex="0418"/>
  <anchor x="280" y="0" name="bottom"/>
  <anchor x="480" y="0" name="bottomright"/>
  <anchor x="250" y="714" name="top"/>
  <outline>
    <contour>
      <point x="45" y="0" type="line"/>
      <point x="148" y="0" type="line"/>
      <point x="376" y="580" type="line"/>
      <point x="380" y="580" type="line"/>
      <point x="375" y="526"/>
      <point x="373" y="478"/>
      <point x="373" y="437" type="curve" smooth="yes"/>
      <point x="373" y="0" type="line"/>
      <point x="455" y="0" type="line"/>
      <point x="455" y="714" type="line"/>
      <point x="351" y="714" type="line"/>
      <point x="126" y="141" type="line"/>
      <point x="122" y="141" type="line"/>
      <point x="126" y="209"/>
      <point x="127" y="250"/>
      <point x="127" y="287" type="curve" smooth="yes"/>
      <point x="127" y="714" type="line"/>
      <point x="45" y="714" type="line"/>
    </contour>
  </outline>
</glyph>
<glyph name="afii10028" format="2">
  <advance width="530"/>
  <unicode hex="041A"/>
  <anchor x="254" y="0" name="bottom"/>
  <anchor x="480" y="0" name="bottomright"/>
  <anchor x="250" y="714" name="top"/>
  <outline>
    <contour>
      <point x="45" y="0" type="line"/>
      <point x="129" y="0" type="line"/>
      <point x="129" y="367" type="line"/>
      <point x="377" y="0" type="line"/>
      <point x="475" y="0" type="line"/>
      <point x="216" y="371" type="line"/>
      <point x="464" y="714" type="line"/>
      <point x="370" y="714" type="line"/>
      <point x="129" y="372" type="line"/>
      <point x="129" y="714" type="line"/>
      <point x="45" y="714" type="line"/>
    </contour>
  </outline>
</glyph>
<glyph name="afii10040" format="2">
  <advance width="530"/>
  <unicode hex="0426"/>
  <anchor x="250" y="-196" name="bottom"/>
  <anchor x="250" y="714" name="top"/>
  <outline>
    <contour>
      <point x="45" y="0" type="line"/>
      <point x="455" y="0" type="line"/>
      <point x="455" y="714" type="line"/>
      <point x="371" y="714" type="line"/>
      <point x="371" y="76" type="line"/>
      <point x="129" y="76" type="line"/>
      <point x="129" y="714" type="line"/>
      <point x="45" y="714" type="line"/>
    </contour>
    <contour>
      <point x="424" y="-193" type="line"/>
      <point x="500" y="-193" type="line"/>
      <point x="500" y="76" type="line"/>
      <point x="399" y="76" type="line"/>
      <point x="399" y="0" type="line"/>
      <point x="424" y="0" type="line"/>
    </contour>
  </outline>
</glyph>
<glyph name="afii10045" format="2">
  <advance width="530"/>
  <unicode hex="042B"/>
  <anchor x="250" y="0" name="bottom"/>
  <anchor x="250" y="714" name="top"/>
  <outline>
    <contour>
      <point x="30" y="0" type="line"/>
      <point x="158" y="0" type="line" smooth="yes"/>
      <point x="268" y="0"/>
      <point x="332" y="78"/>
      <point x="332" y="211" type="curve" smooth="yes"/>
      <point x="332" y="350"/>
      <point x="273" y="416"/>
      <point x="155" y="416" type="curve" smooth="yes"/>
      <point x="114" y="416" type="line"/>
      <point x="114" y="714" type="line"/>
      <point x="30" y="714" type="line"/>
    </contour>
    <contour>
      <point x="114" y="74" type="line"/>
      <point x="114" y="342" type="line"/>
      <point x="156" y="342" type="line" smooth="yes"/>
      <point x="218" y="342"/>
      <point x="247" y="300"/>
      <point x="247" y="210" type="curve" smooth="yes"/>
      <point x="247" y="121"/>
      <point x="216" y="74"/>
      <point x="157" y="74" type="curve" smooth="yes"/>
    </contour>
    <contour>
      <point x="386" y="0" type="line"/>
      <point x="470" y="0" type="line"/>
      <point x="470" y="714" type="line"/>
      <point x="386" y="714" type="line"/>
    </contour>
  </outline>
</glyph>
<glyph name="afii10046" format="2">
  <advance width="530"/>
  <unicode hex="042C"/>
  <anchor x="250" y="0" name="bottom"/>
  <anchor x="250" y="714" name="top"/>
  <outline>
    <contour>
      <point x="65" y="0" type="line"/>
      <point x="241" y="0" type="line" smooth="yes"/>
      <point x="376" y="0"/>
      <point x="455" y="78"/>
      <point x="455" y="211" type="curve" smooth="yes"/>
      <point x="455" y="350"/>
      <point x="383" y="416"/>
      <point x="238" y="416" type="curve" smooth="yes"/>
      <point x="149" y="416" type="line"/>
      <point x="149" y="714" type="line"/>
      <point x="65" y="714" type="line"/>
    </contour>
    <contour>
      <point x="149" y="74" type="line"/>
      <point x="149" y="342" type="line"/>
      <point x="239" y="342" type="line" smooth="yes"/>
      <point x="329" y="342"/>
      <point x="370" y="300"/>
      <point x="370" y="210" type="curve" smooth="yes"/>
      <point x="370" y="121"/>
      <point x="325" y="74"/>
      <point x="240" y="74" type="curve" smooth="yes"/>
    </contour>
  </outline>
</glyph>
<glyph name="afii10048" format="2">
  <advance width="530"/>
  <unicode hex="042E"/>
  <anchor x="250" y="0" name="bottom"/>
  <anchor x="250" y="714" name="top"/>
  <outline>
    <contour>
      <point x="329" y="-10" type="curve" smooth="yes"/>
      <point x="465" y="-10"/>
      <point x="475" y="146"/>
      <point x="475" y="358" type="curve" smooth="yes"/>
      <point x="475" y="592"/>
      <point x="454" y="725"/>
      <point x="329" y="725" type="curve" smooth="yes"/>
      <point x="204" y="725"/>
      <point x="182" y="590"/>
      <point x="182" y="352" type="curve" smooth="yes"/>
      <point x="182" y="130"/>
      <point x="200" y="-10"/>
    </contour>
    <contour>
      <point x="30" y="0" type="line"/>
      <point x="114" y="0" type="line"/>
      <point x="114" y="334" type="line"/>
      <point x="236" y="334" type="line"/>
      <point x="236" y="412" type="line"/>
      <point x="114" y="412" type="line"/>
      <point x="114" y="714" type="line"/>
      <point x="30" y="714" type="line"/>
    </contour>
    <contour>
      <point x="328" y="68" type="curve" smooth="yes"/>
      <point x="275" y="68"/>
      <point x="268" y="173"/>
      <point x="268" y="352" type="curve" smooth="yes"/>
      <point x="268" y="544"/>
      <point x="276" y="647"/>
      <point x="329" y="647" type="curve" smooth="yes"/>
      <point x="381" y="647"/>
      <point x="391" y="545"/>
      <point x="391" y="359" type="curve" smooth="yes"/>
      <point x="391" y="172"/>
      <point x="381" y="68"/>
    </contour>
  </outline>
</glyph>
<glyph name="afii10067" format="2">
  <advance width="530"/>
  <unicode hex="0432"/>
  <anchor x="250" y="0" name="bottom"/>
  <anchor x="250" y="536" name="top"/>
  <outline>
    <contour>
      <point x="95" y="0" type="line"/>
      <point x="281" y="0" type="line" smooth="yes"/>
      <point x="387" y="0"/>
      <point x="445" y="57"/>
      <point x="445" y="159" type="curve" smooth="yes"/>
      <point x="445" y="225"/>
      <point x="411" y="272"/>
      <point x="352" y="282" type="curve"/>
      <point x="352" y="286" type="line"/>
      <point x="405" y="300"/>
      <point x="431" y="340"/>
      <point x="431" y="405" type="curve" smooth="yes"/>
      <point x="431" y="491"/>
      <point x="377" y="537"/>
      <point x="274" y="537" type="curve" smooth="yes"/>
      <point x="95" y="537" type="line"/>
    </contour>
    <contour>
      <point x="176" y="65" type="line"/>
      <point x="176" y="250" type="line"/>
      <point x="279" y="250" type="line" smooth="yes"/>
      <point x="334" y="250"/>
      <point x="363" y="226"/>
      <point x="363" y="165" type="curve" smooth="yes"/>
      <point x="363" y="96"/>
      <point x="336" y="65"/>
      <point x="278" y="65" type="curve" smooth="yes"/>
    </contour>
    <contour>
      <point x="176" y="313" type="line"/>
      <point x="176" y="472" type="line"/>
      <point x="270" y="472" type="line" smooth="yes"/>
      <point x="323" y="472"/>
      <point x="349" y="446"/>
      <point x="349" y="398" type="curve" smooth="yes"/>
      <point x="349" y="340"/>
      <point x="328" y="313"/>
      <point x="277" y="313" type="curve" smooth="yes"/>
    </contour>
  </outline>
</glyph>
<glyph name="afii10068" format="2">
  <advance width="530"/>
  <unicode hex="0433"/>
  <anchor x="250" y="0" name="bottom"/>
  <anchor x="480" y="0" name="bottomright"/>
  <anchor x="277" y="536" name="top"/>
  <outline>
    <contour>
      <point x="165" y="0" type="line"/>
      <point x="246" y="0" type="line"/>
      <point x="246" y="466" type="line"/>
      <point x="429" y="466" type="line"/>
      <point x="429" y="537" type="line"/>
      <point x="165" y="537" type="line"/>
    </contour>
  </outline>
</glyph>
<glyph name="afii10069" format="2">
  <advance width="530"/>
  <unicode hex="0434"/>
  <anchor x="250" y="-187" name="bottom"/>
  <anchor x="282" y="536" name="top"/>
  <outline>
    <contour>
      <point x="40" y="-187" type="line"/>
      <point x="119" y="-187" type="line"/>
      <point x="119" y="0" type="line"/>
      <point x="380" y="0" type="line"/>
      <point x="380" y="-187" type="line"/>
      <point x="459" y="-187" type="line"/>
      <point x="459" y="71" type="line"/>
      <point x="402" y="71" type="line"/>
      <point x="402" y="537" type="line"/>
      <point x="167" y="537" type="line"/>
      <point x="163" y="374"/>
      <point x="138" y="201"/>
      <point x="83" y="71" type="curve"/>
      <point x="40" y="71" type="line"/>
    </contour>
    <contour>
      <point x="165" y="71" type="line"/>
      <point x="215" y="195"/>
      <point x="233" y="343"/>
      <point x="238" y="467" type="curve"/>
      <point x="322" y="467" type="line"/>
      <point x="322" y="71" type="line"/>
    </contour>
  </outline>
</glyph>
<glyph name="afii10073" format="2">
  <advance width="530"/>
  <unicode hex="0437"/>
  <anchor x="250" y="0" name="bottom"/>
  <anchor x="250" y="536" name="top"/>
  <outline>
    <contour>
      <point x="219" y="-10" type="curve" smooth="yes"/>
      <point x="357" y="-10"/>
      <point x="428" y="58"/>
      <point x="428" y="153" type="curve" smooth="yes"/>
      <point x="428" y="225"/>
      <point x="380" y="267"/>
      <point x="306" y="284" type="curve"/>
      <point x="306" y="288" type="line"/>
      <point x="363" y="302"/>
      <point x="411" y="345"/>
      <point x="411" y="410" type="curve" smooth="yes"/>
      <point x="411" y="494"/>
      <point x="355" y="547"/>
      <point x="239" y="547" type="curve" smooth="yes"/>
      <point x="178" y="547"/>
      <point x="117" y="527"/>
      <point x="76" y="503" type="curve"/>
      <point x="107" y="442" type="line"/>
      <point x="135" y="460"/>
      <point x="184" y="479"/>
      <point x="234" y="479" type="curve" smooth="yes"/>
      <point x="302" y="479"/>
      <point x="331" y="451"/>
      <point x="331" y="403" type="curve" smooth="yes"/>
      <point x="331" y="349"/>
      <point x="285" y="314"/>
      <point x="206" y="314" type="curve" smooth="yes"/>
      <point x="148" y="314" type="line"/>
      <point x="148" y="249" type="line"/>
      <point x="198" y="249" type="line" smooth="yes"/>
      <point x="294" y="249"/>
      <point x="346" y="212"/>
      <point x="346" y="154" type="curve" smooth="yes"/>
      <point x="346" y="94"/>
      <point x="308" y="60"/>
      <point x="220" y="60" type="curve" smooth="yes"/>
      <point x="162" y="60"/>
      <point x="103" y="79"/>
      <point x="69" y="101" type="curve"/>
      <point x="69" y="25" type="line"/>
      <point x="106" y="3"/>
      <point x="166" y="-10"/>
    </contour>
  </outline>
</glyph>
<glyph name="afii10084" format="2">
  <advance width="530"/>
  <unicode hex="0442"/>
  <anchor x="252" y="0" name="bottom"/>
  <anchor x="480" y="0" name="bottomright"/>
  <anchor x="252" y="528" name="top"/>
  <outline>
    <contour>
      <point x="210" y="0" type="line"/>
      <point x="291" y="0" type="line"/>
      <point x="291" y="467" type="line"/>
      <point x="425" y="467" type="line"/>
      <point x="425" y="537" type="line"/>
      <point x="75" y="537" type="line"/>
      <point x="75" y="467" type="line"/>
      <point x="210" y="467" type="line"/>
    </contour>
  </outline>
</glyph>
<glyph name="afii10091" format="2">
  <advance width="530"/>
  <unicode hex="0449"/>
  <anchor x="250" y="-145" name="bottom"/>
  <anchor x="250" y="536" name="top"/>
  <outline>
    <contour>
      <point x="424" y="-187" type="line"/>
      <point x="500" y="-187" type="line"/>
      <point x="500" y="69" type="line"/>
      <point x="415" y="69" type="line"/>
      <point x="415" y="0" type="line"/>
      <point x="424" y="0" type="line"/>
    </contour>
    <component base="afii10090"/>
  </outline>
</glyph>
<glyph name="afii10092" format="2">
  <advance width="530"/>
  <unicode hex="044A"/>
  <anchor x="250" y="0" name="bottom"/>
  <anchor x="250" y="536" name="top"/>
  <outline>
    <contour>
      <point x="0" y="464" type="line"/>
      <point x="175" y="464" type="line"/>
      <point x="175" y="536" type="line"/>
      <point x="0" y="536" type="line"/>
    </contour>
    <component base="afii10094" xOffset="20"/>
  </outline>
</glyph>
<glyph name="afii10094" format="2">
  <advance width="530"/>
  <unicode hex="044C"/>
  <anchor x="250" y="0" name="bottom"/>
  <anchor x="250" y="536" name="top"/>
  <outline>
    <contour>
      <point x="95" y="0" type="line"/>
      <point x="264" y="0" type="line" smooth="yes"/>
      <point x="375" y="0"/>
      <point x="437" y="55"/>
      <point x="437" y="159" type="curve" smooth="yes"/>
      <point x="437" y="262"/>
      <point x="376" y="315"/>
      <point x="260" y="315" type="curve" smooth="yes"/>
      <point x="176" y="315" type="line"/>
      <point x="176" y="536" type="line"/>
      <point x="95" y="536" type="line"/>
    </contour>
    <contour>
      <point x="176" y="65" type="line"/>
      <point x="176" y="250" type="line"/>
      <point x="253" y="250" type="line" smooth="yes"/>
      <point x="326" y="250"/>
      <point x="356" y="218"/>
      <point x="356" y="156" type="curve" smooth="yes"/>
      <point x="356" y="96"/>
      <point x="324" y="65"/>
      <point x="256" y="65" type="curve" smooth="yes"/>
    </contour>
  </outline>
</glyph>
<glyph name="afii10096" format="2">
  <advance width="530"/>
  <unicode hex="044E"/>
  <anchor x="250" y="0" name="bottom"/>
  <anchor x="250" y="536" name="top"/>
  <outline>
    <contour>
      <point x="324" y="-10" type="curve" smooth="yes"/>
      <point x="432" y="-10"/>
      <point x="480" y="85"/>
      <point x="480" y="268" type="curve" smooth="yes"/>
      <point x="480" y="459"/>
      <point x="431" y="547"/>
      <point x="325" y="547" type="curve" smooth="yes"/>
      <point x="231" y="547"/>
      <point x="172" y="474"/>
      <point x="172" y="274" type="curve" smooth="yes"/>
      <point x="172" y="75"/>
      <point x="224" y="-10"/>
    </contour>
    <contour>
      <point x="25" y="0" type="line"/>
      <point x="110" y="0" type="line"/>
      <point x="110" y="242" type="line"/>
      <point x="204" y="242" type="line"/>
      <point x="204" y="314" type="line"/>
      <point x="110" y="314" type="line"/>
      <point x="110" y="537" type="line"/>
      <point x="25" y="537" type="line"/>
    </contour>
    <contour>
      <point x="326" y="62" type="curve" smooth="yes"/>
      <point x="276" y="62"/>
      <point x="254" y="132"/>
      <point x="254" y="270" type="curve" smooth="yes"/>
      <point x="254" y="404"/>
      <point x="275" y="474"/>
      <point x="325" y="474" type="curve" smooth="yes"/>
      <point x="375" y="474"/>
      <point x="397" y="406"/>
      <point x="397" y="267" type="curve" smooth="yes"/>
      <point x="397" y="132"/>
      <point x="376" y="62"/>
    </contour>
  </outline>
</glyph>
<glyph name="afii10097" format="2">
  <advance width="530"/>
  <unicode hex="044F"/>
  <anchor x="250" y="0" name="bottom"/>
  <anchor x="272" y="536" name="top"/>
  <outline>
    <contour>
      <point x="53" y="0" type="line"/>
      <point x="142" y="0" type="line"/>
      <point x="259" y="221" type="line"/>
      <point x="360" y="221" type="line"/>
      <point x="360" y="0" type="line"/>
      <point x="440" y="0" type="line"/>
      <point x="440" y="537" type="line"/>
      <point x="250" y="537" type="line" smooth="yes"/>
      <point x="142" y="537"/>
      <point x="78" y="480"/>
      <point x="78" y="380" type="curve" smooth="yes"/>
      <point x="78" y="301"/>
      <point x="115" y="248"/>
      <point x="185" y="231" type="curve"/>
    </contour>
    <contour>
      <point x="258" y="287" type="line" smooth="yes"/>
      <point x="193" y="287"/>
      <point x="160" y="318"/>
      <point x="160" y="379" type="curve" smooth="yes"/>
      <point x="160" y="439"/>
      <point x="194" y="472"/>
      <point x="259" y="472" type="curve" smooth="yes"/>
      <point x="360" y="472" type="line"/>
      <point x="360" y="287" type="line"/>
    </contour>
  </outline>
</glyph>
<glyph name="afii10099" format="2">
  <advance width="530"/>
  <unicode hex="0452"/>
  <anchor x="250" y="-240" name="bottom"/>
  <anchor x="250" y="760" name="top"/>
  <anchor x="250" y="268" name="center"/>
  <outline>
    <contour>
      <point x="325" y="-240" type="curve" smooth="yes"/>
      <point x="402" y="-240"/>
      <point x="445" y="-185"/>
      <point x="445" y="-82" type="curve" smooth="yes"/>
      <point x="445" y="231" type="line"/>
      <point x="363" y="231" type="line"/>
      <point x="363" y="-83" type="line" smooth="yes"/>
      <point x="363" y="-140"/>
      <point x="346" y="-167"/>
      <point x="310" y="-167" type="curve" smooth="yes"/>
      <point x="297" y="-167"/>
      <point x="282" y="-164"/>
      <point x="265" y="-159" type="curve"/>
      <point x="265" y="-231" type="line"/>
      <point x="279" y="-236"/>
      <point x="304" y="-240"/>
    </contour>
    <component base="afii10108"/>
  </outline>
</glyph>
<glyph name="afii10193" format="2">
  <advance width="530"/>
  <unicode hex="045F"/>
  <anchor x="250" y="-187" name="bottom"/>
  <anchor x="250" y="536" name="top"/>
  <outline>
    <contour>
      <point x="213" y="-187" type="line"/>
      <point x="288" y="-187" type="line"/>
      <point x="288" y="40" type="line"/>
      <point x="213" y="40" type="line"/>
    </contour>
    <contour>
      <point x="60" y="536" type="line"/>
      <point x="60" y="0" type="line"/>
      <point x="440" y="0" type="line"/>
      <point x="440" y="536" type="line"/>
      <point x="359" y="536" type="line"/>
      <point x="359" y="70" type="line"/>
      <point x="141" y="70" type="line"/>
      <point x="141" y="536" type="line"/>
    </contour>
  </outline>
</glyph>
<glyph name="uni0460" format="2">
  <advance width="530"/>
  <unicode hex="0460"/>
  <anchor x="250" y="0" name="bottom"/>
  <anchor x="250" y="714" name="top"/>
  <outline>
    <contour>
      <point x="98" y="0" type="curve"/>
      <point x="181" y="0" type="line"/>
      <point x="245" y="349" type="line"/>
      <point x="259" y="233"/>
      <point x="285" y="104"/>
      <point x="319" y="0" type="curve"/>
      <point x="393" y="0" type="line"/>
      <point x="455" y="205"/>
      <point x="487" y="441"/>
      <point x="489" y="714" type="curve"/>
      <point x="411" y="714" type="line"/>
      <point x="409" y="461"/>
      <point x="390" y="289"/>
      <point x="355" y="142" type="curve"/>
      <point x="354" y="142" type="line"/>
      <point x="320" y="291"/>
      <point x="290" y="500"/>
      <point x="289" y="714" type="curve"/>
      <point x="209" y="714" type="line"/>
      <point x="209" y="650"/>
      <point x="212" y="587"/>
      <point x="217" y="518" type="curve"/>
      <point x="168" y="285" type="line" smooth="yes"/>
      <point x="157" y="231"/>
      <point x="151" y="184"/>
      <point x="144" y="145" type="curve"/>
      <point x="142" y="145" type="line"/>
      <point x="110" y="282"/>
      <point x="99" y="482"/>
      <point x="96" y="714" type="curve"/>
      <point x="17" y="714" type="line"/>
      <point x="19" y="467"/>
      <point x="38" y="218"/>
    </contour>
  </outline>
</glyph>
<glyph name="uni0462" format="2">
  <advance width="530"/>
  <unicode hex="0462"/>
  <anchor x="250" y="0" name="bottom"/>
  <anchor x="250" y="714" name="top"/>
  <outline>
    <contour>
      <point x="103" y="0" type="line"/>
      <point x="253" y="0" type="line" smooth="yes"/>
      <point x="384" y="0"/>
      <point x="457" y="80"/>
      <point x="457" y="210" type="curve" smooth="yes"/>
      <point x="457" y="350"/>
      <point x="387" y="413"/>
      <point x="250" y="413" type="curve" smooth="yes"/>
      <point x="187" y="413" type="line"/>
      <point x="187" y="560" type="line"/>
      <point x="320" y="560" type="line"/>
      <point x="320" y="625" type="line"/>
      <point x="187" y="625" type="line"/>
      <point x="187" y="714" type="line"/>
      <point x="103" y="714" type="line"/>
      <point x="103" y="625" type="line"/>
      <point x="13" y="625" type="line"/>
      <point x="13" y="560" type="line"/>
      <point x="103" y="560" type="line"/>
    </contour>
    <contour>
      <point x="187" y="74" type="line"/>
      <point x="187" y="339" type="line"/>
      <point x="251" y="339" type="line" smooth="yes"/>
      <point x="335" y="339"/>
      <point x="372" y="298"/>
      <point x="372" y="208" type="curve" smooth="yes"/>
      <point x="372" y="121"/>
      <point x="330" y="74"/>
      <point x="252" y="74" type="curve" smooth="yes"/>
    </contour>
  </outline>
</glyph>
<glyph name="uni0465" format="2">
  <advance width="530"/>
  <unicode hex="0465"/>
  <anchor x="250" y="0" name="bottom"/>
  <anchor x="250" y="536" name="top"/>
  <outline>
    <contour>
      <point x="376" y="-10" type="curve" smooth="yes"/>
      <point x="417" y="-10"/>
      <point x="452" y="0"/>
      <point x="470" y="11" type="curve"/>
      <point x="470" y="81" type="line"/>
      <point x="445" y="69"/>
      <point x="420" y="60"/>
      <point x="387" y="60" type="curve" smooth="yes"/>
      <point x="314" y="60"/>
      <point x="290" y="122"/>
      <point x="286" y="244" type="curve"/>
      <point x="419" y="244" type="line"/>
      <point x="419" y="309" type="line"/>
      <point x="286" y="309" type="line"/>
      <point x="293" y="431"/>
      <point x="332" y="477"/>
      <point x="395" y="477" type="curve" smooth="yes"/>
      <point x="422" y="477"/>
      <point x="443" y="468"/>
      <point x="458" y="459" type="curve"/>
      <point x="483" y="525" type="line"/>
      <point x="461" y="537"/>
      <point x="431" y="547"/>
      <point x="392" y="547" type="curve" smooth="yes"/>
      <point x="279" y="547"/>
      <point x="216" y="469"/>
      <point x="206" y="309" type="curve"/>
      <point x="130" y="309" type="line"/>
      <point x="130" y="537" type="line"/>
      <point x="49" y="537" type="line"/>
      <point x="49" y="0" type="line"/>
      <point x="130" y="0" type="line"/>
      <point x="130" y="244" type="line"/>
      <point x="205" y="244" type="line"/>
      <point x="210" y="72"/>
      <point x="264" y="-10"/>
    </contour>
  </outline>
</glyph>
<glyph name="uni0466" format="2">
  <advance width="530"/>
  <unicode hex="0466"/>
  <anchor x="250" y="0" name="bottom"/>
  <anchor x="250" y="714" name="top"/>
  <outline>
    <contour>
      <point x="-5" y="0" type="line"/>
      <point x="83" y="0" type="line"/>
      <point x="167" y="327" type="line"/>
      <point x="206" y="327" type="line"/>
      <point x="206" y="0" type="line"/>
      <point x="285" y="0" type="line"/>
      <point x="285" y="327" type="line"/>
      <point x="322" y="327" type="line"/>
      <point x="408" y="0" type="line"/>
      <point x="495" y="0" type="line"/>
      <point x="295" y="714" type="line"/>
      <point x="193" y="714" type="line"/>
    </contour>
    <contour>
      <point x="186" y="400" type="line"/>
      <point x="228" y="562" type="line"/>
      <point x="236" y="585"/>
      <point x="241" y="610"/>
      <point x="244" y="637" type="curve"/>
      <point x="247" y="610"/>
      <point x="253" y="585"/>
      <point x="259" y="563" type="curve" smooth="yes"/>
      <point x="302" y="400" type="line"/>
    </contour>
  </outline>
</glyph>
<glyph name="uni0467" format="2">
  <advance width="530"/>
  <unicode hex="0467"/>
  <anchor x="250" y="0" name="bottom"/>
  <anchor x="250" y="536" name="top"/>
  <outline>
    <contour>
      <point x="19" y="0" type="line"/>
      <point x="104" y="0" type="line"/>
      <point x="178" y="234" type="line"/>
      <point x="212" y="234" type="line"/>
      <point x="212" y="0" type="line"/>
      <point x="289" y="0" type="line"/>
      <point x="289" y="234" type="line"/>
      <point x="324" y="234" type="line"/>
      <point x="399" y="0" type="line"/>
      <point x="484" y="0" type="line"/>
      <point x="302" y="537" type="line"/>
      <point x="202" y="537" type="line"/>
    </contour>
    <contour>
      <point x="200" y="301" type="line"/>
      <point x="238" y="427" type="line" smooth="yes"/>
      <point x="243" y="445"/>
      <point x="246" y="457"/>
      <point x="250" y="473" type="curve"/>
      <point x="254" y="473" type="line"/>
      <point x="258" y="458"/>
      <point x="261" y="446"/>
      <point x="267" y="426" type="curve" smooth="yes"/>
      <point x="302" y="301" type="line"/>
    </contour>
  </outline>
</glyph>
<glyph name="uni0469" format="2">
  <advance width="530"/>
  <unicode hex="0469"/>
  <anchor x="320" y="0" name="bottom"/>
  <anchor x="320" y="537" name="top"/>
  <outline>
    <contour>
      <point x="38" y="0" type="line"/>
      <point x="111" y="0" type="line"/>
      <point x="111" y="249" type="line"/>
      <point x="202" y="249" type="line"/>
      <point x="141" y="0" type="line"/>
      <point x="213" y="0" type="line"/>
      <point x="268" y="238" type="line"/>
      <point x="285" y="238" type="line"/>
      <point x="285" y="0" type="line"/>
      <point x="351" y="0" type="line"/>
      <point x="351" y="238" type="line"/>
      <point x="368" y="238" type="line"/>
      <point x="424" y="0" type="line"/>
      <point x="497" y="0" type="line"/>
      <point x="363" y="537" type="line"/>
      <point x="276" y="537" type="line"/>
      <point x="217" y="311" type="line"/>
      <point x="111" y="311" type="line"/>
      <point x="111" y="537" type="line"/>
      <point x="38" y="537" type="line"/>
    </contour>
    <contour>
      <point x="282" y="297" type="line"/>
      <point x="303" y="388" type="line" smooth="yes"/>
      <point x="311" y="421"/>
      <point x="315" y="437"/>
      <point x="318" y="459" type="curve"/>
      <point x="320" y="459" type="line"/>
      <point x="322" y="438"/>
      <point x="326" y="419"/>
      <point x="333" y="389" type="curve" smooth="yes"/>
      <point x="354" y="297" type="line"/>
    </contour>
  </outline>
</glyph>
<glyph name="uni046F" format="2">
  <advance width="530"/>
  <unicode hex="046F"/>
  <anchor x="250" y="-194" name="bottom"/>
  <anchor x="250" y="664" name="top"/>
  <outline>
    <contour>
      <point x="433" y="-194" type="curve"/>
      <point x="433" y="-120" type="line"/>
      <point x="419" y="-108"/>
      <point x="393" y="-100"/>
      <point x="345" y="-100" type="curve" smooth="yes"/>
      <point x="302" y="-100"/>
      <point x="248" y="-108"/>
      <point x="185" y="-108" type="curve" smooth="yes"/>
      <point x="117" y="-108"/>
      <point x="99" y="-92"/>
      <point x="99" y="-60" type="curve" smooth="yes"/>
      <point x="99" y="-26"/>
      <point x="125" y="-8"/>
      <point x="232" y="-7" type="curve" smooth="yes"/>
      <point x="375" y="-6"/>
      <point x="428" y="64"/>
      <point x="428" y="153" type="curve" smooth="yes"/>
      <point x="428" y="225"/>
      <point x="380" y="267"/>
      <point x="306" y="284" type="curve"/>
      <point x="306" y="288" type="line"/>
      <point x="363" y="302"/>
      <point x="411" y="345"/>
      <point x="411" y="410" type="curve" smooth="yes"/>
      <point x="411" y="476"/>
      <point x="377" y="522"/>
      <point x="307" y="540" type="curve"/>
      <point x="331" y="574"/>
      <point x="357" y="605"/>
      <point x="388" y="605" type="curve" smooth="yes"/>
      <point x="397" y="605"/>
      <point x="410" y="603"/>
      <point x="417" y="600" type="curve"/>
      <point x="417" y="657" type="line"/>
      <point x="408" y="660"/>
      <point x="392" y="664"/>
      <point x="373" y="664" type="curve" smooth="yes"/>
      <point x="320" y="664"/>
      <point x="285" y="614"/>
      <point x="252" y="568" type="curve"/>
      <point x="219" y="604"/>
      <point x="188" y="637"/>
      <point x="160" y="660" type="curve"/>
      <point x="103" y="660" type="line"/>
      <point x="103" y="647" type="line"/>
      <point x="123" y="625"/>
      <point x="160" y="581"/>
      <point x="187" y="542" type="curve"/>
      <point x="144" y="535"/>
      <point x="105" y="520"/>
      <point x="76" y="503" type="curve"/>
      <point x="107" y="442" type="line"/>
      <point x="135" y="460"/>
      <point x="184" y="479"/>
      <point x="234" y="479" type="curve" smooth="yes"/>
      <point x="302" y="479"/>
      <point x="331" y="451"/>
      <point x="331" y="403" type="curve" smooth="yes"/>
      <point x="331" y="344"/>
      <point x="282" y="314"/>
      <point x="203" y="314" type="curve" smooth="yes"/>
      <point x="148" y="314" type="line"/>
      <point x="148" y="249" type="line"/>
      <point x="198" y="249" type="line" smooth="yes"/>
      <point x="294" y="249"/>
      <point x="346" y="212"/>
      <point x="346" y="154" type="curve" smooth="yes"/>
      <point x="346" y="88"/>
      <point x="306" y="65"/>
      <point x="219" y="63" type="curve" smooth="yes"/>
      <point x="67" y="60"/>
      <point x="28" y="8"/>
      <point x="28" y="-61" type="curve" smooth="yes"/>
      <point x="28" y="-118"/>
      <point x="58" y="-181"/>
      <point x="177" y="-181" type="curve" smooth="yes"/>
      <point x="242" y="-181"/>
      <point x="306" y="-173"/>
      <point x="347" y="-173" type="curve" smooth="yes"/>
      <point x="383" y="-173"/>
      <point x="417" y="-181"/>
    </contour>
  </outline>
</glyph>
<glyph name="uni0475" format="2">
  <advance width="530"/>
  <unicode hex="0475"/>
  <anchor x="232" y="0" name="bottom"/>
  <anchor x="230" y="536" name="top"/>
  <outline>
    <contour>
      <point x="179" y="0" type="line"/>
      <point x="280" y="0" type="line"/>
      <point x="403" y="389" type="line" smooth="yes"/>
      <point x="421" y="445"/>
      <point x="431" y="470"/>
      <point x="464" y="470" type="curve" smooth="yes"/>
      <point x="475" y="470"/>
      <point x="486" y="468"/>
      <point x="493" y="465" type="curve"/>
      <point x="493" y="535" type="line"/>
      <point x="483" y="538"/>
      <point x="472" y="541"/>
      <point x="459" y="541" type="curve" smooth="yes"/>
      <point x="383" y="541"/>
      <point x="363" y="510"/>
      <point x="331" y="407" type="curve" smooth="yes"/>
      <point x="263" y="189" type="line" smooth="yes"/>
      <point x="249" y="144"/>
      <point x="235" y="95"/>
      <point x="231" y="72" type="curve"/>
      <point x="228" y="72" type="line"/>
      <point x="224" y="93"/>
      <point x="215" y="126"/>
      <point x="197" y="181" type="curve" smooth="yes"/>
      <point x="81" y="536" type="line"/>
      <point x="-2" y="536" type="line"/>
    </contour>
  </outline>
</glyph>
<glyph name="uni0480" format="2">
  <advance width="530"/>
  <unicode hex="0480"/>
  <anchor x="341" y="-240" name="bottom"/>
  <anchor x="320" y="714" name="top"/>
  <outline>
    <contour>
      <point x="312" y="-10" type="curve" smooth="yes"/>
      <point x="341" y="-10"/>
      <point x="367" y="-7"/>
      <point x="384" y="-4" type="curve"/>
      <point x="384" y="71" type="line"/>
      <point x="368" y="68"/>
      <point x="347" y="65"/>
      <point x="324" y="65" type="curve" smooth="yes"/>
      <point x="189" y="65"/>
      <point x="125" y="179"/>
      <point x="125" y="357" type="curve" smooth="yes"/>
      <point x="125" y="522"/>
      <point x="186" y="651"/>
      <point x="317" y="651" type="curve" smooth="yes"/>
      <point x="365" y="651"/>
      <point x="407" y="638"/>
      <point x="442" y="618" type="curve"/>
      <point x="475" y="688" type="line"/>
      <point x="427" y="712"/>
      <point x="374" y="726"/>
      <point x="316" y="726" type="curve" smooth="yes"/>
      <point x="135" y="726"/>
      <point x="40" y="567"/>
      <point x="40" y="358" type="curve" smooth="yes"/>
      <point x="40" y="130"/>
      <point x="135" y="-10"/>
    </contour>
    <contour>
      <point x="301" y="-240" type="line"/>
      <point x="384" y="-240" type="line"/>
      <point x="384" y="56" type="line"/>
      <point x="301" y="20" type="line"/>
    </contour>
  </outline>
</glyph>
<glyph name="titlocomb.cy" format="2">
  <unicode hex="0483"/>
  <anchor x="0" y="537" name="_top"/>
  <anchor x="0" y="716" name="top"/>
  <outline>
    <contour>
      <point x="-93" y="574" type="curve" smooth="yes"/>
      <point x="-72" y="574"/>
      <point x="-56" y="586"/>
      <point x="-55" y="615" type="curve"/>
      <point x="86" y="615" type="line" smooth="yes"/>
      <point x="116" y="615"/>
      <point x="131" y="632"/>
      <point x="131" y="665" type="curve" smooth="yes"/>
      <point x="131" y="699"/>
      <point x="114" y="716"/>
      <point x="92" y="716" type="curve" smooth="yes"/>
      <point x="71" y="716"/>
      <point x="54" y="702"/>
      <point x="53" y="675" type="curve"/>
      <point x="-87" y="675" type="line" smooth="yes"/>
      <point x="-117" y="675"/>
      <point x="-132" y="658"/>
      <point x="-132" y="625" type="curve" smooth="yes"/>
      <point x="-132" y="593"/>
      <point x="-114" y="574"/>
    </contour>
  </outline>
</glyph>
<glyph name="uni0489" format="2">
  <advance width="530"/>
  <unicode hex="0489"/>
  <outline>
    <contour>
      <point x="209" y="452" type="line"/>
      <point x="240" y="476"/>
      <point x="289" y="508"/>
      <point x="354" y="548" type="curve"/>
      <point x="319" y="583" type="line"/>
      <point x="263" y="563"/>
      <point x="202" y="534"/>
      <point x="161" y="510" type="curve"/>
      <point x="159" y="501" type="line"/>
    </contour>
    <contour>
      <point x="-319" y="-58" type="line"/>
      <point x="-276" y="-42"/>
      <point x="-201" y="-7"/>
      <point x="-161" y="16" type="curve"/>
      <point x="-159" y="24" type="line"/>
      <point x="-209" y="73" type="line"/>
      <point x="-240" y="50"/>
      <point x="-288" y="18"/>
      <point x="-355" y="-23" type="curve"/>
    </contour>
    <contour>
      <point x="-284" y="215" type="curve"/>
      <point x="-277" y="219" type="line"/>
      <point x="-277" y="289" type="line"/>
      <point x="-317" y="295"/>
      <point x="-374" y="306"/>
      <point x="-448" y="323" type="curve"/>
      <point x="-448" y="274" type="line"/>
      <point x="-393" y="249"/>
      <point x="-339" y="229"/>
    </contour>
    <contour>
      <point x="-55" y="-188" type="curve"/>
      <point x="-5" y="-188" type="line"/>
      <point x="22" y="-130"/>
      <point x="42" y="-76"/>
      <point x="55" y="-24" type="curve"/>
      <point x="50" y="-17" type="line"/>
      <point x="-20" y="-17" type="line"/>
      <point x="-26" y="-57"/>
      <point x="-37" y="-114"/>
    </contour>
    <contour>
      <point x="278" y="-99" type="curve"/>
      <point x="313" y="-64" type="line"/>
      <point x="293" y="-8"/>
      <point x="263" y="53"/>
      <point x="240" y="94" type="curve"/>
      <point x="231" y="95" type="line"/>
      <point x="182" y="47" type="line"/>
      <point x="207" y="13"/>
      <point x="239" y="-35"/>
    </contour>
    <contour>
      <point x="-232" y="430" type="line"/>
      <point x="-182" y="479" type="line"/>
      <point x="-204" y="507"/>
      <point x="-236" y="556"/>
      <point x="-278" y="625" type="curve"/>
      <point x="-314" y="590" type="line"/>
      <point x="-291" y="528"/>
      <point x="-267" y="476"/>
      <point x="-241" y="432" type="curve"/>
    </contour>
    <contour>
      <point x="447" y="216" type="curve"/>
      <point x="447" y="265" type="line"/>
      <point x="411" y="282"/>
      <point x="326" y="314"/>
      <point x="283" y="325" type="curve"/>
      <point x="276" y="320" type="line"/>
      <point x="276" y="251" type="line"/>
      <point x="317" y="244"/>
      <point x="374" y="233"/>
    </contour>
    <contour>
      <point x="-51" y="557" type="line"/>
      <point x="19" y="557" type="line"/>
      <point x="25" y="598"/>
      <point x="36" y="655"/>
      <point x="54" y="728" type="curve"/>
      <point x="4" y="728" type="line"/>
      <point x="-20" y="676"/>
      <point x="-43" y="614"/>
      <point x="-56" y="564" type="curve"/>
    </contour>
  </outline>
</glyph>
<glyph name="uni048B" format="2">
  <advance width="530"/>
  <unicode hex="048B"/>
  <anchor x="250" y="-187" name="bottom"/>
  <anchor x="250" y="741" name="top"/>
  <anchor x="480" y="0" name="bottomright"/>
  <outline>
    <contour>
      <point x="373" y="-187" type="line"/>
      <point x="455" y="-187" type="line"/>
      <point x="513" y="67" type="line"/>
      <point x="417" y="67" type="line"/>
      <point x="411" y="0" type="line"/>
      <point x="429" y="0" type="line"/>
    </contour>
    <component base="afii10074"/>
    <component base="breve"/>
  </outline>
</glyph>
